<svg width="20" height="20" viewBox="0 0 20 20" fill="none" xmlns="http://www.w3.org/2000/svg">
<rect width="20.0001" height="20.0001" rx="2.66667" fill="#34AFF9"/>
<path d="M9.47289 6.05427H5.99398C5.73036 6.05427 5.47754 6.15899 5.29113 6.3454C5.10472 6.53181 5 6.78463 5 7.04825V14.0061C5 14.2697 5.10472 14.5225 5.29113 14.7089C5.47754 14.8953 5.73036 15.0001 5.99398 15.0001H12.9518C13.2154 15.0001 13.4683 14.8953 13.6547 14.7089C13.8411 14.5225 13.9458 14.2697 13.9458 14.0061V10.5272M13.2003 5.30879C13.398 5.11107 13.6662 5 13.9458 5C14.2254 5 14.4936 5.11107 14.6913 5.30879C14.889 5.5065 15.0001 5.77466 15.0001 6.05427C15.0001 6.33388 14.889 6.60204 14.6913 6.79975L9.96988 11.5211L7.98193 12.0181L8.47892 10.0302L13.2003 5.30879Z" stroke="white" stroke-linecap="round" stroke-linejoin="round"/>
</svg>
