<svg xmlns="http://www.w3.org/2000/svg" viewBox="0 0 500 500"><g id="freepik--Shadow--inject-2"><polygon id="freepik--shadow--inject-2" points="211.55 490.41 48.52 396.28 309.85 245.48 472.88 339.61 211.55 490.41" style="fill:#e0e0e0"></polygon></g><g id="freepik--Pictures--inject-2"><g id="freepik--Picture--inject-2"><g id="freepik--Frame--inject-2"><polygon points="44.93 120.35 47.78 122.05 106.23 88.3 103.39 86.61 44.93 120.35" style="fill:#fafafa"></polygon><polygon points="103.39 86.61 47.78 118.7 47.78 60.47 103.39 28.4 103.39 86.61" style="fill:#fff"></polygon><path d="M111.61,17.42,42.41,57.37v74l69.2-40ZM106.23,88.3,47.78,122.05V60.47l58.45-33.74Z" style="fill:#f0f0f0"></path><polygon points="106.23 88.3 103.39 86.61 103.39 28.4 106.23 26.73 106.23 88.3" style="fill:#e0e0e0"></polygon><polygon points="111.61 17.42 108.72 15.76 39.52 55.72 42.41 57.37 111.61 17.42" style="fill:#fafafa"></polygon><polygon points="39.52 55.72 42.41 57.37 42.41 131.36 39.52 129.7 39.52 55.72" style="fill:#e0e0e0"></polygon></g><path d="M76.33,63.87,73.5,59l2.75-8,.06,0,5.56-3.21.08.14,2.75,4.76L82,60.62l-.06,0Zm-2.46-4.94,2.58,4.48,5.22-3,2.66-7.68-2.59-4.48-5.21,3Z" style="fill:#f0f0f0"></path><path d="M84.45,65.43l-.08-.14-2.75-4.76,2.76-8,.05,0L90,49.33l2.84,4.91-2.76,7.95,0,0ZM82,60.49,84.58,65l5.21-3,2.66-7.69-2.58-4.48-5.22,3Z" style="fill:#f0f0f0"></path><path d="M76.33,76.38l-2.84-4.9,2.76-8,.06,0,5.56-3.21,2.83,4.9-2.75,8-.06,0Zm-2.46-4.94,2.58,4.48,5.22-3,2.66-7.69-2.59-4.48-5.21,3Z" style="fill:#f0f0f0"></path><path d="M68.2,87.32l-2.83-4.9,2.76-8,.05,0,5.56-3.22,2.84,4.91-2.76,8,0,0Zm-2.46-4.94,2.59,4.48,5.21-3,2.67-7.69-2.59-4.48-5.22,3Z" style="fill:#f0f0f0"></path><path d="M68.2,99.83l-2.83-4.9,2.76-8,.05,0,5.56-3.22,2.84,4.91-2.76,8,0,0Zm-2.46-4.94,2.59,4.48,5.21-3,2.67-7.69-2.59-4.48-5.22,3Z" style="fill:#f0f0f0"></path><path d="M60.08,98.27,60,98.12l-2.74-4.75,2.75-8,.06,0,5.56-3.21,2.83,4.9L65.7,95l-.06,0Zm-2.46-4.94,2.58,4.48,5.22-3,2.66-7.69L65.5,82.63l-5.22,3Z" style="fill:#f0f0f0"></path><path d="M83.3,59.65a3.6,3.6,0,0,1-1.49,2.86c-.83.47-1.5,0-1.5-1.14a3.55,3.55,0,0,1,1.5-2.85C82.63,58,83.3,58.54,83.3,59.65Z" style="fill:#f0f0f0"></path><path d="M86,51.83a3.59,3.59,0,0,1-1.5,2.86c-.82.47-1.49,0-1.49-1.13a3.57,3.57,0,0,1,1.49-2.86C85.34,50.22,86,50.72,86,51.83Z" style="fill:#f0f0f0"></path><path d="M77.88,75.28a3.57,3.57,0,0,1-1.49,2.86c-.83.48-1.5,0-1.5-1.13a3.59,3.59,0,0,1,1.5-2.86C77.21,73.68,77.88,74.18,77.88,75.28Z" style="fill:#f0f0f0"></path><path d="M69.76,86.23a3.59,3.59,0,0,1-1.5,2.86c-.82.47-1.49,0-1.49-1.13a3.57,3.57,0,0,1,1.49-2.86C69.09,84.62,69.76,85.13,69.76,86.23Z" style="fill:#f0f0f0"></path><path d="M67.05,81.54a3.6,3.6,0,0,1-1.49,2.86c-.83.47-1.5,0-1.5-1.13a3.56,3.56,0,0,1,1.5-2.86C66.38,79.93,67.05,80.43,67.05,81.54Z" style="fill:#f0f0f0"></path><path d="M77.05,50.75A1.6,1.6,0,0,1,76.39,52c-.37.21-.66,0-.66-.5a1.56,1.56,0,0,1,.66-1.26C76.75,50,77.05,50.26,77.05,50.75Z" style="fill:#f0f0f0"></path><path d="M82.47,47.62a1.6,1.6,0,0,1-.66,1.26c-.37.21-.67,0-.67-.5a1.57,1.57,0,0,1,.67-1.26C82.17,46.91,82.47,47.13,82.47,47.62Z" style="fill:#f0f0f0"></path><path d="M74.34,58.56a1.58,1.58,0,0,1-.66,1.27c-.36.21-.66,0-.66-.5a1.6,1.6,0,0,1,.66-1.27C74.05,57.85,74.34,58.08,74.34,58.56Z" style="fill:#f0f0f0"></path><path d="M77.05,63.26a1.6,1.6,0,0,1-.66,1.26c-.37.21-.66,0-.66-.5a1.56,1.56,0,0,1,.66-1.26C76.75,62.55,77.05,62.77,77.05,63.26Z" style="fill:#f0f0f0"></path><path d="M90.59,49.18a1.59,1.59,0,0,1-.66,1.27c-.36.21-.66,0-.66-.5a1.6,1.6,0,0,1,.66-1.27C90.3,48.47,90.59,48.69,90.59,49.18Z" style="fill:#f0f0f0"></path><path d="M93.3,53.87a1.58,1.58,0,0,1-.66,1.27c-.37.21-.66,0-.66-.5a1.58,1.58,0,0,1,.66-1.27C93,53.16,93.3,53.39,93.3,53.87Z" style="fill:#f0f0f0"></path><path d="M90.59,61.69A1.59,1.59,0,0,1,89.93,63c-.36.21-.66,0-.66-.5a1.6,1.6,0,0,1,.66-1.27C90.3,61,90.59,61.2,90.59,61.69Z" style="fill:#f0f0f0"></path><path d="M85.18,64.82a1.57,1.57,0,0,1-.67,1.26c-.36.21-.66,0-.66-.5a1.6,1.6,0,0,1,.66-1.26C84.88,64.11,85.18,64.33,85.18,64.82Z" style="fill:#f0f0f0"></path><path d="M82.47,72.64a1.58,1.58,0,0,1-.66,1.26c-.37.21-.67,0-.67-.5a1.58,1.58,0,0,1,.67-1.26C82.17,71.93,82.47,72.15,82.47,72.64Z" style="fill:#f0f0f0"></path><path d="M74.34,71.08a1.57,1.57,0,0,1-.66,1.26c-.37.21-.66,0-.66-.5a1.56,1.56,0,0,1,.66-1.26C74.05,70.36,74.34,70.59,74.34,71.08Z" style="fill:#f0f0f0"></path><path d="M68.93,74.2a1.57,1.57,0,0,1-.67,1.26c-.36.22-.66,0-.66-.5a1.6,1.6,0,0,1,.66-1.26C68.63,73.49,68.93,73.71,68.93,74.2Z" style="fill:#f0f0f0"></path><path d="M74.34,83.58a1.58,1.58,0,0,1-.66,1.27c-.36.21-.66,0-.66-.5a1.6,1.6,0,0,1,.66-1.27C74.05,82.87,74.34,83.1,74.34,83.58Z" style="fill:#f0f0f0"></path><path d="M77.05,88.27a1.58,1.58,0,0,1-.66,1.27c-.37.21-.66,0-.66-.5a1.58,1.58,0,0,1,.66-1.27C76.76,87.56,77.05,87.79,77.05,88.27Z" style="fill:#f0f0f0"></path><path d="M74.34,96.09a1.58,1.58,0,0,1-.66,1.27c-.36.21-.66,0-.66-.5a1.6,1.6,0,0,1,.66-1.27C74.05,95.38,74.34,95.61,74.34,96.09Z" style="fill:#f0f0f0"></path><path d="M68.93,99.22a1.57,1.57,0,0,1-.67,1.26c-.36.22-.66,0-.66-.5a1.6,1.6,0,0,1,.66-1.26C68.63,98.51,68.93,98.73,68.93,99.22Z" style="fill:#f0f0f0"></path><path d="M60.8,97.66a1.6,1.6,0,0,1-.66,1.26c-.37.21-.66,0-.66-.5a1.56,1.56,0,0,1,.66-1.26C60.5,97,60.8,97.17,60.8,97.66Z" style="fill:#f0f0f0"></path><path d="M66.22,94.53a1.58,1.58,0,0,1-.66,1.26c-.37.21-.67,0-.67-.5A1.58,1.58,0,0,1,65.56,94C65.92,93.82,66.22,94,66.22,94.53Z" style="fill:#f0f0f0"></path><path d="M60.8,85.15a1.6,1.6,0,0,1-.66,1.26c-.37.21-.66,0-.66-.5a1.56,1.56,0,0,1,.66-1.26C60.5,84.44,60.8,84.66,60.8,85.15Z" style="fill:#f0f0f0"></path><path d="M58.09,93a1.57,1.57,0,0,1-.66,1.26c-.36.21-.66,0-.66-.5a1.58,1.58,0,0,1,.66-1.26C57.8,92.25,58.09,92.48,58.09,93Z" style="fill:#f0f0f0"></path><path d="M80.52,85l20-11.54a1.46,1.46,0,0,0,.75-1c0-.33-.34-.41-.75-.18l-20,11.54a1.45,1.45,0,0,0-.74,1C79.78,85.12,80.11,85.2,80.52,85Z" style="fill:#f0f0f0"></path><path d="M80.52,81.8l20-11.54a1.46,1.46,0,0,0,.75-1c0-.33-.34-.41-.75-.18l-20,11.54a1.45,1.45,0,0,0-.74,1C79.78,82,80.11,82,80.52,81.8Z" style="fill:#f0f0f0"></path><path d="M50.94,73.83l14-8.1a1.43,1.43,0,0,0,.74-1c0-.34-.33-.42-.74-.18l-14,8.09a1.45,1.45,0,0,0-.74,1C50.2,74,50.53,74.06,50.94,73.83Z" style="fill:#f0f0f0"></path><path d="M50.94,70.67l14-8.1a1.43,1.43,0,0,0,.74-1c0-.34-.33-.42-.74-.18l-14,8.09a1.45,1.45,0,0,0-.74,1C50.2,70.82,50.53,70.9,50.94,70.67Z" style="fill:#f0f0f0"></path><path d="M91.35,72.27a.18.18,0,0,1-.17-.17V68L85.8,65.78a.16.16,0,0,1-.09-.22.17.17,0,0,1,.22-.09l5.48,2.21a.15.15,0,0,1,.11.15V72.1A.18.18,0,0,1,91.35,72.27Z" style="fill:#f0f0f0"></path><path d="M67.05,74.53h0l-8.34-1.34a.17.17,0,0,1-.14-.17V70.8a.17.17,0,0,1,.17-.17.18.18,0,0,1,.17.17v2.08l8.19,1.32a.16.16,0,0,1,.14.19A.16.16,0,0,1,67.05,74.53Z" style="fill:#f0f0f0"></path></g><g id="freepik--picture--inject-2"><polygon points="134 50.79 136.9 52.44 136.9 126.43 134 124.77 134 50.79" style="fill:#e0e0e0"></polygon><polygon points="139.42 115.42 142.27 117.12 200.72 83.38 197.87 81.68 139.42 115.42" style="fill:#fafafa"></polygon><path d="M206.1,12.49,136.9,52.44v74l69.2-39.95Zm-5.38,70.89-58.45,33.74V55.55L200.72,21.8Z" style="fill:#f0f0f0"></path><polygon points="200.72 83.38 197.87 81.68 197.87 23.47 200.72 21.8 200.72 83.38" style="fill:#e0e0e0"></polygon><polygon points="206.1 12.49 203.2 10.84 134 50.79 136.9 52.44 206.1 12.49" style="fill:#fafafa"></polygon><path d="M174.47,62.61h0s0,0-.08,0,.06,0,0,0,.06,0,.08,0S174.47,62.59,174.47,62.61Z" style="fill:#f0f0f0"></path><polygon points="197.87 81.68 142.27 113.77 142.27 55.55 197.87 23.47 197.87 81.68" style="fill:#fff"></polygon><path d="M189.89,69.35c2.54-1.46,4.59-.28,4.59,2.65a10.12,10.12,0,0,1-4.59,8c-2.53,1.46-4.58.28-4.58-2.65A10.14,10.14,0,0,1,189.89,69.35Z" style="fill:#e0e0e0"></path><path d="M152.81,57.4l34.55-20c1-.56,1.74-.11,1.74,1v.1a3.83,3.83,0,0,1-1.74,3l-34.55,20c-1,.55-1.74.1-1.74-1v-.11A3.87,3.87,0,0,1,152.81,57.4Z" style="fill:#e0e0e0"></path><path d="M147.34,73.12l45.48-26.25c1-.56,1.74-.31,1.74.56A3.5,3.5,0,0,1,192.82,50L147.31,76.28c-1,.56-1.74.3-1.73-.57A3.57,3.57,0,0,1,147.34,73.12Z" style="fill:#f0f0f0"></path><path d="M147.34,79.4l45.48-26.26c1-.56,1.74-.3,1.74.56a3.5,3.5,0,0,1-1.74,2.58L147.31,82.56c-1,.55-1.74.29-1.73-.58A3.54,3.54,0,0,1,147.34,79.4Z" style="fill:#f0f0f0"></path><path d="M147.34,85.67l45.48-26.26c1-.55,1.74-.3,1.74.57a3.48,3.48,0,0,1-1.74,2.57L147.31,88.83c-1,.55-1.74.3-1.73-.58A3.54,3.54,0,0,1,147.34,85.67Z" style="fill:#f0f0f0"></path><path d="M181.73,82.78a2.65,2.65,0,0,1-1.14.3c-1,0-.88-1-.85-1.68,0-.31-.41-.78-.64-.37-.59,1.06-1.33,2-2,3.08-.39.64-1.12,2.07-2.06,1.86-.39-.08-.52-.5-.52-1a5.05,5.05,0,0,0,.61-2.83c0-.3-.53-.66-.69-.26a9.26,9.26,0,0,0-.59,2.61,16.4,16.4,0,0,1-1.47,2.19c-.31.42-.59.88-.94,1.28-.08.09-.24.33-.38.36-.32,0-.29-.14-.33-.35a2.49,2.49,0,0,1,.15-.93h0a.19.19,0,0,1,0-.07h0c0-.31-.39-.77-.55-.38A14,14,0,0,1,167.7,91l-.18.14c0-.18-.05-.36-.07-.54a4.74,4.74,0,0,0-.21-1.24c-.08-.2-.42-.5-.61-.24-1,1.39-1.73,3-3,4.19a6.89,6.89,0,0,1-.64.44c-.21-.12.11-1.22.16-1.39.12-.5.28-1,.44-1.46a5.48,5.48,0,0,0,.37-1.21c.06-.37-.59-.94-.7-.44-.05.2-.23.7-.42,1.32a34,34,0,0,1-2.55,4.32,10,10,0,0,1-3.55,3.42c-.41.22-1.17.54-1.61.22s-.4-.88-.41-1.29a10.87,10.87,0,0,1,.42-3.15,18.89,18.89,0,0,0,3.94-2.78A13.23,13.23,0,0,0,162,88c.41-.72.65-1.93-.33-2.34-.68-.29-1.55.19-2.12.51a9.62,9.62,0,0,0-2.17,1.68,12.43,12.43,0,0,0-2.71,5c-.09.28-.2.66-.31,1.09a8.44,8.44,0,0,1-5,.83c-.09,0-.13.2,0,.22a8.24,8.24,0,0,0,4.9-.47c-.44,1.9-.68,4.42,1.09,4.91s3.91-1.73,4.86-3a21,21,0,0,0,1.9-3.07,1.88,1.88,0,0,1,.16-.23c0,.88.18,1.52,1,1.38s1.67-1.39,2.15-2.06.87-1.3,1.3-2c.07.79.22,1.7,1,1.54s1.39-1.46,1.75-2,.6-.93.86-1.42a1,1,0,0,0,.17.25c.63.68,1.38,0,1.79-.58.57-.76,1.23-1.56,1.77-2.41a1.47,1.47,0,0,0,.75.84c1,.46,1.89-.34,2.45-1.06a21,21,0,0,0,1.83-2.94,1.36,1.36,0,0,0,.66.93,2.25,2.25,0,0,0,2.29-.15C182.34,83.27,182.05,82.62,181.73,82.78Zm-21.28,3.8c.45-.23,1.39-.62,1.44.14a2.62,2.62,0,0,1-.61,1.33,16.85,16.85,0,0,1-2.65,2.82,22.09,22.09,0,0,1-3.31,2.52A10.63,10.63,0,0,1,160.45,86.58Z" style="fill:#e0e0e0"></path></g></g><g id="freepik--Character--inject-2"><g id="freepik--character--inject-2"><g id="freepik--Chair--inject-2"><path d="M223.53,331.93c.25-3.26-2.33-7-8.07-11.38-10.59-8.14-49.1-34.92-64.06-44.83a.15.15,0,0,0-.12-.14c-11.45-8.27-14-64.91-20.25-92-.06-.25-.49-2.33-1.36-5l-.13-.36c-.12-.37-.25-.74-.39-1.12-.06-.18-.12-.38-.19-.55h0a25.19,25.19,0,0,0-4.93-8.48,12.12,12.12,0,0,0-2.57-2.14c-1.29-.87-4.45-2.45-5.13-2.92-7.79-5.55-27.55,8.53-41.5,14.78-8.68,3.9-16.21,8.75-21.33,18.5h0a58.89,58.89,0,0,0-5.59,17.85c-2.29,13.84-1.83,60.3-.61,80.7h0c1.41,34.05,6.43,34.51,13.29,40.74,11.79,10.71,46.42,32.62,58,38.27,21,10.24,39.69-1.48,53.39-6.94s39.66-18.17,45.53-21.76c3.48-2.14,5.39-4.43,5.56-7C223.1,337.14,223.45,333,223.53,331.93Z" style="fill:#263238"></path><path d="M172.44,360.62c13.7-5.45,39.66-18.18,45.53-21.77,7.93-4.84,7.69-10.47-2.5-18.3-14.16-10.88-72.28-50.27-72.28-50.27s-67.55,32.55-83.56,46.77c-2.42,2.15-2.52,6.7-1.68,7.76,8.78,11,47.84,36.27,61.1,42.75C140,377.8,158.74,366.08,172.44,360.62Z" style="fill:#455a64"></path><path d="M121.45,165.92l-.22-.13a11.92,11.92,0,0,0-5.79-1.81c-7.08-.57-18.26,4.38-35,15.2a91.32,91.32,0,0,0-14.35,11l-.26.25a33.88,33.88,0,0,0-3.67,4.11c-.19.24-.37.48-.55.73s-.21.28-.3.42c-.23.33-.46.66-.68,1-.44.68-.87,1.39-1.29,2.12l-.13.23-.48.9,0,0-5.2-3.6c5.12-9.75,13-14.77,21.09-19.74,14-8.56,29.51-19.68,39.41-14.88C114.74,162,120.15,165.05,121.45,165.92Z" style="fill:#455a64"></path><path d="M131,183.57c-.91-3.57-4-19-15.59-19.59-7.08-.57-18.26,4.39-35,15.2-7.79,5-16.77,11.48-21.23,19.82-6.56,10.36-7.59,39.1-7.2,66.75s2.18,54.19,5.92,59.08c6.57-18.44,84.26-54.73,93.35-49.25C139.83,267.31,137.26,210.67,131,183.57Z" style="fill:#37474f"></path></g><g id="freepik--Bottom--inject-2"><path d="M82.84,273.7c-6.83,15.62-8.16,31.61-6.45,40.56s3.33,21.31,25.62,35.39C127.46,365.72,146,375,146,375l84.53-54.16-57.67-35.07Z" style="fill:#90CAF9"></path><path d="M82.84,273.7c-6.83,15.62-8.16,31.61-6.45,40.56s3.33,21.31,25.62,35.39C127.46,365.72,146,375,146,375l84.53-54.16-57.67-35.07Z" style="opacity:0.15"></path><path d="M104.23,332.28c-.7-.76-1.37-1.52-2-2.28,6.47-1.71,10.28-9.75,9.48-18.83-.47-5.2-1-11.11-.29-16.69l-1.13-.15c-.72,5.71-.19,11.68.28,16.94.81,9.16-3,16.56-9.18,17.76C89,314.18,90.91,299.76,96.94,280.62l-1.09-.34c-6.61,21-7.62,36.38,7.54,52.77,10,10.78,37.15,25.49,53.05,35.29l1.07-.68C141.64,357.9,114.22,343.07,104.23,332.28Z" style="opacity:0.35000000000000003"></path><path d="M173.59,301.53C170.13,312.66,162.93,318,162.93,318c13.46,9.8,24.5,18.9,32.2,25.58l9.42-6-33.07-22.2C175.34,307.44,173.59,301.53,173.59,301.53Z" style="opacity:0.35000000000000003"></path></g><g id="freepik--Desk--inject-2"><polygon points="211.55 467.42 63.08 381.7 310.36 238.97 458.83 324.7 211.55 467.42" style="fill:#90CAF9"></polygon><polygon points="211.55 467.42 63.08 381.7 310.36 238.97 458.83 324.7 211.55 467.42" style="fill:#fff;opacity:0.8"></polygon><polygon points="63.08 381.7 63.08 392.41 211.55 478.13 211.55 467.42 63.08 381.7" style="fill:#90CAF9"></polygon><polygon points="63.08 381.7 63.08 392.41 211.55 478.13 211.55 467.42 63.08 381.7" style="fill:#fff;opacity:0.5"></polygon><polygon points="211.55 478.13 458.83 335.41 458.83 324.7 211.55 467.42 211.55 478.13" style="fill:#90CAF9"></polygon><polygon points="211.55 467.42 458.83 324.7 458.83 335.41 211.55 478.13 211.55 467.42" style="fill:#fff;opacity:0.65"></polygon></g><g id="freepik--Laptop--inject-2"><path d="M360.48,317.56,296,280.3a3.7,3.7,0,0,0-3.71,0L180.31,344.94a.83.83,0,0,0,0,1.43L245.44,384Z" style="fill:#90CAF9;opacity:0.2"></path><g id="freepik--laptop--inject-2"><path d="M355.66,309.71v1.45a6,6,0,0,1-3,5.16l-104.28,60.2a5.82,5.82,0,0,1-3,.79,5.94,5.94,0,0,1-3-.8l-56.84-32.7a6,6,0,0,1-3-5.17v-2h0v0a.75.75,0,0,0,.38.65l62.42,36.05Z" style="fill:#37474f"></path><path d="M355.67,309.7,293.84,274a3.57,3.57,0,0,0-3.55,0L183,336a.79.79,0,0,0,0,1.36l62.41,36Z" style="fill:#455a64"></path><path d="M245.44,373.35v4a5.93,5.93,0,0,0,3-.79l104.28-60.2a6,6,0,0,0,3-5.17V309.7Z" style="fill:#263238"></path><polygon points="244.87 368.1 211.52 348.87 309.03 292.57 342.55 311.7 244.87 368.1" style="fill:#37474f"></polygon><polygon points="342.55 311.7 341.28 312.44 309.03 294.04 212.8 349.6 211.53 348.87 309.03 292.57 342.55 311.7" style="fill:#263238"></polygon><polygon points="228.48 314.6 229.09 314.95 245.44 324.39 274.51 307.61 275.11 307.26 258.15 297.47 228.48 314.6" style="fill:#263238"></polygon><polygon points="229.09 314.95 245.44 324.39 274.51 307.61 258.15 298.17 229.09 314.95" style="fill:#37474f"></polygon></g><path id="freepik--Hand--inject-2" d="M266.55,281.69a63.42,63.42,0,0,0-10.79-12.17c-4.87-4-6.87-5.21-15.66-9.41l-13,17.56,3.92,1.18c1.64.58,2.53.74,3.17,2.27a41.87,41.87,0,0,1,.73,5.23,41,41,0,0,0,1.9,8.6c1.38,4.14,2.27,3.85,4.76,7.15,2.3,3,3.23,5.07,4.51,4.91s2.87-2.67,2.22-5.48-3-6.85-3.34-8c-.28-1-.78-2.89,2.25-1.94,3.18,1,8.66,7.9,11.41,10.74s4.45,7.18,7,9.09,6.43,1.81,5.35-2.34c.41-2.4,1.89-6.55,2.25-10.4S269.39,285.81,266.55,281.69Z" style="fill:#ffa8a7"></path><g id="freepik--Screen--inject-2"><path d="M247.12,374.23a7.07,7.07,0,0,0,6.08-.47L357,313.82a7.07,7.07,0,0,0,3.43-4.94l11.37-67.77a7.65,7.65,0,0,0,.09-1.16,7,7,0,0,0-2.09-5L261.94,297.22a5.25,5.25,0,0,0-2.54,3.66Z" style="fill:#37474f"></path><path d="M245.44,373.35l.71.41c.31.17.64.33,1,.47l12.28-73.35a5.25,5.25,0,0,1,2.54-3.66l107.88-62.29a6.61,6.61,0,0,0-1.44-1.1l-108.1,62.41a5.25,5.25,0,0,0-2.54,3.66Z" style="fill:#455a64"></path><path d="M260.41,298.61l-1.68-1a5.36,5.36,0,0,0-1,2.26l-12.3,73.45.71.41c.31.17.64.33,1,.47l12.28-73.35A5.19,5.19,0,0,1,260.41,298.61Z" style="fill:#263238"></path><path d="M307.73,310.42c.58-3.46,4.16-8.07,8-10.28s6.47-1.2,5.89,2.27-4.16,8.07-8,10.28S307.15,313.89,307.73,310.42Z" style="fill:#90CAF9"></path></g></g><g id="freepik--Body--inject-2"><path d="M170,170.21c6.87,1.62,17,4.81,21.43,18.67,5.28,16.57,10.8,54.07,10.8,54.07l37.85,17.16-13,17.56s-27.88-6.92-41.33-10.84c-14.51-4.23-14-8.59-18.67-32.53-3-15.51-6.21-34.56-6.21-34.56C162.36,186.71,170,170.21,170,170.21Z" style="fill:#ffa8a7"></path><path d="M171,169.94c11,2.55,15,6.81,18.61,12.11s7.24,23.45,10,37.52,4.06,22.73,4.06,22.73L224,252.8s-5-.93-9.66,8.26c-3,5.83-1.47,13-1.47,13s-26.54-5.44-31.61-7.21-8.56-3.51-11.21-12-11-57.1-11-57.1Z" style="fill:#ebebeb"></path><g id="freepik--Chest--inject-2"><path d="M180.73,183.77c-5-8.58-9.07-12.52-10.71-13.56-5-1.5-21.75-2.8-30.18-.88-14.88,2.09-25.65,4.52-36.4,8.46-3.6,1.32-5.64,5.2-6.58,7.51-1.94,4.92-2.34,17.09-2.45,23.66-.24,15.81.34,27.78-2,38.72-1.42,6.68-12,22.08-16,47.67,36.56,33.76,93.86,3.66,96.46-9.54,0,0-1.59-9.08-3.66-19.79,0-3.52,5.08-16.81,4.93-16.6C199.29,236.26,195,206.86,180.73,183.77Z" style="fill:#263238"></path><path d="M162.93,246.78c-5.63,6.12-27.6,9.64-40-5.08C124.87,254.12,150.82,263.52,162.93,246.78Z"></path></g><g id="freepik--Head--inject-2"><path d="M192.09,120.56c-2.9,4.83-1.29,8.76-3.94,13.72-1,1.81-49.78,13.77-58.18,17.21a113.16,113.16,0,0,0-6.43-16.27c-4.57-9.18-6.61-18.45-5.31-25.38,1.49-8,6.65-10.71,9.2-10.71,0-6.53,7.18-15.5,22-18.75C178.94,73.89,206,97.41,192.09,120.56Z" style="fill:#263238"></path><path d="M185.63,102.65a7.11,7.11,0,0,1,4.21,4.14c1.68,4.08,4,13.73.32,32.07-3.2,15.92-8.71,23.12-14.43,25.41-3.44,1.38-11.42.8-16.27-.49a16.56,16.56,0,0,0-.66,2.06c-.71,2.52,1.19,2.86,1.19,2.86s13.12,17.9-4.67,20.6a31,31,0,0,1-22-5.28A127.66,127.66,0,0,1,119,173.13c5.89-1.54,6.5-3,8-8.18,2.61-9.23,4.95-24,4.95-24s-4.63,4.11-9.12-1.47c-5.22-6.5-5.75-16,0-19.35,7-4.07,11.54.81,13.13,5.75,1.46,4.51,6.39,5.24,8.21.09,2.59-7.36,2.15-17,10.42-22.28,5.21-3.35,13.18-3.32,20.64,5.22C179,102.88,182.53,101.61,185.63,102.65Z" style="fill:#ffa8a7"></path><path d="M160.55,143.9l9.32,3.6a4.91,4.91,0,0,1-6.38,3A5.23,5.23,0,0,1,160.55,143.9Z" style="fill:#b16668"></path><path d="M160.35,146.66a6.67,6.67,0,0,1,1.16.14,7,7,0,0,1,4.86,3.92,4.76,4.76,0,0,1-2.88-.18A5.1,5.1,0,0,1,160.35,146.66Z" style="fill:#f28f8f"></path><path d="M163.17,115.09,156,117.44a3.63,3.63,0,0,1,2.28-4.76A4,4,0,0,1,163.17,115.09Z" style="fill:#263238"></path><path d="M181.36,119.23l6.69,3.54a3.63,3.63,0,0,0-1.44-5.08A4,4,0,0,0,181.36,119.23Z" style="fill:#263238"></path><path d="M179.74,127.34a3,3,0,0,0,2.79,3,2.79,2.79,0,0,0,3-2.67,3,3,0,0,0-2.78-3A2.8,2.8,0,0,0,179.74,127.34Z" style="fill:#263238"></path><path d="M158,126.11a3,3,0,0,0,2.29,3.43,2.8,2.8,0,0,0,3.37-2.19,3,3,0,0,0-2.3-3.43A2.78,2.78,0,0,0,158,126.11Z" style="fill:#263238"></path><polygon points="171.24 123.82 170.05 140.9 180.23 139 171.24 123.82" style="fill:#f28f8f"></polygon><path d="M135.76,143.9s-1.66,8.95,3.38,14.26c6,6.29,15.64,8.64,19.61,9.38a2.92,2.92,0,0,1,.05-1.7,16.56,16.56,0,0,1,.66-2.06h0c-4.25-1.17-12.81-3.63-17.65-7.84A16.81,16.81,0,0,1,135.76,143.9Z" style="fill:#f28f8f"></path><path d="M129.69,136.76a2.06,2.06,0,1,1-2.06-2.06A2.06,2.06,0,0,1,129.69,136.76Z" style="fill:#90CAF9"></path></g><g id="freepik--Coat--inject-2"><path d="M126.9,165s.46,7.58,2.52,13.1c3.87,10.31,9.43,23.07,18.06,34.61S168.79,239,168.79,239s9.23-25.55-.9-53A144.38,144.38,0,0,0,161,170.63a9.31,9.31,0,0,0-1.89-2.35c-.39-.38-.69-1.1-.32-2.44l.4-1.36a24.31,24.31,0,0,0,4.16,2.58,52.84,52.84,0,0,0,6.51,2.54c.83.28,1.08.34,1.08.34a69,69,0,0,1,11.68,14.14c6.77,11.66,11.05,25.38,10.69,34.77-.62,16.4-6.77,23.05-14,30.48-4.58,4.69-5.87,30-1.26,35.91s14.2,12.23,14.2,12.23-13.53,2.3-38.25,14.45-38.75,23-42.7,29.61a26.18,26.18,0,0,0-3.84,12.61s-18.6-9.48-25.64-18.76-9.68-23.62-8.12-36.8,30-121.95,30-121.95,12.12-6.53,17.37-10.42c2.63-1.94,5.69-3.85,6.49-3.68Z" style="fill:#fafafa"></path><path d="M153.3,228.81l-15.34-11c-2.55-1.83-5.06-3.7-7.55-5.57a77,77,0,0,1-7.08-5.81c-.25-.25-.48-.5-.67-.73s-.19-.23-.23-.3l0,0v-.1c0-.12,0-.21,0-.35a4.62,4.62,0,0,1,.11-.84,16.58,16.58,0,0,1,1.5-3.89,57,57,0,0,1,4.91-7.61l.07-.08a1.88,1.88,0,0,0-2-2.92c-1.29.38-2.67.73-4,1a18,18,0,0,1-3.83.42l-.46-.05v-.29l0-1.06c0-1.43,0-2.84,0-4.26,0-2.84.2-5.69.49-8.52a68.69,68.69,0,0,1,1.38-8.48,43.68,43.68,0,0,0-2.88,8.21,67.85,67.85,0,0,0-1.56,8.61c-.19,1.45-.3,2.9-.4,4.36l-.06,1.09,0,.54a2.1,2.1,0,0,0,0,.32,2.83,2.83,0,0,0,.09.68,2.55,2.55,0,0,0,.75,1.2,3.46,3.46,0,0,0,.92.58,5.7,5.7,0,0,0,1.48.37,17.37,17.37,0,0,0,4.31-.15c-.91,1.35-1.76,2.75-2.56,4.23a20.35,20.35,0,0,0-1.92,4.88,9.58,9.58,0,0,0-.2,1.49,7.66,7.66,0,0,0,0,.83l.06.45,0,.22a2.09,2.09,0,0,0,.11.39,2.83,2.83,0,0,0,.26.59c.1.18.18.29.26.41a5.76,5.76,0,0,0,.49.63,12.83,12.83,0,0,0,.93,1,77.62,77.62,0,0,0,7.58,6.08c2.57,1.86,5.21,3.62,7.84,5.37s5.29,3.44,8,5.1,5.37,3.31,8.09,4.91c5.43,3.21,10.93,6.31,16.54,9.2C163.53,236.15,158.42,232.47,153.3,228.81Zm-34.66-37.43s0,.05,0,.06S118.64,191.42,118.64,191.38Z" style="fill:#e0e0e0"></path><path d="M167.51,244.88c-.23,4.65-.73,9.28-1.25,13.9s-1.15,9.23-1.5,13.84c-.21,2.31-.35,4.62-.36,6.92a31.08,31.08,0,0,0,.63,6.83,35.24,35.24,0,0,0,2.16,6.56,18.5,18.5,0,0,0,3.72,5.8,12,12,0,0,1-2.35-2.58,24.25,24.25,0,0,1-1.81-3,35.7,35.7,0,0,1-2.47-6.58,28.19,28.19,0,0,1-.79-7c0-2.35.09-4.68.28-7,.43-4.65,1-9.26,1.73-13.86S166.87,249.49,167.51,244.88Z" style="fill:#e0e0e0"></path><path d="M184.58,193.06a10,10,0,0,0-1.17-2.25,25.83,25.83,0,0,0-2.79-3.4c-1-1-2-2-3.06-2.88s-2.22-1.88-3.36-2.77a6.14,6.14,0,0,0,.68-.28,2.38,2.38,0,0,0,.48-.27,2.59,2.59,0,0,0,.5-.42,2.35,2.35,0,0,0,.68-1.42,2.23,2.23,0,0,0-.06-.84,1.59,1.59,0,0,0-.12-.34l-.13-.27a7,7,0,0,0-.51-.75c-.34-.42-.69-.8-1-1.16-.7-.71-1.42-1.36-2.14-2q-2.21-1.87-4.5-3.61c-1.53-1.15-3.08-2.27-4.68-3.33l3.92,4.18c1.3,1.39,2.6,2.78,3.83,4.2.62.7,1.24,1.41,1.79,2.13a11,11,0,0,1,.75,1.07,1.93,1.93,0,0,1,.13.24l-.08,0a4,4,0,0,1-1,.2,13.27,13.27,0,0,1-2.52,0,1.58,1.58,0,0,0-1.17,2.78l.11.1c2,1.69,4.07,3.43,6,5.27,1,.91,1.86,1.86,2.74,2.8a21.41,21.41,0,0,1,2.31,2.9,6.72,6.72,0,0,1,.7,1.34,6.56,6.56,0,0,1,.15,1.44,35.48,35.48,0,0,1-.19,3.79c-.26,2.6-.73,5.23-1.19,7.85s-1,5.25-1.61,7.87-1.22,5.22-1.89,7.82a87,87,0,0,1-5.18,15.28,36.31,36.31,0,0,0,4.36-7c1.24-2.44,2.29-5,3.28-7.53s1.83-5.16,2.64-7.77,1.46-5.28,2.08-8A81,81,0,0,0,184.7,200a31.87,31.87,0,0,0,.25-4.32A9.39,9.39,0,0,0,184.58,193.06Zm-10.68-14v.05s0,0,0,0a.62.62,0,0,0,0-.1Z" style="fill:#e0e0e0"></path><path d="M114.57,243s18.94,3.11,31.93-.6v-6.76c-13,3.72-31.93.61-31.93.61Z" style="fill:#e0e0e0"></path></g><g id="freepik--Arm--inject-2"><path d="M67,258.47c4.11-23.59,8.1-43.05,13.59-60,3.23-10,11-15.58,22.84-20.68,12.75,9.08,7.37,37.48,5.57,44.13L99,262.29s10.9,8.79,22.52,17.31c9.82,7.2,16.43,11.52,28,12.89s16.29,1,22.34,3.61c3.22,1.4,10.56,4.64,13.07,5.9s7,5.8,11.15,8.85c3.91,3.11-1,4.84-4,4-4-1.16-6.41-2.89-9.12-4.42-2.56-1.44-5.14-2-7.82-3a46.59,46.59,0,0,1,1.66,9.12c0,1.67.38,3.69-1.07,4.91a12.55,12.55,0,0,1-3.49,1.44,2.52,2.52,0,0,1-.69,1.61,4.17,4.17,0,0,1-3,.77,13.29,13.29,0,0,1-1.7-.25,3.07,3.07,0,0,1-1.87,2.4,13.34,13.34,0,0,1-7.11.25c-.35-.14-3-1.56-3.78-2-1.12-.58-2.12-.91-2.61-1.64s1-2.87,2.41-3.09a13.85,13.85,0,0,1,4.52.29,16.16,16.16,0,0,1-1.33-3.9c-1.23-2-10.13,0-18-1.32-6-1-10.29-6.7-13-7.91C109,300.39,95.84,295,78.47,284.52,62.61,275,64.9,270.71,67,258.47Z" style="fill:#ffa8a7"></path><path d="M176.72,307.94c-.92-2.25-2.33-4.94-4.05-5.56a20.26,20.26,0,0,1,2.51,5C175.7,307.6,176.21,307.77,176.72,307.94Z" style="fill:#f28f8f"></path><path d="M172.28,322.88a18.78,18.78,0,0,0,.15-4.91,44.63,44.63,0,0,0-.64-4.88,21.46,21.46,0,0,0-1.33-4.77,9,9,0,0,0-3-3.93,6.71,6.71,0,0,1,1.34,2,12.94,12.94,0,0,1,.93,2.21,33.92,33.92,0,0,1,1.09,4.68c.31,1.59.57,3.18.84,4.78A41.06,41.06,0,0,1,172.28,322.88Z" style="fill:#f28f8f"></path><path d="M166.93,325a22.94,22.94,0,0,0,0-4.83,40.53,40.53,0,0,0-.72-4.78,34.75,34.75,0,0,0-1.32-4.66c-.6-1.47-1.16-3.11-2.47-4.13a6.12,6.12,0,0,1,1.08,2.09c.27.74.5,1.5.7,2.26.4,1.54.76,3.08,1.08,4.64C165.94,318.71,166.55,321.82,166.93,325Z" style="fill:#f28f8f"></path><path d="M154,321a8.17,8.17,0,0,1,2,.28c.64.15,1.1.48,1.91.73l-.33-.52a2,2,0,0,0,.13,1,2.43,2.43,0,0,0,.46.74,2.84,2.84,0,0,0,1.36.89,6.63,6.63,0,0,1-.82-1.24,3.27,3.27,0,0,1-.2-.63,2.2,2.2,0,0,1,0-.55l.05-.37-.38-.16a6.14,6.14,0,0,0-1.88-.39A4,4,0,0,0,154,321Z" style="fill:#f28f8f"></path><path d="M103.69,176.63c-16,7.55-18.91,10.17-23.7,18.76s-7.2,19.49-10.47,38.26c-3.06,17.58-7.21,34.48-4.83,39.88s4.65,6.4,13,11.71,28.84,14.07,28.84,14.07.3-7.76,4.53-13c6.41-7.88,10.43-6.75,10.43-6.75l-20.32-17.81s8.67-36.64,10.82-45.29S117,184,103.69,176.63Z" style="fill:#ebebeb"></path></g></g></g><g id="freepik--Books--inject-2"><path d="M181,440.08,233.23,410c2.06-1.19,2.06-3.12,0-4.31l-75.31-43.56a8.24,8.24,0,0,0-7.46,0l-52.19,30.1c-2.06,1.19-2.06,3.12,0,4.31l75.3,43.56A8.26,8.26,0,0,0,181,440.08Z" style="fill:#90CAF9;opacity:0.2"></path><g id="freepik--Book--inject-2"><polygon points="222.47 407.88 176.18 434.02 105.1 393.23 151.38 367.09 222.47 407.88" style="fill:#90CAF9"></polygon><polygon points="222.47 407.88 176.18 434.02 105.1 393.23 151.38 367.09 222.47 407.88" style="opacity:0.6000000000000001"></polygon><path d="M175.68,432.11l44.73-25.41c-1.11-3.16-1-4.11.23-8.31l-44.46,25.15S175.37,423.48,175.68,432.11Z" style="fill:#f5f5f5"></path><path d="M178.35,420.1a9,9,0,0,0-4.08,7v5.5c0,2.59,1.83,3.64,4.08,2.34l44.11-25.05v-2l-43.55,24.59c-1.36.77-2.45.14-2.45-1.41l0-4.9a5.4,5.4,0,0,1,2.45-4.22l43.5-24.59V395Z" style="fill:#90CAF9"></path><path d="M178.35,420.1a9,9,0,0,0-4.08,7v5.5c0,2.59,1.83,3.64,4.08,2.34l44.11-25.05v-2l-43.55,24.59c-1.36.77-2.45.14-2.45-1.41l0-4.9a5.4,5.4,0,0,1,2.45-4.22l43.5-24.59V395Z" style="opacity:0.5"></path><path d="M222.47,395l-71.09-40.79-44.11,25.06a9,9,0,0,0-4.08,7v5.5a2.86,2.86,0,0,0,1.19,2.63l71.09,40.79a2.84,2.84,0,0,1-1.2-2.63v-5.5a9,9,0,0,1,4.09-7Z" style="fill:#90CAF9"></path><path d="M222.47,395l-71.09-40.79-44.11,25.06a9,9,0,0,0-4.08,7v5.5a2.86,2.86,0,0,0,1.19,2.63l71.09,40.79a2.84,2.84,0,0,1-1.2-2.63v-5.5a9,9,0,0,1,4.09-7Z" style="opacity:0.35000000000000003"></path><path d="M175.46,423.13a8.23,8.23,0,0,0-1.2,4v5.5a2.84,2.84,0,0,0,1.2,2.63l-71.09-40.79a2.86,2.86,0,0,1-1.19-2.63v-5.5a8.24,8.24,0,0,1,1.19-4Z" style="fill:#90CAF9"></path><path d="M175.46,423.13a8.23,8.23,0,0,0-1.2,4v5.5a2.84,2.84,0,0,0,1.2,2.63l-71.09-40.79a2.86,2.86,0,0,1-1.19-2.63v-5.5a8.24,8.24,0,0,1,1.19-4Z" style="opacity:0.45"></path><path d="M114,387.79c-1.33,5.76-1.31,8,0,12.22l3.39,2c-1.31-4.22-1.33-6.47,0-12.22Z" style="fill:#90CAF9"></path><path d="M160.61,414.58c-1.33,5.75-1.31,7.93,0,12.15l3.38,1.95c-1.3-4.22-1.32-6.39,0-12.14Z" style="fill:#90CAF9"></path></g><g id="freepik--book--inject-2"><polygon points="231.81 394.36 185.52 420.49 114.44 379.7 160.72 353.56 231.81 394.36" style="fill:#90CAF9"></polygon><polygon points="231.81 394.36 185.52 420.49 114.44 379.7 160.72 353.56 231.81 394.36" style="opacity:0.4"></polygon><path d="M185,418.58l44.72-25.41c-1.11-3.15-1-4.56.23-8.76l-44.45,25.15S184.71,410,185,418.58Z" style="fill:#f5f5f5"></path><path d="M187.69,406.12a9,9,0,0,0-4.09,7v6c0,2.59,1.83,3.64,4.09,2.35l44.11-25.06v-2l-43.56,24.58c-1.35.78-2.45.15-2.45-1.41l0-5.34A5.38,5.38,0,0,1,188.3,408l43.5-24.59v-2.31Z" style="fill:#90CAF9"></path><path d="M187.69,406.12a9,9,0,0,0-4.09,7v6c0,2.59,1.83,3.64,4.09,2.35l44.11-25.06v-2l-43.56,24.58c-1.35.78-2.45.15-2.45-1.41l0-5.34A5.38,5.38,0,0,1,188.3,408l43.5-24.59v-2.31Z" style="opacity:0.25"></path><path d="M231.8,381.06l-71.08-40.79-44.11,25.06a9,9,0,0,0-4.09,7v5.95a2.83,2.83,0,0,0,1.2,2.62l71.08,40.79a2.85,2.85,0,0,1-1.2-2.62v-6a9,9,0,0,1,4.08-7Z" style="fill:#90CAF9"></path><path d="M184.8,409.15a8.26,8.26,0,0,0-1.2,4v6a2.85,2.85,0,0,0,1.2,2.62l-71.08-40.79a2.83,2.83,0,0,1-1.2-2.62v-5.95a8.3,8.3,0,0,1,1.2-4Z" style="fill:#90CAF9"></path><path d="M184.8,409.15a8.26,8.26,0,0,0-1.2,4v6a2.85,2.85,0,0,0,1.2,2.62l-71.08-40.79a2.83,2.83,0,0,1-1.2-2.62v-5.95a8.3,8.3,0,0,1,1.2-4Z" style="opacity:0.15"></path><path d="M123.32,373.81c-1.32,5.76-1.3,8.46,0,12.68l3.39,1.95c-1.31-4.22-1.33-6.92,0-12.67Z" style="fill:#90CAF9"></path><path d="M169.94,400.64c-1.32,5.75-1.3,8.36,0,12.58l3.39,1.95c-1.31-4.22-1.33-6.84,0-12.6Z" style="fill:#90CAF9"></path><g style="opacity:0.4"><path d="M123.32,373.81c-1.32,5.76-1.3,8.46,0,12.68l3.39,1.95c-1.31-4.22-1.33-6.92,0-12.67Z" style="fill:#fff"></path><path d="M169.94,400.64c-1.32,5.75-1.3,8.36,0,12.58l3.39,1.95c-1.31-4.22-1.33-6.84,0-12.6Z" style="fill:#fff"></path></g></g></g><g id="freepik--Pen--inject-2"><path id="freepik--shadow--inject-2" d="M327.94,366.62l-55.4,32-7.68,1.56a.24.24,0,0,1-.25-.35l2.4-4.4,55.41-32C323.93,362.55,329.12,365.93,327.94,366.62Z" style="opacity:0.2"></path><g id="freepik--pen--inject-2"><path d="M322.61,360.24a4.55,4.55,0,0,0,2.06,3.57,1.65,1.65,0,0,0,1.18.25.72.72,0,0,1-.22.17l.49-.28h0l.07-.06.1-.07.05-.06h0l.05-.06a1.31,1.31,0,0,0,.17-.31l0-.1s0,0,0,0,0-.06,0-.09a2,2,0,0,0,.06-.51,4.55,4.55,0,0,0-2.06-3.56,1.77,1.77,0,0,0-.92-.28h-.14l-.12,0-.07,0,0,0-.08,0h0l-.08,0-.43.25a.58.58,0,0,1,.22-.08A1.62,1.62,0,0,0,322.61,360.24ZM326,364l0,0Z" style="fill:#90CAF9"></path><path d="M269.38,390l2.91,5,.49-.28,52.85-30.53a.72.72,0,0,0,.22-.17,1.63,1.63,0,0,0,.38-1.16,4.53,4.53,0,0,0-2.06-3.56,1.86,1.86,0,0,0-.92-.28,1.15,1.15,0,0,0-.26,0,.58.58,0,0,0-.22.08h0Z" style="fill:#f0f0f0"></path><path d="M270.84,390.14c-1.14-.65-2.06-.12-2.06,1.19a4.56,4.56,0,0,0,2.06,3.57c1.13.65,2.06.12,2.06-1.19A4.57,4.57,0,0,0,270.84,390.14Z" style="fill:#90CAF9"></path><path d="M266.41,393.2l0-.06,2.63-2.88h0l0,0,0-.06,0,0h0a1.33,1.33,0,0,1,1.65,0,4.57,4.57,0,0,1,2.06,3.57,1.34,1.34,0,0,1-.8,1.41h0l-.15,0h0l-3.81.83a.9.9,0,0,1-.66-.14,2.62,2.62,0,0,1-1.18-2A1,1,0,0,1,266.41,393.2Z" style="fill:#e0e0e0"></path><path d="M300.05,374.46h0l.07,0a.58.58,0,0,1,.48.07,1.62,1.62,0,0,1,.73,1.27.52.52,0,0,1-.17.44h0l-.09.06L269.81,394.3l-2.06-1.19Z" style="fill:#455a64"></path><path d="M272.71,392.62l-2.9,1.68-2.06-1.19,3.93-2.27A4.83,4.83,0,0,1,272.71,392.62Z" style="fill:#37474f"></path><path d="M265.38,394.57h0l2.38-2.62.06-.07a1,1,0,0,1,1.18,0,3.21,3.21,0,0,1,1.45,2.52,1,1,0,0,1-.55,1h0l-.09,0-3.49.76h0a.54.54,0,0,1-.37-.08,1.46,1.46,0,0,1-.66-1.15A.53.53,0,0,1,265.38,394.57Z" style="fill:#90CAF9"></path><path d="M265.38,394.57h0l2.38-2.62.06-.07a1,1,0,0,1,1.18,0,3.21,3.21,0,0,1,1.45,2.52,1,1,0,0,1-.55,1h0l-.09,0-3.49.76h0a.54.54,0,0,1-.37-.08,1.46,1.46,0,0,1-.66-1.15A.53.53,0,0,1,265.38,394.57Z" style="opacity:0.1"></path><path d="M265.25,395a1.46,1.46,0,0,0,.66,1.15.54.54,0,0,0,.37.08h0l1.76-.39c.28-.05.46-.32.46-.74a2.33,2.33,0,0,0-1.06-1.83.67.67,0,0,0-.84,0l-.05,0-1.18,1.3h0A.53.53,0,0,0,265.25,395Z" style="fill:#90CAF9"></path><path d="M265.91,394.57c-.37-.21-.66,0-.66.38a1.46,1.46,0,0,0,.66,1.15c.36.21.66,0,.66-.38A1.47,1.47,0,0,0,265.91,394.57Z" style="opacity:0.1"></path><path d="M318.32,363.9a.5.5,0,0,1,.52.05,1.62,1.62,0,0,1,.73,1.26.48.48,0,0,1-.22.47h0l-18.18,10.51a.52.52,0,0,0,.17-.44,1.62,1.62,0,0,0-.73-1.27.58.58,0,0,0-.48-.07Z" style="fill:#fafafa"></path><path d="M318.11,364.37a1.62,1.62,0,0,0,.73,1.26.51.51,0,0,0,.51.05.5.5,0,0,0,.22-.47,1.62,1.62,0,0,0-.73-1.26.5.5,0,0,0-.52-.05A.51.51,0,0,0,318.11,364.37Z" style="fill:#f5f5f5"></path><path d="M319.74,361.25h0l0,0,3-1.75.07,0h0a1.32,1.32,0,0,1,1.25.15,4.1,4.1,0,0,1,1.86,3.21,1.28,1.28,0,0,1-.55,1.2h0l-3.08,1.78h0a1.33,1.33,0,0,1-1.28-.15,4.06,4.06,0,0,1-1.85-3.2A1.35,1.35,0,0,1,319.74,361.25Z" style="fill:#90CAF9"></path><path d="M319.74,361.25h0l0,0,3-1.75.07,0h0a1.32,1.32,0,0,1,1.25.15,4.1,4.1,0,0,1,1.86,3.21,1.28,1.28,0,0,1-.55,1.2h0l-3.08,1.78h0a1.33,1.33,0,0,1-1.28-.15,4.06,4.06,0,0,1-1.85-3.2A1.35,1.35,0,0,1,319.74,361.25Z" style="opacity:0.05"></path><path d="M321.09,361.36c-1-.59-1.85-.12-1.85,1.07a4.06,4.06,0,0,0,1.85,3.2c1,.59,1.85.12,1.85-1.07A4.09,4.09,0,0,0,321.09,361.36Z" style="opacity:0.1"></path><path d="M264.41,395.68h0l1.25-.76h0a.25.25,0,0,1,.25,0,.75.75,0,0,1,.34.59.25.25,0,0,1-.1.22h0l-1.25.76h0a.61.61,0,0,1-.24.06.49.49,0,0,1-.48-.49A.46.46,0,0,1,264.41,395.68Z" style="fill:#455a64"></path><path d="M264.33,395.73h0l.06-.05h0a.26.26,0,0,1,.22,0,.77.77,0,0,1,.34.59.25.25,0,0,1-.1.22h-.05a.41.41,0,0,1-.16,0,.49.49,0,0,1-.33-.84Z" style="fill:#263238"></path></g></g><g id="freepik--Pencil--inject-2"><path id="freepik--shadow--inject-2" d="M296.41,392.77c.56,1.51,2.17,2.45,4.86,2.8l48-27.95,5-5a.39.39,0,0,0-.4-.64l-9.17,3Z" style="opacity:0.2"></path><g id="freepik--pencil--inject-2"><path d="M345,361.56l8.16-1.6a.26.26,0,0,1,.24.42l-5.54,6.27Z" style="fill:#ffa8a7"></path><path d="M353.43,360.38a.26.26,0,0,0-.24-.42l-1.59.31h0a1.4,1.4,0,0,1,.65,1.31v.14Z" style="fill:#263238"></path><path d="M307.77,389.62l.67-.38.81-.46,38.64-22.13a3.7,3.7,0,0,0-.23-2.71,3.83,3.83,0,0,0-2.63-2.38l-38.62,22.12-1.54.89C305.89,384.05,308.8,389.09,307.77,389.62Z" style="fill:#455a64"></path><path d="M310.32,388.17l1.49-.86c.44-.23.19-1.31-.33-2.43-.68-1.49-2-2.92-2.6-2.62l-1.1.64-.39.23c.58-.31,1.93,1.13,2.61,2.61.49,1.07.74,2.12.36,2.4h0Z" style="fill:#ebebeb"></path><path d="M310.69,388c1-.54-1.91-5.58-2.93-5l-1.49.85c1-.54,4,4.5,2.93,5.05Z" style="fill:#90CAF9"></path><path d="M307.77,389.62l1.48-.84c1-.53-1.78-5.42-2.84-5.1l-.07,0-1.47.86C305.89,384.05,308.8,389.09,307.77,389.62Z" style="fill:#ebebeb"></path><path d="M353.46,360.1l-.27-.14-5.92,3.24L307,386.29c-.06-.09-.1-.1-.14,0,.87,1.35,1.53,3.06.95,3.36l.67-.38.81-.46,38.64-22.13h0l5.54-6.27A.26.26,0,0,0,353.46,360.1Z" style="opacity:0.15"></path><path d="M301.52,393.2l6.25-3.58c.44-.23.2-1.3-.31-2.41-.67-1.49-2-2.94-2.59-2.64h0l-6.28,3.59c-1.25.72-.1,3.43,1.29,4.64A1.49,1.49,0,0,0,301.52,393.2Z" style="fill:#f28f8f"></path><path d="M301.89,391.26a4.53,4.53,0,0,0-2.55-3.09,1,1,0,0,0-.94.13c-.94.87.16,3.36,1.47,4.5a1.48,1.48,0,0,0,1.61.41C302,392.94,302.13,392.22,301.89,391.26Z" style="opacity:0.1"></path></g></g><g id="freepik--Plant--inject-2"><path id="freepik--shadow--inject-2" d="M422.72,329.18a7.44,7.44,0,0,1-1.2,2.78,13.11,13.11,0,0,1-4.48,4c-7.75,4.48-20.32,4.48-28.08,0a13.2,13.2,0,0,1-4.48-4,7.56,7.56,0,0,1-1.18-2.78h0c-.69-3.36,1.2-6.87,5.67-9.45,7.76-4.48,20.33-4.48,28.08,0C421.51,322.31,423.41,325.82,422.72,329.18Z" style="fill:#90CAF9;opacity:0.2"></path><g id="freepik--plant--inject-2"><g id="freepik--Pot--inject-2"><path d="M418.3,314.24h-31l3.2,13.35h0c.24,1.61,1.43,3.19,3.56,4.42,4.82,2.78,12.64,2.78,17.46,0,2.3-1.33,3.49-3.05,3.6-4.78Z" style="fill:#e0e0e0"></path><path d="M419.92,310.28a6.52,6.52,0,0,1-1,2.41,11.41,11.41,0,0,1-3.89,3.46c-6.73,3.88-17.64,3.88-24.37,0a11.41,11.41,0,0,1-3.89-3.46,6.49,6.49,0,0,1-1-2.41h0c-.6-2.92,1.05-6,4.93-8.2,6.73-3.89,17.64-3.89,24.37,0C418.87,304.32,420.52,307.36,419.92,310.28Z" style="fill:#fafafa"></path><path d="M418.88,312.69a11.41,11.41,0,0,1-3.89,3.46c-6.73,3.88-17.64,3.88-24.37,0a11.41,11.41,0,0,1-3.89-3.46,6.49,6.49,0,0,1-1-2.41h0l.77,5.26c.35,2.11,1.92,4.17,4.73,5.79,6.42,3.7,16.81,3.7,23.23,0,2.77-1.6,4.34-3.63,4.72-5.72l0-.27.74-5.06A6.52,6.52,0,0,1,418.88,312.69Z" style="fill:#ebebeb"></path><path d="M413,303.25c-5.61-3.24-14.7-3.24-20.31,0-3.17,1.83-4.55,4.31-4.13,6.7.32,1.83,1.7,3.62,4.13,5,5.61,3.24,14.7,3.24,20.31,0,2.43-1.4,3.81-3.19,4.13-5C417.51,307.56,416.14,305.08,413,303.25Z" style="fill:#e0e0e0"></path><path d="M389.46,312.17a9.57,9.57,0,0,0,3.19,2.8c5.61,3.24,14.7,3.24,20.31,0a9.53,9.53,0,0,0,3.18-2.8c0-1.94-1.34-3.87-3.9-5.35-5.21-3-13.66-3-18.87,0C390.81,308.3,389.51,310.23,389.46,312.17Z" style="fill:#90CAF9"></path></g><path d="M398.47,291.27c-.27-7.92-3.26-20.23-6.12-25.2a40.52,40.52,0,0,1,9,23.43Z" style="fill:#263238"></path><path d="M407.07,308.37c.26-5.51,4.32-7.3,8.88-5.51,3.24,1.28,7.92,6.09,9.4,13.77C423.9,312.67,413.38,299.32,407.07,308.37Z" style="fill:#455a64"></path><path d="M407.31,311c.26-2,2.11-4.74,5.33-4.08s10.8,6.58,14,16.3c-.58-6.52-2.7-12.14-7.05-15.79s-7.53-4.2-10.71-2.31C406.16,306.76,407.31,311,407.31,311Z" style="fill:#37474f"></path><path d="M401.53,313.68c-2.62-8.76-3-25-.49-33.84,3.57-12.45,11-17.9,16.49-19.22-5.23,2.18-10.75,10.16-12.3,18s-.66,35.1-.66,35.1Z" style="fill:#455a64"></path><path d="M403.68,305.14c.34-4.9,3.2-15.77,8.86-20.15a10.42,10.42,0,0,1,13.89.86,8.51,8.51,0,0,0-10.53.16c-3,2.46-6,9.84-7.52,16.85Z" style="fill:#263238"></path><path d="M411.39,286c3.56-3.49,6.34-5.85,10.76-5.62s10.32,6.4,13.74,19.48c-3.53-8.31-8.11-15.61-15.44-16.39A11.77,11.77,0,0,0,411.39,286Z" style="fill:#37474f"></path><path d="M371.58,278.24a28.48,28.48,0,0,1,29.28,24.05l-3.92-.63S393.68,291.36,388,286C383,281.26,379.27,279.37,371.58,278.24Z" style="fill:#455a64"></path><path d="M401.83,299.83c.3-4.42-1.78-13.71-8.54-20s-9.19-7.67-16.14-9.45a44.08,44.08,0,0,1,14.47,12c4.47,5.84,4.67,12.76,4.67,15.37C397.05,299.83,399.8,304.09,401.83,299.83Z" style="fill:#37474f"></path><path d="M401.53,302c-.88-5.63,2.15-15.71,5.69-20.64,4.28-6,10.59-10.43,17.6-11.64-7.5,2.87-15.05,11.24-17.27,19.14a42.79,42.79,0,0,0-.92,16.07Z" style="fill:#37474f"></path><path d="M403.92,313.68c-.95-5.26.73-16.22,9.39-22.26S428,287,430.23,287.66c-6.7-.45-13.44,3.28-17.55,7.9-2.86,3.21-5.54,8.46-5.71,17.17Z" style="fill:#455a64"></path><path d="M404,314.12s2.27-.06,3.18-1.12c0-3.4.92-10.21,5.69-14.23s8.49-3.25,9.24-1.67c0-2.32-2.91-4.38-6.13-3.69C410.62,294.55,403,301.53,404,314.12Z" style="fill:#263238"></path><path d="M413.2,294.45c2.94-1.6,5.46-3,8.74-1.45.14-.09,2-.56,2.71.28,2.74,3.23,1.86,11.27-3.16,19,2.31-5.78,2.42-16.44-1.84-18.1A8.48,8.48,0,0,0,413.2,294.45Z" style="fill:#37474f"></path><path d="M421.94,293c1.32.6,4,5.23,2.28,11.68,1.62-4.87,1-9.56-1.7-11.83A2.46,2.46,0,0,0,421.94,293Z" style="fill:#263238"></path><path d="M398.27,312.55c-.26-2.05-2.11-4.75-5.33-4.09s-10.8,6.59-14,16.3a26.25,26.25,0,0,1,6.87-16.11c3.5-3.69,8.1-5.47,11.75-3.51S398.27,312.55,398.27,312.55Z" style="fill:#263238"></path><path d="M396.94,300.27c-2.83-2.83-4.81-5.54-10-4.47s-8.77,6.73-10.18,14.36c.88-3,3.56-9.69,8.88-10.84S393.54,298.57,396.94,300.27Z" style="fill:#455a64"></path><path d="M398.27,312.55c-.74-5-2.64-12.11-7.95-12.4s-11.14,3.06-13.57,10c1.24-6.33,6.64-12.37,12.27-12.38s11.17,1.21,12.51,15.9Z" style="fill:#37474f"></path><path d="M393.79,291.37a14.33,14.33,0,0,0-7.32-3.63c-1.81-.31-5.33-1.7-9.1,1.81S369.63,301.26,371,307C371.64,300.9,379.81,283.84,393.79,291.37Z" style="fill:#37474f"></path><path d="M402.28,314.18c0-4.63-3.38-19.31-8.72-23.05-6.68-4.67-11.15-.69-11.15-.69a9,9,0,0,1,8,1.26c3.45,2.53,6.67,9.91,7.9,20.85A4.86,4.86,0,0,0,402.28,314.18Z" style="fill:#263238"></path><path d="M399.25,300.39c-.32,1.36,1.08,11.45,2.17,13.73a9.66,9.66,0,0,0,3.22-.05c1-1.77,0-13.19,2-13.41C405.11,300,400,298.06,399.25,300.39Z" style="fill:#37474f"></path><path d="M399.25,300.39c1.58-1.62,8,1.58,9.18,11.11,1.59-4.52.88-10.12-.71-11.53a2.89,2.89,0,0,0-3.29-.45S399.47,297.34,399.25,300.39Z" style="fill:#455a64"></path><path d="M404.43,299.52c2,.83,4.2,3.55,4.18,8.19.15-2.38-.31-6.55-3.67-8.39A3.19,3.19,0,0,0,404.43,299.52Z" style="fill:#37474f"></path></g></g></g><g id="freepik--Graphics--inject-2"><g id="freepik--Idea--inject-2"><path d="M408.45,73c-5.76-1.62-6.42-4-6.47-4.24a.53.53,0,0,1,0-.33l.81-2.9c.22-.78,0-2.41-2.38-5.73a.56.56,0,0,0-.05-.08h0a17.81,17.81,0,1,1,22,6.17l-.06,0c-3.85,1.63-4.9,2.89-5.12,3.68l-.82,2.89a.66.66,0,0,1-.17.29C416,73,414.22,74.63,408.45,73Zm-5.07-4.42c.22.42,1.28,1.91,5.45,3.09s5.83.47,6.26.22l.75-2.67c.46-1.61,2.31-3,5.83-4.54h0l.06,0a16.42,16.42,0,1,0-20.22-5.71l0,0c2.24,3.16,3,5.34,2.6,6.94Z" style="fill:#e0e0e0"></path><path d="M405.85,82.21c-6-1.7-6.68-4.14-6.74-4.41a.78.78,0,0,1,0-.34l1.64-5.8a.7.7,0,0,1,1.35,0h0s.62,1.91,5.76,3.36,6.68.15,6.69.13a.71.71,0,0,1,.84-.08.68.68,0,0,1,.31.77l-1.64,5.8a.75.75,0,0,1-.16.29C413.71,82.18,411.85,83.9,405.85,82.21Zm-5.33-4.59c.22.43,1.31,2,5.71,3.25s6.13.48,6.57.22L414,76.94c-1.21.3-3.25.38-6.48-.54s-4.92-2-5.8-2.93Z" style="fill:#e0e0e0"></path><path d="M407.42,68.12l-.17-.08a.69.69,0,0,1-.23-1s1.09-1.93,2.13-8.48a15.55,15.55,0,0,0,.07-5c-2.52,0-4.24-1.34-4.72-2.61a2,2,0,0,1,1.11-2.64,2.61,2.61,0,0,1,2.71.45,6.49,6.49,0,0,1,2,3.31,7.93,7.93,0,0,0,1.12-.31A9.48,9.48,0,0,0,414,50.45c-.54-1.78-.55-3.49.11-4.51A2.1,2.1,0,0,1,417.84,47c0,1.21-.87,2.67-2.26,3.9A9.5,9.5,0,0,0,417,53.37a7.19,7.19,0,0,0,.8.84,6.46,6.46,0,0,1,3.42-1.77,2.62,2.62,0,0,1,2.55,1,2,2,0,0,1-.44,2.84,4.9,4.9,0,0,1-5.39-.25,15.76,15.76,0,0,0-2.58,4.33c-2.54,6.12-2.62,8.32-2.62,8.34a.69.69,0,0,1-.7.68.68.68,0,0,1-.68-.69c0-.1,0-2.39,2.72-8.86a16.86,16.86,0,0,1,2.75-4.64,8.57,8.57,0,0,1-.91-1,11.42,11.42,0,0,1-1.5-2.45,11.49,11.49,0,0,1-2.57,1.3,8.48,8.48,0,0,1-1.28.35,17,17,0,0,1-.08,5.39c-1.1,6.92-2.27,8.9-2.31,9A.71.71,0,0,1,407.42,68.12Zm-.55-18.56a1,1,0,0,0-.72,0,.6.6,0,0,0-.36.88,3.47,3.47,0,0,0,3.09,1.7,4.8,4.8,0,0,0-1.42-2.31A1.68,1.68,0,0,0,406.87,49.56ZM419,55a3.45,3.45,0,0,0,3.52.16.59.59,0,0,0,.16-.93,1.25,1.25,0,0,0-1.26-.45A4.73,4.73,0,0,0,419,55Zm-3.05-8.54c-.45-.13-.61,0-.72.2a4,4,0,0,0-.11,2.75,4,4,0,0,0,1.34-2.4C416.45,46.85,416.4,46.63,415.94,46.5Z" style="fill:#e0e0e0"></path></g><g id="freepik--idea--inject-2"><path d="M457.18,138.89a25.52,25.52,0,1,0-33.82,31.49h0l.12.06c5.46,2.08,7,3.84,7.39,4.95l1.32,4.1a.91.91,0,0,0,.25.41c.28.27,2.93,2.55,11.1-.08s9-6,9.05-6.41a1,1,0,0,0,0-.48l-1.32-4.1c-.36-1.1-.11-3.45,3.18-8.45a.22.22,0,0,0,.05-.08A25.42,25.42,0,0,0,457.18,138.89Zm-9.11,9.19c-.62,1.83-3,3.86-6.62,4a22.52,22.52,0,0,0,.35,7.21c1.84,9.32,3.48,12,3.5,12a1,1,0,0,1-1.67,1.09c-.07-.12-1.84-2.89-3.78-12.73a24.39,24.39,0,0,1-.39-7.72,12.56,12.56,0,0,1-1.85-.43,16.11,16.11,0,0,1-3.74-1.73,15.93,15.93,0,0,1-2,3.59,12.67,12.67,0,0,1-1.25,1.43,24.66,24.66,0,0,1,4.19,6.5c4.16,9.12,4.34,12.4,4.35,12.54a1,1,0,0,1-.69,1,.8.8,0,0,1-.26,0,1,1,0,0,1-1-.95s-.23-3.16-4.17-11.8a22.43,22.43,0,0,0-3.92-6.06c-3,2-6.11,1.76-7.7.64a2.82,2.82,0,0,1-.77-4,3.71,3.71,0,0,1,3.59-1.6,9.2,9.2,0,0,1,5,2.37,11.59,11.59,0,0,0,1.11-1.26,14.08,14.08,0,0,0,1.95-3.59c-2.06-1.69-3.43-3.73-3.44-5.47a3,3,0,0,1,5.35-1.72c1,1.42,1.08,3.88.4,6.45a13.66,13.66,0,0,0,3.68,1.77,10.86,10.86,0,0,0,1.63.38,9.24,9.24,0,0,1,2.67-4.83,3.73,3.73,0,0,1,3.85-.8A2.81,2.81,0,0,1,448.07,148.08Zm-2.43-1.88a1.78,1.78,0,0,0-1.86.46,6.79,6.79,0,0,0-1.92,3.38c2.47-.23,4-1.58,4.34-2.61A.85.85,0,0,0,445.64,146.2Zm-14.18-3.94c-.65.21-.7.53-.7.82a5.77,5.77,0,0,0,2,3.36,5.68,5.68,0,0,0-.3-3.92C432.34,142.28,432.11,142.05,431.46,142.26Zm-8.39,10.85a1.52,1.52,0,0,0-.84.63.84.84,0,0,0,.27,1.32c.89.62,2.91.84,5-.42A6.87,6.87,0,0,0,424,153,2.36,2.36,0,0,0,423.07,153.11Z" style="fill:#ebebeb"></path><path d="M447.74,192.86c-8.5,2.73-11.25.37-11.54.09a1,1,0,0,1-.25-.41l-2.64-8.22a1,1,0,0,1,.42-1.15,1,1,0,0,1,1.21.14h0s2.26,1.78,9.55-.57,8.08-5.11,8.08-5.14a1,1,0,0,1,.94-.77,1,1,0,0,1,1,.67l2.64,8.22a1,1,0,0,1,0,.48C457.1,186.59,456.24,190.12,447.74,192.86Z" style="fill:#ebebeb"></path><path d="M424,119.12a1,1,0,0,1-1.25-.64l-2.54-7.91a1,1,0,1,1,1.89-.61l2.54,7.91A1,1,0,0,1,424,119.12Z" style="fill:#ebebeb"></path><path d="M439.75,118.58a1,1,0,0,1-1.27-1.16l1.75-8.12a1,1,0,0,1,1.94.42l-1.75,8.12A1,1,0,0,1,439.75,118.58Z" style="fill:#ebebeb"></path><path d="M453.66,126a1,1,0,0,1-1-.21,1,1,0,0,1-.07-1.4l5.58-6.17a1,1,0,1,1,1.47,1.34l-5.58,6.16A1,1,0,0,1,453.66,126Z" style="fill:#ebebeb"></path><path d="M469.92,136.79,462,139.34a1,1,0,1,1-.6-1.89l7.91-2.55a1,1,0,1,1,.61,1.89Z" style="fill:#ebebeb"></path><path d="M470.67,156.83a.88.88,0,0,1-.51,0L462,155.11a1,1,0,0,1-.76-1.18,1,1,0,0,1,1.18-.76l8.13,1.75a1,1,0,0,1,.09,1.91Z" style="fill:#ebebeb"></path><path d="M410.91,127.86a1,1,0,0,1-1-.21l-6.16-5.58a1,1,0,0,1-.07-1.4,1,1,0,0,1,1.41-.07l6.16,5.58a1,1,0,0,1,.07,1.41A1,1,0,0,1,410.91,127.86Z" style="fill:#ebebeb"></path><path d="M403.93,142a1,1,0,0,1-.52,0l-8.12-1.75a1,1,0,0,1,.42-1.94l8.12,1.75a1,1,0,0,1,.76,1.18A1,1,0,0,1,403.93,142Z" style="fill:#ebebeb"></path><path d="M404.94,157.71,397,160.25a1,1,0,0,1-.61-1.89l7.91-2.55a1,1,0,0,1,.61,1.9Z" style="fill:#ebebeb"></path><path d="M408.1,177a1,1,0,0,1-1-.21,1,1,0,0,1-.07-1.4l5.58-6.16a1,1,0,0,1,1.48,1.33l-5.58,6.16A1,1,0,0,1,408.1,177Z" style="fill:#ebebeb"></path></g><path id="freepik--gear--inject-2" d="M36.13,424.67l-6,3.44a.45.45,0,0,0,0,.81l4.73,3.4a.64.64,0,0,1,.09,1,11.6,11.6,0,0,0-1.69,2.34,1.47,1.47,0,0,1-1.08.71l-7.94.51a.81.81,0,0,0-.75.79v4.43a.81.81,0,0,0,.75.79l7.94.5a1.49,1.49,0,0,1,1.08.72,11.89,11.89,0,0,0,1.69,2.34.64.64,0,0,1-.09,1l-4.73,3.4a.45.45,0,0,0,0,.81l6,3.44a1.6,1.6,0,0,0,1.32.06l6-2.8a2.21,2.21,0,0,1,1.39-.08,35.24,35.24,0,0,0,4.69,1.11,1.14,1.14,0,0,1,.87.85l.76,4a.94.94,0,0,0,.88.73h8.77a1,1,0,0,0,.89-.73l.75-4a1.16,1.16,0,0,1,.88-.85,35.61,35.61,0,0,0,4.69-1.11,2.17,2.17,0,0,1,1.38.08l6,2.8a1.6,1.6,0,0,0,1.32-.06l6-3.44a.44.44,0,0,0,0-.81l-4.72-3.4a.62.62,0,0,1-.09-1,12.32,12.32,0,0,0,1.69-2.34,1.47,1.47,0,0,1,1.07-.72l7.95-.5a.8.8,0,0,0,.74-.79v-4.43a.8.8,0,0,0-.74-.79l-7.95-.51a1.43,1.43,0,0,1-1.07-.71A12,12,0,0,0,78,433.29a.62.62,0,0,1,.09-1l4.72-3.4a.44.44,0,0,0,0-.81l-6-3.44a1.57,1.57,0,0,0-1.32-.06l-6,2.8a2.25,2.25,0,0,1-1.38.08,37.29,37.29,0,0,0-4.69-1.12,1.13,1.13,0,0,1-.88-.84l-.76-4a.93.93,0,0,0-.88-.73H52.08a.94.94,0,0,0-.88.73l-.76,4a1.12,1.12,0,0,1-.87.84,36.88,36.88,0,0,0-4.69,1.12,2.28,2.28,0,0,1-1.39-.08l-6-2.8A1.56,1.56,0,0,0,36.13,424.67ZM66.54,434c5.57,3.21,5.57,8.42,0,11.63s-14.58,3.21-20.15,0-5.56-8.42,0-11.63S61,430.82,66.54,434Z" style="fill:#ebebeb"></path><path id="freepik--gear--inject-2" d="M91.14,457.23l-2.64,2.19a.57.57,0,0,0,.11,1l3.33,1.66a.9.9,0,0,1,.37,1.22,6.53,6.53,0,0,0-.33.9,1.55,1.55,0,0,1-1.1,1.05l-4.5.77a.78.78,0,0,0-.63,1l.71,2.29a1.26,1.26,0,0,0,1.2.84l4.73-.19a2.33,2.33,0,0,1,1.53.65,10.13,10.13,0,0,0,1.13,1,.8.8,0,0,1,.12,1.21l-1.88,2a.59.59,0,0,0,.22,1l4.14,1.65a2,2,0,0,0,1.62-.16l2.79-1.85a2.63,2.63,0,0,1,1.67-.34,23.92,23.92,0,0,0,2.68.33,1.84,1.84,0,0,1,1.34.88l1,2a1.45,1.45,0,0,0,1.33.72l5.18-.54a.9.9,0,0,0,.8-1l-.24-2a1.13,1.13,0,0,1,.78-1.17,23,23,0,0,0,2.16-.8,2.85,2.85,0,0,1,1.71-.11l4,1.26a1.9,1.9,0,0,0,1.58-.31l2.64-2.2a.56.56,0,0,0-.11-1l-3.32-1.67a.89.89,0,0,1-.38-1.22,6.49,6.49,0,0,0,.34-.89,1.55,1.55,0,0,1,1.1-1.06l4.5-.77a.78.78,0,0,0,.63-1l-.72-2.29a1.27,1.27,0,0,0-1.19-.84l-4.73.19a2.31,2.31,0,0,1-1.53-.65,10.25,10.25,0,0,0-1.14-1,.8.8,0,0,1-.11-1.21l1.88-2a.59.59,0,0,0-.23-1l-4.14-1.66a2,2,0,0,0-1.62.17l-2.78,1.85a2.64,2.64,0,0,1-1.67.33c-.89-.15-1.78-.26-2.68-.33a1.79,1.79,0,0,1-1.34-.88l-1-2a1.45,1.45,0,0,0-1.34-.73l-5.17.54a.91.91,0,0,0-.81,1l.24,2a1.13,1.13,0,0,1-.78,1.17,20.26,20.26,0,0,0-2.15.79,2.81,2.81,0,0,1-1.72.11l-4-1.26A1.88,1.88,0,0,0,91.14,457.23Zm23.12,3.94c4.49,1.79,5.6,5.35,2.49,7.94s-9.27,3.23-13.76,1.44-5.6-5.36-2.49-7.95S109.78,459.37,114.26,461.17Z" style="fill:#ebebeb"></path><path id="freepik--question-mark--inject-2" d="M463,88.39c-2.38,1-3,2.89-2.25,4.72s2.56,2.8,4.93,1.82,2.95-2.91,2.19-4.74S465.31,87.43,463,88.39Zm-9-23.84c-5.92,2.43-8.73,7.23-8.08,12.36l7.3-.94c0-2.15.7-3.65,3.28-4.71s4.19,0,4.78,1.45c.69,1.67-.3,3.53-5.53,7.87l2.9,7.08,7-2.89L464,80.86c3-2.73,6-6.83,3.86-12C465.91,64.07,460.52,61.85,453.94,64.55Z" style="fill:#ebebeb"></path></g></svg>