<svg xmlns="http://www.w3.org/2000/svg" viewBox="0 0 500 500"><g id="freepik--Plant--inject-149"><g id="freepik--Plants--inject-149"><path d="M475.05,311.78c-2.34,4.1-5.85,9.77-9.14,15.89-4.94,9.16-9.39,19.35-8.72,26.87l0,.77h0l-.57,11.56-.08,1.57-2.73-1.58L447.05,363a99.42,99.42,0,0,1-.17-37.76c2.64-15.12,13.22-31.73,22.15-32.63C477.34,291.75,480.9,301.53,475.05,311.78Z" style="fill:#90CAF9"></path><path d="M475.05,311.78c-2.34,4.1-5.85,9.77-9.14,15.89-4.94,9.16-9.39,19.35-8.72,26.87l0,.77h0l-.57,11.56-.08,1.57-2.73-1.58L447.05,363a99.42,99.42,0,0,1-.17-37.76c2.64-15.12,13.22-31.73,22.15-32.63C477.34,291.75,480.9,301.53,475.05,311.78Z" style="fill:#fff;opacity:0.25"></path><path d="M450.75,362.55a.53.53,0,0,0,.33-.56c-3.5-28,8-53.8,19.75-63.14a.53.53,0,0,0,.08-.75.52.52,0,0,0-.75-.08c-11.91,9.49-23.69,35.73-20.15,64.11a.54.54,0,0,0,.6.46Z" style="fill:#fff"></path><path d="M485.31,329.5c-.93,5.42-10.78,11.8-17.29,20.58-5.88,7.94-8.44,16-8.23,20.26h0l-3.28-1.89-2.73-1.58c-1.5-19.85,4.44-32.77,12.14-39.2a22.17,22.17,0,0,1,5.86-3.57C480.42,320.64,486.41,323,485.31,329.5Z" style="fill:#90CAF9"></path><path d="M485.31,329.5c-.93,5.42-10.78,11.8-17.29,20.58-5.88,7.94-8.44,16-8.23,20.26h0l-3.28-1.89-2.73-1.58c-1.5-19.85,4.44-32.77,12.14-39.2a22.17,22.17,0,0,1,5.86-3.57C480.42,320.64,486.41,323,485.31,329.5Z" style="fill:#fff;opacity:0.6000000000000001"></path><path d="M456.7,366.84a.55.55,0,0,0,.33-.49c.33-22.74,13.37-35.13,20.21-38.51a.53.53,0,0,0-.47-1c-7.57,3.73-20.47,16.24-20.82,39.46a.54.54,0,0,0,.53.54A.51.51,0,0,0,456.7,366.84Z" style="fill:#fff"></path></g></g><g id="freepik--Shadows--inject-149"><ellipse id="freepik--Shadow--inject-149" cx="403.92" cy="401.07" rx="79.23" ry="45.74" style="fill:#e0e0e0"></ellipse><path id="freepik--shadow--inject-149" d="M352.3,355.41c10.71,6.18,10.71,16.21,0,22.4s-28.09,6.18-38.8,0-10.71-16.22,0-22.4S341.58,349.22,352.3,355.41Z" style="fill:#e0e0e0"></path><path id="freepik--shadow--inject-149" d="M229,394.76l-85,49.09a10.45,10.45,0,0,1-9.49,0L86.14,416c-2.61-1.51-2.61-4,0-5.47l85-49.09a10.49,10.49,0,0,1,9.48,0L229,389.29C231.58,390.8,231.58,393.25,229,394.76Z" style="fill:#e0e0e0"></path><path d="M87.92,391.11c-14.35,8.29-37.63,8.29-52,0s-14.36-21.73,0-30,37.63-8.28,52,0S102.28,382.82,87.92,391.11Z" style="fill:#e0e0e0"></path><path id="freepik--shadow--inject-149" d="M290.58,403.19c-6.88-4-18-4-24.91,0-2.72,1.57-4.35,3.53-4.92,5.57-6.57,4-6.49,10.28.29,14.19s18,4,24.92,0c2.72-1.57,4.34-3.52,4.91-5.56C297.45,413.4,297.36,407.1,290.58,403.19Z" style="fill:#e0e0e0"></path><ellipse id="freepik--shadow--inject-149" cx="228.14" cy="428.47" rx="16.51" ry="9.53" style="fill:#e0e0e0"></ellipse><ellipse id="freepik--shadow--inject-149" cx="55.72" cy="428.47" rx="16.51" ry="9.53" style="fill:#e0e0e0"></ellipse></g><g id="freepik--Liver--inject-149"><g id="freepik--liver--inject-149"><path d="M190.2,229.84c22.62,2.54,39.18-16.47,45.58-33.11a75.47,75.47,0,0,1,3.81-8.63,9.21,9.21,0,0,1,3.34,2,8.92,8.92,0,0,1,2.6,4.81,25.68,25.68,0,0,1,.42,6.42c0,.29,1.86,1.23,2,.76a19.87,19.87,0,0,0,.92-7.21c-.17-3.56-1.41-7.35-4.17-9.75a11.06,11.06,0,0,0-2.22-1.49c2.81-3.58,6.55-6.46,12.4-9.23,11.16-5.3,16.54-8.53,17.92-23.88C233.55,156.54,182.14,215.43,190.2,229.84Z" style="fill:#455a64"></path><path d="M268.46,154.92c9.59-10,24.76-23.47,31.34-40.92s-.13-20.6,1.84-36.1,6.52-29.79-6.24-38-24.91-7-44.9,2.38c-25.33,11.88-28.81,21.3-28.81,21.3s7.35,49,7.35,69.4S257.42,169.85,268.46,154.92Z" style="fill:#90CAF9"></path><path d="M268.46,154.92c9.59-10,24.76-23.47,31.34-40.92s-.13-20.6,1.84-36.1,6.52-29.79-6.24-38-24.91-7-44.9,2.38c-25.33,11.88-28.81,21.3-28.81,21.3s7.35,49,7.35,69.4S257.42,169.85,268.46,154.92Z" style="fill:#fff;opacity:0.30000000000000004"></path><path d="M268.46,154.92c9.59-10,24.76-23.47,31.34-40.92,6.31-16.75.38-20.34,1.65-34.34a2.87,2.87,0,0,0-.32.91c-1.14,7.19.68,22.86-3.6,33s-15.24,22.61-23.42,25.4-11.23-7.78-7.94-25.11L242,119.46l-12.63,17.37C232.61,155.37,258.13,168.9,268.46,154.92Z" style="fill:#90CAF9;opacity:0.5"></path><path d="M278.42,38.32c-11.76-.27-42.42,14.09-38.88,19.1S255.84,68.72,264,70.5C277.15,73.4,301.4,56.82,298,48.38,295.66,42.37,285.15,38.48,278.42,38.32Z" style="fill:#fff;opacity:0.1"></path><path d="M219.31,64.55c9.28-4.14,13.13-3.76,22.17,0s16,12.68,20.1,23c2.72,6.72,4.2,10.41,6.59,11.47,3.51,1.57,2.75,4.06.54,8.55-2.65,5.37-5.85,14.51-6.53,34.54-.41,12.35,0,19.64,6.28,12.85-2.48,6.54-7.15,13-18.42,11.2S219.31,64.55,219.31,64.55Z" style="fill:#90CAF9"></path><path d="M219.31,64.55c9.28-4.14,13.13-3.76,22.17,0s16,12.68,20.1,23c2.72,6.72,4.2,10.41,6.59,11.47,3.51,1.57,2.75,4.06.54,8.55-2.65,5.37-5.85,14.51-6.53,34.54-.41,12.35,0,19.64,6.28,12.85-2.48,6.54-7.15,13-18.42,11.2S219.31,64.55,219.31,64.55Z" style="fill:#fff;opacity:0.7000000000000001"></path><path d="M239.89,73.15c-20-11.48-37.5-16.47-78.21,7.13S101.89,119,94.07,134.94c-11.28,23-6.46,45.31-2.37,76.79s11.2,47.67,20.58,56.3,27,13.86,49.4-2.37S187.83,229.22,200,215s28.4-23.28,41.5-36.81c17.72-18.28,16.15-46.92,16.49-57.52C258.5,105.19,260.67,85.05,239.89,73.15Z" style="fill:#90CAF9"></path><path d="M239.89,73.15c-20-11.48-37.5-16.47-78.21,7.13S101.89,119,94.07,134.94c-11.28,23-6.46,45.31-2.37,76.79s11.2,47.67,20.58,56.3,27,13.86,49.4-2.37S187.83,229.22,200,215s28.4-23.28,41.5-36.81c17.72-18.28,16.15-46.92,16.49-57.52C258.5,105.19,260.67,85.05,239.89,73.15Z" style="fill:#fff;opacity:0.30000000000000004"></path><path d="M225,74.8c-18.62-7.36-45.44,2.29-86.45,28.52s-49.39,47.54-37,68.93c9.39,16.27,32.43,15.73,52.23-18.28,14.4-24.73,42.47-35.2,63-53C229.1,90.23,238.74,80.24,225,74.8Z" style="fill:#fff;opacity:0.1"></path><path d="M248.13,156.46c-9.52,22.25-30.34,21.48-49.4,35.52s-28.72,42.4-51,53.22-49,1.33-54.88-25.68C97,245.94,103.71,260.14,112.28,268c9.38,8.64,27,13.86,49.4-2.37S187.83,229.22,200,215s28.4-23.28,41.5-36.81c17.72-18.28,16.15-46.92,16.49-57.52.2-6.16.66-13.05-.16-19.87h0S257.64,134.2,248.13,156.46Z" style="fill:#90CAF9;opacity:0.5"></path></g></g><g id="freepik--Medicines--inject-149"><g id="freepik--Capsules--inject-149"><g id="freepik--capsules--inject-149"><path d="M226.3,391.89l-83.12,48a9.79,9.79,0,0,1-8.91,0L88.8,413.62c-2.46-1.42-2.46-3.72,0-5.14l83.11-48a9.87,9.87,0,0,1,8.92,0l45.47,26.25C228.76,388.16,228.76,390.47,226.3,391.89Z" style="fill:#f0f0f0"></path><path d="M226.3,389.47l-83.11,48a9.87,9.87,0,0,1-8.92,0L88.8,411.21c-2.46-1.42-2.46-3.73,0-5.15l83.12-48a9.87,9.87,0,0,1,8.92,0l45.46,26.25C228.76,385.75,228.76,388.05,226.3,389.47Z" style="fill:#fafafa"></path><path d="M176.38,357.56a8.5,8.5,0,0,1,4.18,1L226,384.8a2.19,2.19,0,0,1,0,4.2l-83.11,48a9.26,9.26,0,0,1-8.37,0L89.08,410.73a2.19,2.19,0,0,1,0-4.2l83.11-48a8.54,8.54,0,0,1,4.19-1m0-.55a9.11,9.11,0,0,0-4.46,1.06l-83.12,48c-2.46,1.42-2.46,3.73,0,5.15l45.47,26.25a9.91,9.91,0,0,0,8.92,0l83.11-48c2.46-1.42,2.46-3.72,0-5.15l-45.46-26.25a9.16,9.16,0,0,0-4.46-1.06Z" style="fill:#ebebeb"></path><path d="M134.27,437.46l-41-23.67h0c12.91,6.61,37.43,20.76,41.05,22.17s5.78,2,12.52-1.86,74.88-42,74.88-42l-78.53,45.34A9.87,9.87,0,0,1,134.27,437.46Z" style="fill:#fafafa"></path><path d="M114,421.13a1.24,1.24,0,0,0,1.11,0l82.85-47.83c.32-.19.33-.48,0-.65a1.24,1.24,0,0,0-1.11,0L114,420.49C113.67,420.67,113.65,421,114,421.13Z" style="fill:#e0e0e0"></path><path d="M180.72,377.14h0a5.74,5.74,0,0,1-.83.4l-.32.11a9.8,9.8,0,0,1-7.49-.67l-7.82-4.51-.06,0a5.51,5.51,0,0,1-2.26-2.16,5.58,5.58,0,0,1,2-7.62,6.73,6.73,0,0,1,.82-.38l.33-.11a9.88,9.88,0,0,1,7.49.65l7.82,4.51.06.05a5.56,5.56,0,0,1,.22,9.77Z" style="fill:#fafafa;opacity:0.7000000000000001;mix-blend-mode:hard-light"></path><path d="M164,367.48a9.57,9.57,0,0,1,8.64.16l7.81,4.51c2.46,1.42,2.59,3.66.28,5a9.51,9.51,0,0,1-8.64-.16l-7.82-4.51C161.8,371.05,161.68,368.82,164,367.48Z" style="fill:#e0e0e0"></path><path d="M161.83,370.06a5.58,5.58,0,0,1,2.15-7.41,6.73,6.73,0,0,1,.82-.38l.33-.11a10.09,10.09,0,0,1,6.53.2c-3.66-.37-5.92-.48-8.22,1.45A5.66,5.66,0,0,0,161.83,370.06Z" style="fill:#fff"></path><path d="M175.74,366.32a2.3,2.3,0,0,0-2.31.23,7.22,7.22,0,0,0-3.26,5.66,2.29,2.29,0,0,0,1,2.11l4.2,2.42a4.62,4.62,0,0,0,4.62-8Z" style="fill:#f5f5f5"></path><path d="M170,363a4.62,4.62,0,1,0-4.62,8l5.8,3.33a2.29,2.29,0,0,1-1-2.11,7.22,7.22,0,0,1,3.26-5.66,2.3,2.3,0,0,1,2.31-.23Z" style="fill:#90CAF9"></path><path d="M164.6,367.28a1.76,1.76,0,0,1,2.41-.65l7,4a6.64,6.64,0,0,1-2.31,2.44l-.29.15-6.17-3.55A1.76,1.76,0,0,1,164.6,367.28Z" style="fill:#fff;opacity:0.4"></path><path d="M175.74,366.32a2.3,2.3,0,0,0-2.31.23,7.22,7.22,0,0,0-3.26,5.66,2.29,2.29,0,0,0,1,2.11l4.2,2.42a4.62,4.62,0,0,0,4.62-8Z" style="fill:#f5f5f5"></path><path d="M170.17,372.21a7.22,7.22,0,0,1,3.26-5.66,2.3,2.3,0,0,1,2.31-.23l-.33-.19-.25-.14a2.3,2.3,0,0,0-2.31.23,7.21,7.21,0,0,0-3.26,5.65,2.29,2.29,0,0,0,1,2.11l.58.34A2.29,2.29,0,0,1,170.17,372.21Z" style="opacity:0.1"></path><path d="M179.51,377h0a4.56,4.56,0,0,0,2.13-1.91,4.62,4.62,0,0,0-1.69-6.31l-4.21-2.41a2.3,2.3,0,0,0-2.31.23,5.41,5.41,0,0,0-1.12.89c2.45,1.41,5.45,3.13,7,4C181.63,372.81,180.81,376.17,179.51,377Z" style="fill:#e0e0e0"></path><path d="M178.86,375.48a1.76,1.76,0,0,0-.64-2.41L171.13,369a6.73,6.73,0,0,0-1,3.23c0,.11,0,.21,0,.31l6.27,3.61A1.76,1.76,0,0,0,178.86,375.48Z" style="fill:#fff"></path><path d="M163.38,365.2l-.09.25-.06.18-.06.2a1.6,1.6,0,0,0,0,.21s0,.08,0,.11a4.44,4.44,0,0,0-.07,1v0c0,.11,0,.23,0,.34h0c0-1.51,2.53-3.91,4.84-2.58l4.42,2.54a5.41,5.41,0,0,1,1.12-.89,2.3,2.3,0,0,1,2.31-.23L170,363a4.61,4.61,0,0,0-6.31,1.69c-.07.13-.14.25-.2.38Z" style="opacity:0.1"></path><path d="M209.86,394.12h0a4.39,4.39,0,0,1-.82.39l-.32.12a9.82,9.82,0,0,1-7.5-.67l-7.81-4.51-.06,0a5.52,5.52,0,0,1-2.26-2.16,5.58,5.58,0,0,1,2-7.62,5.07,5.07,0,0,1,.82-.38l.33-.12a9.84,9.84,0,0,1,7.49.66l7.81,4.51.06,0a5.57,5.57,0,0,1,.22,9.78Z" style="fill:#fafafa;opacity:0.7000000000000001;mix-blend-mode:hard-light"></path><path d="M193.13,384.46a9.57,9.57,0,0,1,8.64.16l7.82,4.51c2.46,1.42,2.58,3.66.27,5a9.57,9.57,0,0,1-8.64-.16l-7.81-4.51C191,388,190.82,385.79,193.13,384.46Z" style="fill:#e0e0e0"></path><path d="M191,387a5.57,5.57,0,0,1,2.15-7.41,5.07,5.07,0,0,1,.82-.38l.33-.12a10.16,10.16,0,0,1,6.53.21c-3.67-.38-5.92-.48-8.22,1.45A5.64,5.64,0,0,0,191,387Z" style="fill:#fff"></path><path d="M204.89,383.3a2.3,2.3,0,0,0-2.31.23,7.21,7.21,0,0,0-3.26,5.65,2.3,2.3,0,0,0,1,2.12l4.2,2.41a4.62,4.62,0,1,0,4.62-8Z" style="fill:#f5f5f5"></path><path d="M199.1,380a4.62,4.62,0,1,0-4.62,8l5.79,3.33a2.3,2.3,0,0,1-1-2.12,7.21,7.21,0,0,1,3.26-5.65,2.3,2.3,0,0,1,2.31-.23Z" style="fill:#90CAF9"></path><path d="M193.74,384.26a1.77,1.77,0,0,1,2.42-.65l7,4a6.71,6.71,0,0,1-2.31,2.44c-.09.06-.19.1-.28.15l-6.18-3.55A1.78,1.78,0,0,1,193.74,384.26Z" style="fill:#fff;opacity:0.4"></path><path d="M204.89,383.3a2.3,2.3,0,0,0-2.31.23,7.21,7.21,0,0,0-3.26,5.65,2.3,2.3,0,0,0,1,2.12l4.2,2.41a4.62,4.62,0,1,0,4.62-8Z" style="fill:#f5f5f5"></path><path d="M199.32,389.18a7.21,7.21,0,0,1,3.26-5.65,2.3,2.3,0,0,1,2.31-.23l-.33-.19-.25-.14a2.3,2.3,0,0,0-2.31.23,7.21,7.21,0,0,0-3.26,5.65,2.29,2.29,0,0,0,.95,2.11l.58.34A2.3,2.3,0,0,1,199.32,389.18Z" style="opacity:0.1"></path><path d="M208.66,393.93h0a4.61,4.61,0,0,0,.43-8.22l-4.2-2.41a2.3,2.3,0,0,0-2.31.23,5.42,5.42,0,0,0-1.12.88c2.44,1.42,5.44,3.14,7,4C210.77,389.78,210,393.15,208.66,393.93Z" style="fill:#e0e0e0"></path><path d="M208,392.46a1.76,1.76,0,0,0-.65-2.41L200.27,386a6.7,6.7,0,0,0-1,3.22c0,.11,0,.22,0,.32l6.26,3.61A1.77,1.77,0,0,0,208,392.46Z" style="fill:#fff"></path><path d="M192.53,382.18c0,.08-.07.16-.1.25l-.06.18c0,.06,0,.13-.05.2a1.6,1.6,0,0,0,0,.21.43.43,0,0,0,0,.11,4.45,4.45,0,0,0-.08,1v0c0,.12,0,.23,0,.35h0c0-1.51,2.53-3.91,4.83-2.58l4.43,2.53a5.42,5.42,0,0,1,1.12-.88,2.3,2.3,0,0,1,2.31-.23L199.1,380a4.63,4.63,0,0,0-6.32,1.69c-.07.12-.13.25-.19.38Z" style="opacity:0.1"></path><path d="M159.8,389.22h0a5.12,5.12,0,0,1-.82.39l-.32.12a9.86,9.86,0,0,1-7.5-.67l-7.81-4.51-.07-.05a5.56,5.56,0,0,1-.21-9.77,5.07,5.07,0,0,1,.82-.38l.33-.12a9.84,9.84,0,0,1,7.49.66l7.81,4.51.06,0a5.58,5.58,0,0,1,.22,9.78Z" style="fill:#fafafa;opacity:0.7000000000000001;mix-blend-mode:hard-light"></path><path d="M143.07,379.56a9.54,9.54,0,0,1,8.64.16l7.82,4.51c2.46,1.42,2.58,3.65.27,5a9.57,9.57,0,0,1-8.64-.16l-7.81-4.51C140.88,383.13,140.76,380.89,143.07,379.56Z" style="fill:#e0e0e0"></path><path d="M140.92,382.14a5.57,5.57,0,0,1,2.15-7.41,5.07,5.07,0,0,1,.82-.38l.33-.12a10.07,10.07,0,0,1,6.52.21c-3.66-.38-5.92-.48-8.21,1.45A5.64,5.64,0,0,0,140.92,382.14Z" style="fill:#fff"></path><path d="M154.83,378.4a2.3,2.3,0,0,0-2.31.23,7.22,7.22,0,0,0-3.27,5.65,2.29,2.29,0,0,0,1,2.11l4.2,2.42a4.62,4.62,0,0,0,4.62-8Z" style="fill:#f5f5f5"></path><path d="M149,375.07a4.62,4.62,0,1,0-4.63,8l5.8,3.32a2.29,2.29,0,0,1-1-2.11,7.22,7.22,0,0,1,3.27-5.65,2.3,2.3,0,0,1,2.31-.23Z" style="fill:#90CAF9"></path><path d="M143.68,379.35a1.77,1.77,0,0,1,2.42-.64l7,4a6.71,6.71,0,0,1-2.31,2.44l-.28.15-6.18-3.55A1.77,1.77,0,0,1,143.68,379.35Z" style="fill:#fff;opacity:0.4"></path><path d="M154.83,378.4a2.3,2.3,0,0,0-2.31.23,7.22,7.22,0,0,0-3.27,5.65,2.29,2.29,0,0,0,1,2.11l4.2,2.42a4.62,4.62,0,0,0,4.62-8Z" style="fill:#f5f5f5"></path><path d="M149.25,384.28a7.22,7.22,0,0,1,3.27-5.65,2.3,2.3,0,0,1,2.31-.23l-.33-.19-.26-.14a2.25,2.25,0,0,0-2.3.22,7.23,7.23,0,0,0-3.27,5.66,2.29,2.29,0,0,0,1,2.11l.58.33A2.29,2.29,0,0,1,149.25,384.28Z" style="opacity:0.1"></path><path d="M158.59,389h0a4.61,4.61,0,0,0,.44-8.22l-4.2-2.41a2.3,2.3,0,0,0-2.31.23,5.47,5.47,0,0,0-1.13.88l7,4C160.71,384.88,159.89,388.25,158.59,389Z" style="fill:#e0e0e0"></path><path d="M158,387.56a1.77,1.77,0,0,0-.65-2.42l-7.09-4.08a6.69,6.69,0,0,0-1,3.22c0,.11,0,.22,0,.32l6.26,3.61A1.77,1.77,0,0,0,158,387.56Z" style="fill:#fff"></path><path d="M142.47,377.28a2.44,2.44,0,0,0-.1.24l-.06.18a1.6,1.6,0,0,0-.05.21l-.06.21a.43.43,0,0,1,0,.11,5.17,5.17,0,0,0-.07,1v0c0,.12,0,.23,0,.35h0c0-1.52,2.54-3.91,4.84-2.58.79.46,2,1.12,4.42,2.53a5.47,5.47,0,0,1,1.13-.88,2.3,2.3,0,0,1,2.31-.23L149,375.07a4.63,4.63,0,0,0-6.32,1.69c-.07.12-.13.25-.19.38Z" style="opacity:0.1"></path><path d="M189,406.2h0a6.94,6.94,0,0,1-.83.39l-.32.12a9.84,9.84,0,0,1-7.49-.67l-7.82-4.51-.06,0a5.56,5.56,0,0,1-.22-9.77,5.22,5.22,0,0,1,.83-.39l.32-.11a9.84,9.84,0,0,1,7.49.66l7.82,4.51s0,0,.06,0a5.51,5.51,0,0,1,2.26,2.16,5.58,5.58,0,0,1-2,7.62Z" style="fill:#fafafa;opacity:0.7000000000000001;mix-blend-mode:hard-light"></path><path d="M172.22,396.54a9.51,9.51,0,0,1,8.64.16l7.81,4.51c2.47,1.42,2.59,3.65.28,5a9.57,9.57,0,0,1-8.64-.16l-7.82-4.51C170,400.1,169.91,397.87,172.22,396.54Z" style="fill:#e0e0e0"></path><path d="M170.06,399.12a5.57,5.57,0,0,1,2.15-7.41,5.22,5.22,0,0,1,.83-.39l.32-.11a10.09,10.09,0,0,1,6.53.2c-3.66-.37-5.92-.48-8.22,1.45A5.67,5.67,0,0,0,170.06,399.12Z" style="fill:#fff"></path><path d="M184,395.38a2.3,2.3,0,0,0-2.31.23,7.21,7.21,0,0,0-3.26,5.65,2.27,2.27,0,0,0,1,2.11l4.2,2.42a4.62,4.62,0,0,0,4.62-8Z" style="fill:#f5f5f5"></path><path d="M178.18,392a4.62,4.62,0,0,0-4.62,8l5.8,3.32a2.27,2.27,0,0,1-1-2.11,7.21,7.21,0,0,1,3.26-5.65,2.3,2.3,0,0,1,2.31-.23Z" style="fill:#90CAF9"></path><path d="M172.83,396.33a1.79,1.79,0,0,1,2.42-.65l7,4a6.71,6.71,0,0,1-2.31,2.44l-.29.14-6.17-3.54A1.77,1.77,0,0,1,172.83,396.33Z" style="fill:#fff;opacity:0.4"></path><path d="M184,395.38a2.3,2.3,0,0,0-2.31.23,7.21,7.21,0,0,0-3.26,5.65,2.27,2.27,0,0,0,1,2.11l4.2,2.42a4.62,4.62,0,0,0,4.62-8Z" style="fill:#f5f5f5"></path><path d="M178.4,401.26a7.21,7.21,0,0,1,3.26-5.65,2.3,2.3,0,0,1,2.31-.23l-.33-.19-.25-.15a2.3,2.3,0,0,0-2.31.23,7.21,7.21,0,0,0-3.26,5.65,2.3,2.3,0,0,0,1,2.12l.58.33A2.27,2.27,0,0,1,178.4,401.26Z" style="opacity:0.1"></path><path d="M187.74,406h0a4.62,4.62,0,0,0,.44-8.23l-4.21-2.4a2.3,2.3,0,0,0-2.31.23,5.7,5.7,0,0,0-1.12.88l7,4C189.86,401.86,189,405.23,187.74,406Z" style="fill:#e0e0e0"></path><path d="M187.1,404.54a1.79,1.79,0,0,0-.65-2.42L179.36,398a6.69,6.69,0,0,0-1,3.22c0,.11,0,.21,0,.32l6.27,3.61A1.79,1.79,0,0,0,187.1,404.54Z" style="fill:#fff"></path><path d="M171.61,394.26l-.09.24-.06.18-.06.2a2.25,2.25,0,0,0-.05.22s0,.07,0,.11a4.35,4.35,0,0,0-.07,1v0c0,.12,0,.23,0,.34h0c0-1.51,2.53-3.9,4.84-2.57.79.45,2,1.12,4.42,2.53a5.7,5.7,0,0,1,1.12-.88,2.3,2.3,0,0,1,2.31-.23L178.18,392a4.62,4.62,0,0,0-6.31,1.69c-.07.13-.14.26-.2.39Z" style="opacity:0.1"></path><path d="M138.89,401.29h0a5.74,5.74,0,0,1-.83.4l-.32.11a9.87,9.87,0,0,1-7.5-.66l-7.81-4.52-.06,0a5.58,5.58,0,0,1,.6-10.16l.33-.11a9.84,9.84,0,0,1,7.49.66l7.82,4.51.06,0a5.51,5.51,0,0,1,2.26,2.16,5.58,5.58,0,0,1-2,7.61Z" style="fill:#fafafa;opacity:0.7000000000000001;mix-blend-mode:hard-light"></path><path d="M122.15,391.63a9.6,9.6,0,0,1,8.65.16l7.81,4.51c2.46,1.43,2.59,3.66.28,5a9.56,9.56,0,0,1-8.65-.15l-7.81-4.52C120,395.2,119.84,393,122.15,391.63Z" style="fill:#e0e0e0"></path><path d="M120,394.22a5.58,5.58,0,0,1,3-7.8l.33-.11a10.1,10.1,0,0,1,6.53.2c-3.66-.37-5.92-.48-8.22,1.45A5.65,5.65,0,0,0,120,394.22Z" style="fill:#fff"></path><path d="M133.91,390.48a2.28,2.28,0,0,0-2.31.23,7.21,7.21,0,0,0-3.26,5.65,2.29,2.29,0,0,0,.95,2.11l4.2,2.42a4.63,4.63,0,0,0,4.63-8Z" style="fill:#f5f5f5"></path><path d="M128.12,387.14a4.62,4.62,0,0,0-4.62,8l5.79,3.32a2.29,2.29,0,0,1-.95-2.11,7.21,7.21,0,0,1,3.26-5.65,2.28,2.28,0,0,1,2.31-.23Z" style="fill:#90CAF9"></path><path d="M122.77,391.43a1.76,1.76,0,0,1,2.41-.65l7,4a6.56,6.56,0,0,1-2.31,2.44,1.91,1.91,0,0,1-.28.15l-6.18-3.54A1.77,1.77,0,0,1,122.77,391.43Z" style="fill:#fff;opacity:0.4"></path><path d="M133.91,390.48a2.28,2.28,0,0,0-2.31.23,7.21,7.21,0,0,0-3.26,5.65,2.29,2.29,0,0,0,.95,2.11l4.2,2.42a4.63,4.63,0,0,0,4.63-8Z" style="fill:#f5f5f5"></path><path d="M128.34,396.36a7.21,7.21,0,0,1,3.26-5.65,2.28,2.28,0,0,1,2.31-.23l-.33-.19-.25-.15a2.3,2.3,0,0,0-2.31.23,7.21,7.21,0,0,0-3.26,5.65,2.32,2.32,0,0,0,1,2.12l.58.33A2.29,2.29,0,0,1,128.34,396.36Z" style="opacity:0.1"></path><path d="M137.68,401.11h0a4.62,4.62,0,0,0,.44-8.23l-4.21-2.4a2.28,2.28,0,0,0-2.31.23,5.35,5.35,0,0,0-1.12.88c2.44,1.41,5.45,3.13,7,4C139.79,397,139,400.32,137.68,401.11Z" style="fill:#e0e0e0"></path><path d="M137,399.64a1.77,1.77,0,0,0-.64-2.42l-7.09-4.08a6.58,6.58,0,0,0-1,3.22c0,.11,0,.21,0,.32l6.27,3.6A1.76,1.76,0,0,0,137,399.64Z" style="fill:#fff"></path><path d="M121.55,389.35l-.09.25a.64.64,0,0,0-.06.18l-.06.2a1.42,1.42,0,0,0,0,.22s0,.07,0,.1a4.45,4.45,0,0,0-.08,1v0l0,.34h0c0-1.51,2.53-3.9,4.84-2.57.79.45,2,1.12,4.42,2.53a5.35,5.35,0,0,1,1.12-.88,2.28,2.28,0,0,1,2.31-.23l-5.79-3.34a4.62,4.62,0,0,0-6.31,1.69,3.6,3.6,0,0,0-.2.39Z" style="opacity:0.1"></path><path d="M168,418.27h0a4.71,4.71,0,0,1-.82.39l-.32.12a9.82,9.82,0,0,1-7.5-.67l-7.81-4.51-.07,0a5.58,5.58,0,0,1-.22-9.78,6.86,6.86,0,0,1,.83-.38l.33-.11a9.88,9.88,0,0,1,7.49.65l7.81,4.51.06.05a5.49,5.49,0,0,1,2.26,2.15,5.58,5.58,0,0,1-2,7.62Z" style="fill:#fafafa;opacity:0.7000000000000001;mix-blend-mode:hard-light"></path><path d="M151.3,408.61a9.57,9.57,0,0,1,8.64.16l7.82,4.51c2.46,1.42,2.58,3.66.27,5a9.54,9.54,0,0,1-8.64-.16l-7.81-4.51C149.11,412.18,149,410,151.3,408.61Z" style="fill:#e0e0e0"></path><path d="M149.15,411.19a5.58,5.58,0,0,1,2.14-7.41,6.86,6.86,0,0,1,.83-.38l.33-.11a10.06,10.06,0,0,1,6.52.2c-3.66-.37-5.92-.48-8.21,1.45A5.64,5.64,0,0,0,149.15,411.19Z" style="fill:#fff"></path><path d="M163.05,407.45a2.28,2.28,0,0,0-2.3.23,7.2,7.2,0,0,0-3.27,5.66,2.29,2.29,0,0,0,1,2.11l4.2,2.42a4.62,4.62,0,0,0,4.62-8Z" style="fill:#f5f5f5"></path><path d="M157.27,404.12a4.62,4.62,0,1,0-4.63,8l5.8,3.33a2.29,2.29,0,0,1-1-2.11,7.2,7.2,0,0,1,3.27-5.66,2.28,2.28,0,0,1,2.3-.23Z" style="fill:#90CAF9"></path><path d="M151.91,408.41a1.77,1.77,0,0,1,2.42-.65l7,4a6.64,6.64,0,0,1-2.31,2.44l-.28.15-6.18-3.55A1.76,1.76,0,0,1,151.91,408.41Z" style="fill:#fff;opacity:0.4"></path><path d="M163.05,407.45a2.28,2.28,0,0,0-2.3.23,7.2,7.2,0,0,0-3.27,5.66,2.29,2.29,0,0,0,1,2.11l4.2,2.42a4.62,4.62,0,0,0,4.62-8Z" style="fill:#f5f5f5"></path><path d="M157.48,413.34a7.2,7.2,0,0,1,3.27-5.66,2.28,2.28,0,0,1,2.3-.23l-.32-.19-.25-.14a2.3,2.3,0,0,0-2.31.23A7.2,7.2,0,0,0,156.9,413a2.29,2.29,0,0,0,1,2.11l.58.34A2.29,2.29,0,0,1,157.48,413.34Z" style="opacity:0.1"></path><path d="M166.82,418.08h0a4.47,4.47,0,0,0,2.13-1.91,4.62,4.62,0,0,0-1.69-6.31l-4.21-2.41a2.28,2.28,0,0,0-2.3.23,5.46,5.46,0,0,0-1.13.89l7,4C168.94,413.93,168.12,417.3,166.82,418.08Z" style="fill:#e0e0e0"></path><path d="M166.18,416.61a1.76,1.76,0,0,0-.65-2.41l-7.09-4.09a6.73,6.73,0,0,0-1,3.23,3,3,0,0,0,0,.31l6.26,3.61A1.77,1.77,0,0,0,166.18,416.61Z" style="fill:#fff"></path><path d="M150.7,406.33a2.6,2.6,0,0,0-.1.25l-.06.18a1.17,1.17,0,0,0,0,.2l-.06.21a.36.36,0,0,1,0,.11,5.17,5.17,0,0,0-.07,1v0c0,.11,0,.23,0,.34h0c0-1.51,2.54-3.91,4.84-2.58.79.46,2,1.13,4.42,2.54a5.46,5.46,0,0,1,1.13-.89,2.28,2.28,0,0,1,2.3-.23l-5.78-3.33a4.63,4.63,0,0,0-6.32,1.69l-.19.38Z" style="opacity:0.1"></path><path d="M118,413.37h0a5.57,5.57,0,0,1-.82.39l-.33.12a9.8,9.8,0,0,1-7.49-.67l-7.82-4.51-.06,0a5.54,5.54,0,0,1,.61-10.16l.33-.12a9.84,9.84,0,0,1,7.49.66l7.81,4.51.06,0a5.58,5.58,0,0,1,.22,9.78Z" style="fill:#fafafa;opacity:0.7000000000000001;mix-blend-mode:hard-light"></path><path d="M101.24,403.71a9.57,9.57,0,0,1,8.64.16l7.81,4.51c2.47,1.42,2.59,3.66.28,5a9.57,9.57,0,0,1-8.64-.16l-7.82-4.51C99.05,407.28,98.93,405,101.24,403.71Z" style="fill:#e0e0e0"></path><path d="M99.08,406.29a5.51,5.51,0,0,1,3-7.79l.33-.12a10.13,10.13,0,0,1,6.52.21c-3.66-.38-5.92-.48-8.22,1.45A5.67,5.67,0,0,0,99.08,406.29Z" style="fill:#fff"></path><path d="M113,402.55a2.28,2.28,0,0,0-2.3.23,7.2,7.2,0,0,0-3.27,5.65,2.31,2.31,0,0,0,1,2.12l4.2,2.41a4.62,4.62,0,0,0,4.62-8Z" style="fill:#f5f5f5"></path><path d="M107.2,399.22a4.62,4.62,0,1,0-4.62,8l5.8,3.33a2.31,2.31,0,0,1-1-2.12,7.2,7.2,0,0,1,3.27-5.65,2.28,2.28,0,0,1,2.3-.23Z" style="fill:#90CAF9"></path><path d="M101.85,403.51a1.77,1.77,0,0,1,2.42-.65l7,4a6.71,6.71,0,0,1-2.31,2.44l-.28.15-6.18-3.55A1.76,1.76,0,0,1,101.85,403.51Z" style="fill:#fff;opacity:0.4"></path><path d="M113,402.55a2.28,2.28,0,0,0-2.3.23,7.2,7.2,0,0,0-3.27,5.65,2.31,2.31,0,0,0,1,2.12l4.2,2.41a4.62,4.62,0,0,0,4.62-8Z" style="fill:#f5f5f5"></path><path d="M107.42,408.43a7.2,7.2,0,0,1,3.27-5.65,2.28,2.28,0,0,1,2.3-.23l-.33-.19-.25-.14a2.28,2.28,0,0,0-2.3.23,7.2,7.2,0,0,0-3.27,5.65,2.29,2.29,0,0,0,1,2.11l.58.34A2.31,2.31,0,0,1,107.42,408.43Z" style="opacity:0.1"></path><path d="M116.76,413.18h0a4.61,4.61,0,0,0,.44-8.22L113,402.55a2.28,2.28,0,0,0-2.3.23,5.47,5.47,0,0,0-1.13.88l7,4C118.88,409,118.06,412.4,116.76,413.18Z" style="fill:#e0e0e0"></path><path d="M116.12,411.71a1.76,1.76,0,0,0-.65-2.41l-7.09-4.09a6.72,6.72,0,0,0-1,3.22c0,.11,0,.22,0,.32l6.26,3.61A1.77,1.77,0,0,0,116.12,411.71Z" style="fill:#fff"></path><path d="M100.64,401.43a1.86,1.86,0,0,0-.1.25l-.06.18-.06.2a1.6,1.6,0,0,1,0,.21s0,.07,0,.11a4.44,4.44,0,0,0-.07,1v0c0,.12,0,.23,0,.35h0c0-1.51,2.54-3.91,4.84-2.58l4.42,2.53a5.47,5.47,0,0,1,1.13-.88,2.28,2.28,0,0,1,2.3-.23l-5.79-3.33a4.62,4.62,0,0,0-6.31,1.69,2.69,2.69,0,0,0-.19.38A.84.84,0,0,0,100.64,401.43Z" style="opacity:0.1"></path><path d="M147.12,430.35h0a5.67,5.67,0,0,1-.83.39l-.32.12a9.87,9.87,0,0,1-7.5-.67l-7.81-4.51-.06-.05a5.49,5.49,0,0,1-2.26-2.15,5.58,5.58,0,0,1,2-7.62,5.5,5.5,0,0,1,.82-.38l.33-.12A9.84,9.84,0,0,1,139,416l7.82,4.51s0,0,.06,0a5.58,5.58,0,0,1,.22,9.78Z" style="fill:#fafafa;opacity:0.7000000000000001;mix-blend-mode:hard-light"></path><path d="M130.38,420.69a9.57,9.57,0,0,1,8.65.16l7.81,4.51c2.46,1.42,2.59,3.65.28,5a9.6,9.6,0,0,1-8.65-.16l-7.81-4.51C128.2,424.26,128.07,422,130.38,420.69Z" style="fill:#e0e0e0"></path><path d="M128.23,423.27a5.57,5.57,0,0,1,2.15-7.41,5.5,5.5,0,0,1,.82-.38l.33-.12a10.1,10.1,0,0,1,6.53.21c-3.66-.38-5.92-.48-8.22,1.45A5.64,5.64,0,0,0,128.23,423.27Z" style="fill:#fff"></path><path d="M142.14,419.53a2.3,2.3,0,0,0-2.31.23,7.21,7.21,0,0,0-3.26,5.65,2.29,2.29,0,0,0,1,2.11l4.2,2.42a4.62,4.62,0,1,0,4.63-8Z" style="fill:#f5f5f5"></path><path d="M136.35,416.19a4.62,4.62,0,0,0-4.62,8l5.79,3.32a2.29,2.29,0,0,1-1-2.11,7.21,7.21,0,0,1,3.26-5.65,2.3,2.3,0,0,1,2.31-.23Z" style="fill:#90CAF9"></path><path d="M131,420.48a1.76,1.76,0,0,1,2.41-.64l7,4a6.63,6.63,0,0,1-2.31,2.44l-.28.14-6.18-3.54A1.77,1.77,0,0,1,131,420.48Z" style="fill:#fff;opacity:0.4"></path><path d="M142.14,419.53a2.3,2.3,0,0,0-2.31.23,7.21,7.21,0,0,0-3.26,5.65,2.29,2.29,0,0,0,1,2.11l4.2,2.42a4.62,4.62,0,1,0,4.63-8Z" style="fill:#f5f5f5"></path><path d="M136.57,425.41a7.21,7.21,0,0,1,3.26-5.65,2.3,2.3,0,0,1,2.31-.23l-.33-.19-.25-.14a2.27,2.27,0,0,0-2.31.22,7.23,7.23,0,0,0-3.26,5.66,2.29,2.29,0,0,0,.95,2.11l.58.33A2.29,2.29,0,0,1,136.57,425.41Z" style="opacity:0.1"></path><path d="M145.91,430.16h0a4.61,4.61,0,0,0,.44-8.22l-4.21-2.41a2.3,2.3,0,0,0-2.31.23,5.7,5.7,0,0,0-1.12.88l7,4C148,426,147.2,429.38,145.91,430.16Z" style="fill:#e0e0e0"></path><path d="M145.26,428.69a1.77,1.77,0,0,0-.64-2.42l-7.09-4.08a6.58,6.58,0,0,0-1,3.22c0,.11,0,.22,0,.32l6.27,3.61A1.76,1.76,0,0,0,145.26,428.69Z" style="fill:#fff"></path><path d="M129.78,418.41a2.34,2.34,0,0,0-.09.24.64.64,0,0,0-.06.18l-.06.21a1.6,1.6,0,0,0,0,.21s0,.07,0,.11a4.45,4.45,0,0,0-.08,1v0l0,.35h0c0-1.52,2.53-3.91,4.84-2.58.79.46,2,1.12,4.42,2.53a5.7,5.7,0,0,1,1.12-.88,2.3,2.3,0,0,1,2.31-.23l-5.79-3.34a4.62,4.62,0,0,0-6.31,1.7,2.75,2.75,0,0,0-.2.38Z" style="opacity:0.1"></path></g></g><g id="freepik--Bottle--inject-149"><path d="M30.16,317.65c0-4.69,3.1-9.39,9.31-13,12.4-7.16,32.52-7.16,44.93,0,6.2,3.58,9.3,8.28,9.3,13v56.11c0,4.69-3.1,9.39-9.3,13-12.41,7.16-32.53,7.16-44.93,0-6.21-3.58-9.31-8.28-9.31-13h0Z" style="fill:#90CAF9"></path><path d="M42.38,303.21v85a31.66,31.66,0,0,1-2.91-1.47,23.78,23.78,0,0,1-5-3.83V308.51a24.12,24.12,0,0,1,5-3.83C40.39,304.15,41.37,303.67,42.38,303.21Z" style="fill:#fff;opacity:0.4"></path><path d="M50.7,390.91a47.17,47.17,0,0,1-4.57-1.26V301.76a44.45,44.45,0,0,1,4.57-1.25Z" style="fill:#fff;opacity:0.4"></path><path d="M30.71,314.27a22.77,22.77,0,0,1,7.4-6.42c12.24-7.07,31.56-7.56,44.79-1.47V303.9c.5.26,1,.5,1.5.78,6.2,3.58,9.3,8.28,9.3,13v56.11c0,4.69-3.1,9.39-9.3,13-12.41,7.16-32.53,7.16-44.93,0a23.62,23.62,0,0,1-5.67-4.43c5.91,5.52,20.62,8.55,31.55,6.4s17.55-9.12,17.55-14.07V372c-6.13,3.32-14.14,4.9-22,4.9V347.17c7.84,0,15.85-1.21,22-4.51v-5.84c-13.23,6.09-32.55,5.61-44.8-1.46A21.82,21.82,0,0,1,30.16,328V317.65A11,11,0,0,1,30.71,314.27Z" style="opacity:0.1"></path><path d="M88.34,376V307.46c3.57,3.07,5.36,6.63,5.36,5.6v56.11c0,9.28-3.1,14-9.3,17.56a40,40,0,0,1-12.07,4.34C84.27,387.84,88.34,379.69,88.34,376Z" style="opacity:0.1"></path><path d="M28.24,303.14c0-5,3.29-9.95,9.87-13.75,13.15-7.6,34.49-7.6,47.65,0,6.58,3.8,9.87,8.77,9.87,13.75h0v14.94h0c0,5-3.29,10-9.87,13.76-13.16,7.59-34.5,7.59-47.65,0-6.58-3.8-9.87-8.78-9.87-13.76h0V303.14Z" style="fill:#e0e0e0"></path><path d="M53.87,337c16.67.09,25.47-5.32,28.14-9.75,2-3.36,2.39-9.56,2.39-15.71,0,0,1.88-14,1.51-14.05s4-.94,7.24-1.63a12.7,12.7,0,0,1,2.48,7.33h0v14.94h0c0,5-3.29,10-9.87,13.76C77.11,336.83,64.94,338.52,53.87,337Z" style="opacity:0.1"></path><g style="opacity:0.1"><path d="M65.29,337.35c.54,0,1.08-.05,1.61-.09V317.7H65.29Z"></path><path d="M79.62,334.59c.55-.2,1.08-.41,1.62-.62V314.71H79.62Z"></path><path d="M72.69,336.44c.53-.11,1.09-.16,1.61-.28V316.71H72.69Z"></path><path d="M87.52,330.71V311.63H85.9v20.11C86.47,331.41,87,331.06,87.52,330.71Z"></path><path d="M94.82,322.25a11.75,11.75,0,0,0,.81-4.17h0V303.14h0a11.4,11.4,0,0,0-.38-2.76h-.43Z"></path><path d="M92.51,326.21V307.33H90.89V328A20.52,20.52,0,0,0,92.51,326.21Z"></path><path d="M57.71,337.3c.53,0,1.07.06,1.61.09V317.73H57.71Z"></path><path d="M43.18,334.23c.52.2,1.09.34,1.62.53V315H43.18Z"></path><path d="M50.24,336.28c.53.11,1.08.18,1.62.27V316.83H50.24Z"></path><path d="M38.39,332V312.35H36.77V331c.44.29.86.58,1.34.86C38.19,331.89,38.3,331.92,38.39,332Z"></path><path d="M32.77,327.79V308H31.15V326A18.25,18.25,0,0,0,32.77,327.79Z"></path><path d="M29.05,301.76h-.7a10.69,10.69,0,0,0-.11,1.38v14.94a11.53,11.53,0,0,0,.81,4.17Z"></path></g><path d="M85.76,316.9c-13.16,7.6-34.5,7.6-47.65,0S25,297,38.11,289.39s34.49-7.6,47.65,0S98.92,309.3,85.76,316.9Z" style="fill:#ebebeb"></path><path d="M36.29,315.74c-11.29-7.64-10.7-19.13,1.82-26.35,6.41-3.71,14.77-5.59,23.17-5.68a37.56,37.56,0,0,1,12.3,4.19c11.37,6.5,11.37,19.48,0,26C63.43,319.69,47.66,320.3,36.29,315.74Z" style="fill:#f5f5f5"></path><path d="M82.57,385.28c-11.4,5.73-29.88,5.73-41.27,0s-11.4-15,0-20.74,29.87-5.72,41.27,0S94,379.56,82.57,385.28Z" style="opacity:0.1"></path><path d="M93.7,330.4c0,4.69-3.1,9.39-9.3,13s-14.34,5.37-22.47,5.37v29.31c8.13,0,16.26-1.79,22.47-5.37s9.3-8.27,9.3-13Z" style="fill:#fff"></path><path d="M93.05,310.61s-11,11-32.13,10.46-29.64-12.14-30.76-15.72A13.23,13.23,0,0,1,33,293.15a14,14,0,0,0-4.78,10v14.94c0,1.26-.65,5.6,6.18,11.23,0,0-4-4.56-4-8.93V310.05s7.49,12.54,30.51,12.54S91.89,312.49,93.05,310.61Z" style="fill:#fff"></path></g><g id="freepik--Pills--inject-149"><g id="freepik--Pill--inject-149"><path d="M286.86,408.7a5.37,5.37,0,0,0-.33-.78c-.11-.21-.23-.41-.36-.61a8.93,8.93,0,0,0-2.3-2.29v2.37l-2-1.19v-2.36c-5.65-2.67-14-2.48-19.3.57a8.24,8.24,0,0,0-3.95,4.29,2.91,2.91,0,0,0-.12.39,4.93,4.93,0,0,0-.15,1.2V415a5.47,5.47,0,0,0,1.05,3.13,9.91,9.91,0,0,0,3.17,2.74c5.63,3.25,14.75,3.25,20.37,0,2.82-1.62,4.23-3.75,4.23-5.87v-4.71A4.83,4.83,0,0,0,286.86,408.7Z" style="fill:#f0f0f0"></path><path d="M277.23,402.39c-5-.95-10.72-.28-14.7,2a8.24,8.24,0,0,0-3.95,4.29,2.91,2.91,0,0,0-.12.39,4.93,4.93,0,0,0-.15,1.2V415a5.47,5.47,0,0,0,1.05,3.13,9.91,9.91,0,0,0,3.17,2.74c4,2.3,9.7,3,14.7,2Z" style="fill:#ebebeb"></path><path d="M262.53,404.41c-5.28,3-5.6,7.87-1,11.14l20.27-11.7C276.18,401.17,267.81,401.36,262.53,404.41Z" style="fill:#fafafa"></path><path d="M272.72,402.42a22.09,22.09,0,0,1,8.11,1.48L261.59,415c-1.9-1.42-2.9-3.15-2.82-4.92.09-2,1.5-3.86,4-5.29a20.26,20.26,0,0,1,10-2.38m0-.45a20.76,20.76,0,0,0-10.19,2.44c-5.28,3-5.6,7.87-1,11.14l20.27-11.7a21.71,21.71,0,0,0-9.11-1.88Z" style="fill:#ebebeb"></path><path d="M261.56,414.32s-5.6-4.3.62-9.7c-4.94,3.05-5.15,7.74-.62,10.93l20.27-11.7Z" style="fill:#fff"></path><path d="M283.87,405,263.6,416.73c5.66,2.67,14,2.49,19.31-.56S288.51,408.29,283.87,405Z" style="fill:#fafafa"></path><path d="M283.84,405.56c1.91,1.42,2.91,3.16,2.83,4.93-.09,2-1.51,3.85-4,5.29a20.26,20.26,0,0,1-10,2.37,21.94,21.94,0,0,1-8.12-1.48l19.24-11.11m0-.54L263.6,416.73a21.75,21.75,0,0,0,9.12,1.88,20.89,20.89,0,0,0,10.19-2.44c5.28-3.05,5.6-7.88,1-11.15Z" style="fill:#ebebeb"></path><path d="M263.6,416.73c5.66,2.67,14,2.49,19.31-.56a11.29,11.29,0,0,0,1.66-1.16c-10.36,5.2-18.7,1.54-18.7,1.54l18-11.53Z" style="fill:#fff"></path><polygon points="281.83 406.2 261.56 417.96 261.56 415.55 281.83 403.85 281.83 406.2" style="fill:#e0e0e0"></polygon><polygon points="263.6 416.73 263.6 419.14 261.56 417.96 263.6 416.73" style="opacity:0.2"></polygon></g><g id="freepik--pill--inject-149"><path d="M294.59,400.64a6.5,6.5,0,0,0-.33-.78c-.11-.2-.23-.41-.36-.61a8.9,8.9,0,0,0-2.3-2.28v2.36l-2-1.18v-2.36c-5.66-2.68-14-2.49-19.31.56a8.24,8.24,0,0,0-3.95,4.29,3.57,3.57,0,0,0-.12.4,4.79,4.79,0,0,0-.15,1.19v4.71a5.44,5.44,0,0,0,1,3.13,9.81,9.81,0,0,0,3.17,2.75c5.63,3.25,14.75,3.25,20.37,0,2.82-1.63,4.23-3.75,4.23-5.88v-4.71A4.87,4.87,0,0,0,294.59,400.64Z" style="fill:#f0f0f0"></path><path d="M285,394.33c-5-.95-10.72-.27-14.7,2a8.24,8.24,0,0,0-3.95,4.29,3.57,3.57,0,0,0-.12.4,4.79,4.79,0,0,0-.15,1.19v4.71a5.44,5.44,0,0,0,1,3.13,9.81,9.81,0,0,0,3.17,2.75c4,2.3,9.7,3,14.7,2Z" style="fill:#ebebeb"></path><path d="M270.26,396.35c-5.28,3-5.6,7.88-1,11.15l20.28-11.71C283.91,393.12,275.54,393.3,270.26,396.35Z" style="fill:#fafafa"></path><path d="M280.45,394.37a21.89,21.89,0,0,1,8.11,1.48L269.32,407c-1.9-1.42-2.9-3.16-2.82-4.92.09-2,1.51-3.86,4-5.3a20.26,20.26,0,0,1,10-2.37m0-.45a20.86,20.86,0,0,0-10.19,2.43c-5.28,3-5.6,7.88-1,11.15l20.28-11.71a21.78,21.78,0,0,0-9.12-1.87Z" style="fill:#ebebeb"></path><path d="M269.29,406.26s-5.6-4.29.63-9.7c-4.95,3.06-5.16,7.74-.63,10.94l20.28-11.71Z" style="fill:#fff"></path><path d="M291.6,397l-20.27,11.7c5.66,2.68,14,2.49,19.31-.55S296.24,400.24,291.6,397Z" style="fill:#fafafa"></path><path d="M291.58,397.51c1.9,1.42,2.9,3.16,2.82,4.92-.09,2-1.51,3.86-4,5.29a20.26,20.26,0,0,1-10,2.38,21.94,21.94,0,0,1-8.12-1.48l19.25-11.11m0-.54-20.27,11.7a21.75,21.75,0,0,0,9.12,1.88,20.89,20.89,0,0,0,10.19-2.43c5.28-3.05,5.6-7.88,1-11.15Z" style="fill:#ebebeb"></path><path d="M271.33,408.67c5.66,2.68,14,2.49,19.31-.55A12.11,12.11,0,0,0,292.3,407c-10.36,5.19-18.7,1.53-18.7,1.53l18-11.52Z" style="fill:#fff"></path><polygon points="289.56 398.15 269.29 409.91 269.29 407.5 289.56 395.79 289.56 398.15" style="fill:#e0e0e0"></polygon><polygon points="271.33 408.67 271.33 411.08 269.29 409.91 271.33 408.67" style="opacity:0.2"></polygon></g></g><g id="freepik--pill--inject-149"><g id="freepik--pill--inject-149"><path d="M242.28,420.47a4.64,4.64,0,0,0-.32-.77c-.11-.21-.23-.42-.36-.62a8.9,8.9,0,0,0-2.3-2.28v2.36l-2-1.18v-2.36c-5.66-2.68-14-2.49-19.3.56a8.3,8.3,0,0,0-4,4.29c0,.14-.08.27-.11.4a4.91,4.91,0,0,0-.15,1.19v4.71a5.42,5.42,0,0,0,1,3.13,9.71,9.71,0,0,0,3.17,2.75c5.62,3.25,14.75,3.25,20.37,0,2.81-1.62,4.22-3.75,4.22-5.88v-4.71A4.87,4.87,0,0,0,242.28,420.47Z" style="fill:#f0f0f0"></path><path d="M232.66,414.16c-5-1-10.73-.27-14.7,2a8.3,8.3,0,0,0-4,4.29c0,.14-.08.27-.11.4a4.91,4.91,0,0,0-.15,1.19v4.71a5.42,5.42,0,0,0,1,3.13,9.71,9.71,0,0,0,3.17,2.75c4,2.3,9.7,3,14.7,2Z" style="fill:#ebebeb"></path><path d="M218,416.18c-5.29,3.05-5.61,7.88-1,11.15l20.27-11.7C231.6,413,223.24,413.13,218,416.18Z" style="fill:#fafafa"></path><path d="M228.14,414.2a21.9,21.9,0,0,1,8.12,1.48L217,426.79c-1.9-1.42-2.9-3.16-2.82-4.92.09-2,1.5-3.86,4-5.29a20.29,20.29,0,0,1,10-2.38m0-.45A20.85,20.85,0,0,0,218,416.18c-5.29,3.05-5.61,7.88-1,11.15l20.27-11.7a21.57,21.57,0,0,0-9.12-1.88Z" style="fill:#ebebeb"></path><path d="M217,426.1s-5.6-4.3.62-9.71c-4.94,3.06-5.15,7.75-.62,10.94l20.27-11.7Z" style="fill:#fff"></path><path d="M239.3,416.8,219,428.51c5.66,2.67,14,2.49,19.3-.56S243.94,420.07,239.3,416.8Z" style="fill:#fafafa"></path><path d="M239.27,417.34c1.9,1.42,2.9,3.16,2.82,4.92-.09,2-1.5,3.86-4,5.29a20.18,20.18,0,0,1-10,2.38,21.9,21.9,0,0,1-8.12-1.48l19.24-11.11m0-.54L219,428.51a21.72,21.72,0,0,0,9.12,1.87A20.85,20.85,0,0,0,238.33,428c5.28-3.05,5.61-7.88,1-11.15Z" style="fill:#ebebeb"></path><path d="M219,428.51c5.66,2.67,14,2.49,19.3-.56a11.41,11.41,0,0,0,1.67-1.16c-10.37,5.19-18.7,1.53-18.7,1.53l18-11.52Z" style="fill:#fff"></path><polygon points="237.26 417.98 216.99 429.74 216.99 427.33 237.26 415.63 237.26 417.98" style="fill:#e0e0e0"></polygon><polygon points="219.03 428.51 219.03 430.92 216.99 429.74 219.03 428.51" style="opacity:0.2"></polygon></g></g><g id="freepik--pill--inject-149"><g id="freepik--pill--inject-149"><path d="M41.31,422.06v4.71c0,2.13,1.41,4.26,4.23,5.88,5.62,3.25,14.74,3.25,20.37,0a9.81,9.81,0,0,0,3.17-2.75,5.42,5.42,0,0,0,1-3.13v-4.71a4.91,4.91,0,0,0-.15-1.19,3.57,3.57,0,0,0-.12-.4,8.24,8.24,0,0,0-4-4.29c-5.28-3.05-13.65-3.24-19.3-.56V418l-2,1.18V416.8a8.9,8.9,0,0,0-2.3,2.28c-.13.2-.25.41-.36.62a5.75,5.75,0,0,0-.33.77A4.87,4.87,0,0,0,41.31,422.06Z" style="fill:#f0f0f0"></path><path d="M51.21,414.16c5-1,10.72-.27,14.7,2a8.24,8.24,0,0,1,4,4.29,3.57,3.57,0,0,1,.12.4,4.91,4.91,0,0,1,.15,1.19v4.71a5.42,5.42,0,0,1-1,3.13,9.81,9.81,0,0,1-3.17,2.75c-4,2.3-9.7,3-14.7,2Z" style="fill:#ebebeb"></path><path d="M65.91,416.18c5.28,3.05,5.6,7.88,1,11.15l-20.27-11.7C52.26,413,60.63,413.13,65.91,416.18Z" style="fill:#fafafa"></path><path d="M55.73,413.75v.45a20.25,20.25,0,0,1,10,2.38c2.49,1.43,3.9,3.31,4,5.29.08,1.76-.92,3.5-2.82,4.92L47.61,415.68a21.89,21.89,0,0,1,8.11-1.48v-.45m0,0a21.55,21.55,0,0,0-9.11,1.88l20.27,11.7c4.63-3.27,4.31-8.1-1-11.15a20.86,20.86,0,0,0-10.19-2.43Z" style="fill:#ebebeb"></path><path d="M66.88,426.1s5.6-4.3-.62-9.71c4.94,3.06,5.15,7.75.62,10.94l-20.27-11.7Z" style="fill:#fff"></path><path d="M44.57,416.8l20.27,11.71c-5.66,2.67-14,2.49-19.31-.56S39.93,420.07,44.57,416.8Z" style="fill:#fafafa"></path><path d="M44.6,417.34l19.24,11.11a21.94,21.94,0,0,1-8.12,1.48,20.16,20.16,0,0,1-10-2.38c-2.48-1.43-3.9-3.31-4-5.29-.08-1.76.92-3.5,2.83-4.92m0-.54c-4.64,3.27-4.32,8.1,1,11.15a20.82,20.82,0,0,0,10.18,2.43,21.75,21.75,0,0,0,9.12-1.87L44.57,416.8Z" style="fill:#ebebeb"></path><path d="M64.84,428.51c-5.66,2.67-14,2.49-19.31-.56a11.29,11.29,0,0,1-1.66-1.16c10.36,5.19,18.7,1.53,18.7,1.53l-18-11.52Z" style="fill:#fff"></path><polygon points="46.6 417.98 66.88 429.74 66.88 427.33 46.6 415.63 46.6 417.98" style="fill:#e0e0e0"></polygon><polygon points="64.84 428.51 64.84 430.92 66.88 429.74 64.84 428.51" style="opacity:0.2"></polygon></g></g><g id="freepik--test-tube--inject-149"><path d="M349.5,219.41c0-2.45-1.62-4.9-4.86-6.77-6.48-3.74-17-3.74-23.46,0-3.23,1.87-4.85,4.32-4.85,6.77V356.25h0a16.59,16.59,0,1,0,33.17,0h0Z" style="fill:#90CAF9"></path><path d="M349.5,219.41c0-2.45-1.62-4.9-4.86-6.77-6.48-3.74-17-3.74-23.46,0-3.23,1.87-4.85,4.32-4.85,6.77V356.25h0a16.59,16.59,0,1,0,33.17,0h0Z" style="fill:#fff;opacity:0.7000000000000001"></path><path d="M344.53,247.27c0-1.71-1.14-3.43-3.4-4.74-4.54-2.62-11.89-2.62-16.43,0-2.27,1.31-3.4,3-3.4,4.74V355.66h0a11.62,11.62,0,0,0,23.23,0h0Z" style="fill:#90CAF9"></path><path d="M332.91,367.27a11.6,11.6,0,0,0,11.59-11A8.1,8.1,0,0,1,328.62,354h0V241a14.12,14.12,0,0,0-3.92,1.49c-2.27,1.31-3.4,3-3.4,4.74V355.66h0A11.61,11.61,0,0,0,332.91,367.27Z" style="opacity:0.1"></path><path d="M344.53,247.27c0,3.7-5.2,6.7-11.62,6.7s-11.61-3-11.61-6.7,5.2-6.7,11.61-6.7S344.53,243.57,344.53,247.27Z" style="fill:#90CAF9"></path><path d="M344.53,247.27c0,3.7-5.2,6.7-11.62,6.7s-11.61-3-11.61-6.7,5.2-6.7,11.61-6.7S344.53,243.57,344.53,247.27Z" style="fill:#fff;opacity:0.30000000000000004"></path><path d="M344.53,247.27c0-1.84-1.3-3.51-3.39-4.73.3.29,5,5.72-2.37,8.77-7.9,3.27-15.1,0-17-2.27,1.34,2.84,5.84,4.93,11.19,4.93C339.33,254,344.53,251,344.53,247.27Z" style="fill:#fff;opacity:0.5"></path><path d="M343.12,360.82c0,1.64,1,2.43,2.14,1.68a5.86,5.86,0,0,0,2-4.45V214.64a12.85,12.85,0,0,0-2.64-2,14.36,14.36,0,0,0-1.52-.76Z" style="fill:#fff;opacity:0.4"></path><path d="M339.93,364.92l.09,0a1.67,1.67,0,0,0,1.14-1.53V211.12a23.18,23.18,0,0,0-2.38-.66V364A.88.88,0,0,0,339.93,364.92Z" style="fill:#fff;opacity:0.4"></path><path d="M345.35,228.66a11.44,11.44,0,0,0,4.15-3.83v-5.42a5.64,5.64,0,0,0-.29-1.76,11.9,11.9,0,0,0-3.86-3.36c-6.39-3.69-16.48-3.94-23.38-.76v-1.3l-.18.1-.61.31a11.94,11.94,0,0,0-3.32,2.74,7.13,7.13,0,0,0-1.23,2.2,5.84,5.84,0,0,0-.3,1.83v6.49h0v19.19h0v111.2a16.57,16.57,0,0,0,31.76,6.65c-2.91,5.68-10.75,8.12-17.51,6.25l-.08,0a9.37,9.37,0,0,1-6.73-9.07v-130C330.54,232.52,339.49,232,345.35,228.66Z" style="fill:#90CAF9;opacity:0.2"></path><path d="M331.22,372.75h0c-10.33-1.94-12.09-10.32-12.09-15.31V214.1l-.22.19a8.51,8.51,0,0,0-1.85,2.32.61.61,0,0,0-.07.14c-.08.16-.16.32-.23.49l-.06.18a5.86,5.86,0,0,0-.32,1.23s0,.09,0,.14a4.4,4.4,0,0,0,0,.62v6.49h0v19.19h0V356.25h0A16.59,16.59,0,0,0,331.22,372.75Z" style="opacity:0.1"></path><path d="M351.9,196.69c0-2.81-1.85-5.62-5.56-7.76-7.42-4.28-19.44-4.28-26.86,0-3.7,2.14-5.56,4.95-5.56,7.76h0v20.86h0c0,2.81,1.86,5.61,5.56,7.75,7.42,4.29,19.44,4.29,26.86,0,3.71-2.14,5.56-4.94,5.56-7.75h0V196.69Z" style="fill:#e0e0e0"></path><g style="opacity:0.15"><path d="M343.48,203.39h-.91V227c.3-.1.62-.18.91-.3Z"></path><path d="M339.5,204.4h-.91V228c.3-.05.61-.09.91-.15Z"></path><path d="M335.29,228.38V204.9h-.91v23.53C334.69,228.42,335,228.41,335.29,228.38Z"></path><path d="M351.45,219.86a6.68,6.68,0,0,0,.45-2.31V196.69a5.08,5.08,0,0,0-.13-.78h-.32Z"></path><path d="M346.18,225.38l.16-.08a8.36,8.36,0,0,0,.75-.53v-22.9h-.91Z"></path><path d="M350.26,222V199.44h-.91V223A10.54,10.54,0,0,0,350.26,222Z"></path><path d="M319.4,225.25V201.47h-.91V224.6C318.8,224.82,319.06,225.05,319.4,225.25Z"></path><path d="M330.11,228.36c.3,0,.61,0,.91,0V204.89h-.91Z"></path><path d="M316.59,199h-.91v23a11.93,11.93,0,0,0,.91,1Z"></path><path d="M314.38,195.13h-.2a6.36,6.36,0,0,0-.26,1.56h0v20.86h0a6.69,6.69,0,0,0,.46,2.31Z"></path><path d="M325.94,227.74c.3.07.61.1.91.16V204.33h-.91Z"></path><path d="M322,226.51l.91.34V203.21H322Z"></path></g><path d="M337.46,228.19c-9.4.05-14.36-3-15.87-5.49-1.14-1.9-1.34-17.84-1.34-21.31,0,0-1.06-7.89-.85-7.92s-2.26-.53-4.08-.92a7.18,7.18,0,0,0-1.4,4.14h0v20.86h0c0,2.81,1.86,5.61,5.56,7.75C324.36,228.12,331.22,229.07,337.46,228.19Z" style="opacity:0.1"></path><ellipse cx="332.91" cy="196.69" rx="18.99" ry="10.96" style="fill:#ebebeb"></ellipse><path d="M347.36,203.79c6.36-4.31,6-10.79-1-14.86a27.32,27.32,0,0,0-13.06-3.2,21.25,21.25,0,0,0-6.93,2.36c-6.41,3.67-6.41,11,0,14.65C332.07,206,341,206.35,347.36,203.79Z" style="fill:#f5f5f5"></path><path d="M327.08,200.05a12.9,12.9,0,0,0,11.67,0c3.22-1.86,3.22-4.87,0-6.73a12.9,12.9,0,0,0-11.67,0C323.86,195.18,323.86,198.19,327.08,200.05Z" style="fill:#455a64"></path><path d="M315.37,200.89s6.18,6.22,18.11,5.9,16.71-6.84,17.34-8.86a7.46,7.46,0,0,0-1.61-6.88,7.93,7.93,0,0,1,2.69,5.64v20.86c0,.71.37,3.16-3.48,6.33,0,0,2.26-2.57,2.26-5V200.58s-4.23,7.06-17.2,7.06S316,202,315.37,200.89Z" style="fill:#fff"></path><g id="freepik--Label--inject-149"><path d="M333.71,273.45c-5.32,0-10.07-1.4-13.16-3.58V333c3.09,2.17,7.84,3.56,13.16,3.56a28,28,0,0,0,7.18-.9V272.54A28,28,0,0,1,333.71,273.45Z" style="opacity:0.1"></path><path d="M332.91,272.21c-5.22,0-9.88-1.39-12.92-3.58v63.1c3,2.17,7.7,3.57,12.92,3.57a27.05,27.05,0,0,0,7.06-.91V271.3A27.05,27.05,0,0,1,332.91,272.21Z" style="fill:#fafafa"></path><path d="M322.37,330.55a.65.65,0,0,1-.66-.66V273.7a.66.66,0,1,1,1.31,0v56.19A.65.65,0,0,1,322.37,330.55Z" style="fill:#e0e0e0"></path><path d="M325.12,331.26a.66.66,0,0,1-.66-.66V274.41a.66.66,0,0,1,1.32,0V330.6A.67.67,0,0,1,325.12,331.26Z" style="fill:#e0e0e0"></path></g></g></g><g id="freepik--Character--inject-149"><g id="freepik--character--inject-149"><path id="freepik--Gown--inject-149" d="M364.84,273.7c9.38-4.37,59.38-4.6,81-1.54L434.29,154l-65.08-1.77Z" style="fill:#e0e0e0"></path><g id="freepik--Bottom--inject-149"><path d="M390.87,368.2l2.22-18.71-20.95,1.12s.18,10.17.39,15.93c.13,3.4-4.43,9.66-4.43,9.66s9.76,5.53,15,3.72,8.17-8.49,8.12-10S390.87,368.2,390.87,368.2Z" style="fill:#ffa8a7"></path><path d="M339.34,396.74c-.33,0-.72,2.94,1,4.48,2,1.78,8.53,5.3,16.59,4.56s12.48-3,15.77-5.46,7.89-6,11.55-6.62c3.39-.61,7.1-2,8.21-2.92s1.09-5.42,1.09-5.42Z" style="fill:#263238"></path><path d="M390.88,368.16a1.28,1.28,0,0,1,1.18,1.08c.21,1.23.37,4.8.85,6.83.65,2.81,1,8.56.47,10.82s-6.05,3.67-9.61,4.84a45.12,45.12,0,0,0-11.58,6.53c-3.86,2.86-11.89,5.72-17.12,5.51-6.19-.24-13.11-2.38-14.63-5.18-1.87-3.47-3.2-7.47,6.1-11.25,1.76-.72,8-4,10.09-5.18,5.72-3.22,9.78-6.21,12.54-12.13a3.33,3.33,0,0,1,1.37-1.8,3,3,0,0,1,1.79-.1c1.53.26,7.6,1.25,9,1.94,1.21.6,2.94,1.31,2.87,2.82a4.93,4.93,0,0,1-.39,1.53c-.12.3-.22.71.06.9s.62,0,.87-.2a23.07,23.07,0,0,0,2.55-2.77,8.88,8.88,0,0,1,1.5-1.37,15.57,15.57,0,0,0,1.6-.93C390.94,369.53,390.83,368.87,390.88,368.16Z" style="fill:#455a64"></path><path d="M372.19,398.26c1.63-1.21,3.37-2.38,5.11-3.42h0s-11,5.95-15.26,3c-2.76-1.93-1.36-4.12-1.27-4.84s-9.68-6.06-12.4-6.46h0c-.78.38-1.41.7-1.83.85-7.25,2.52-8.3,6-7.24,10.52,1.51,2.8,7.65,5.84,15.65,6.09C360.18,404.12,368.33,401.12,372.19,398.26Z" style="fill:#37474f"></path><path d="M361.59,390.9c-5.77,2-3.37,3.1-1.78,3.37s11.36-4.8,17.35-9.06c6.25-4.44,10.25-9.39,12.57-11,.87-.61,1.8-1.36,2.63-2.06-.11-1.21-.2-2.31-.3-2.89a1.28,1.28,0,0,0-1.18-1.08c-.05.71.06,1.37-.51,1.89a15.57,15.57,0,0,1-1.6.93,8.88,8.88,0,0,0-1.5,1.37,23.07,23.07,0,0,1-2.55,2.77C379.55,381,367.36,388.89,361.59,390.9Z" style="fill:#37474f"></path><path d="M360.24,393.48a.57.57,0,0,0,.36-.11.53.53,0,0,0,.11-.76c-1.56-1.94-9.06-6.67-13.28-6.36a.55.55,0,0,0-.52.58.56.56,0,0,0,.61.5c3.94-.28,11.06,4.4,12.29,5.94A.61.61,0,0,0,360.24,393.48Z" style="fill:#263238"></path><path d="M365.31,390.7a.61.61,0,0,0,.36-.11.52.52,0,0,0,.1-.76c-1.55-1.94-9.06-6.67-13.27-6.36a.54.54,0,0,0-.52.58.56.56,0,0,0,.61.5c3.93-.27,11.05,4.4,12.29,5.94A.58.58,0,0,0,365.31,390.7Z" style="fill:#263238"></path><path d="M370.37,388.08a.6.6,0,0,0,.36-.12.52.52,0,0,0,.1-.76c-1.55-1.94-9.06-6.67-13.27-6.35a.55.55,0,0,0-.52.58.57.57,0,0,0,.61.5c3.94-.28,11.06,4.39,12.29,5.93A.59.59,0,0,0,370.37,388.08Z" style="fill:#263238"></path><path d="M375.08,385a.53.53,0,0,0,.36-.11.52.52,0,0,0,.1-.76c-1.55-1.94-9.07-6.66-13.27-6.36a.55.55,0,0,0-.52.58.57.57,0,0,0,.61.51c3.93-.28,11.05,4.39,12.29,5.93A.52.52,0,0,0,375.08,385Z" style="fill:#263238"></path><path d="M379.69,382a.59.59,0,0,0,.36-.11.51.51,0,0,0,.11-.75c-2.13-2.75-10-6.76-14.23-6.45a.54.54,0,0,0-.52.58.56.56,0,0,0,.61.5c3.79-.27,11.34,3.57,13.24,6A.57.57,0,0,0,379.69,382Z" style="fill:#263238"></path><path d="M432.12,379l-3.68-17.93,20.17-2.91,1.05,17.14s2.18,6.16.85,8.4-15.53,4.6-16.83,3.11S432.12,379,432.12,379Z" style="fill:#ffa8a7"></path><path d="M433.79,417.72c.62,5.51,1.75,9.07,4.07,12s6.47,3.49,10.57,2,9.28-4.69,10.24-9.63.56-8.19-.62-13.22Z" style="fill:#263238"></path><path d="M449.66,375.29c1.71-.09,1.27,7.45,2.61,14.79,1.44,7.87,4.23,10.85,5.49,17.29,1.43,7.36,1.16,10.76-1.51,15.66s-12.7,10.62-18.06,4.77c-4.37-4.78-4.82-10.62-4.8-18.15,0-7.79.1-13.27-.53-19.1-.6-5.57-2.19-10.53-.73-11.34.15.81.31,1.84.47,2.64.13.61.44,3.63,1.4,3.53a11.46,11.46,0,0,0-.08-2.11,2.44,2.44,0,0,1,.38-1.87,7.78,7.78,0,0,1,2.75-1.44c1.67-.51,4.65-1.15,6.35-1.5.84-.18,1.7-.32,2.55-.42a7.24,7.24,0,0,1,2.18,0,1.33,1.33,0,0,1,1,.64,2.4,2.4,0,0,1,.13.85,5.18,5.18,0,0,0,.29,1.51c.07.21.25.46.49.38a.48.48,0,0,0,.26-.49c0-.91-.2-1.55-.29-2.59-.05-.49-.17-1.14-.2-1.63S449.71,375.76,449.66,375.29Z" style="fill:#455a64"></path><path d="M457.27,405.29c.22,1.06,1.57,8.09-.52,9.65-2.26,1.69-3.8-3.78-3.8-3.78s-5.52-.83-13.3,3.32c.46,1.11-.58,5.09-2.8,4.55s-3.44-8.63-3.46-8.74c0,7.22.56,12.87,4.8,17.51,5.36,5.85,15.38.12,18.06-4.77s2.94-8.3,1.51-15.66C457.61,406.64,457.45,406,457.27,405.29Z" style="fill:#37474f"></path><path d="M452.35,411.72c.17,2.7,3.07,1.42,3-2.42s-2.79-12.63-3.09-19.22c-.49-9-.9-14.88-2.61-14.79,0,.09,0,.18,0,.27l.4,3.77a15.84,15.84,0,0,1,.18,1.61c.31,5.52.38,16.25,1.14,21.23A77.92,77.92,0,0,1,452.35,411.72Z" style="fill:#37474f"></path><path d="M440.56,414.29a80.52,80.52,0,0,1-2.08-9.3c-.83-4.94-3.71-14.82-5.14-20.13a12.34,12.34,0,0,1-.74-3c-.15-.74-.3-1.68-.44-2.47a.75.75,0,0,1,0-.16c-1.05.6-.69,4.88-.13,7.1s1.23,4.59,1.92,7.76c1.78,6.27,1.94,15.67,3.09,19.27S441.25,416.88,440.56,414.29Z" style="fill:#37474f"></path><path d="M439.49,414.72a.92.92,0,0,0,.23-.09,22.91,22.91,0,0,1,13.09-2.89.72.72,0,0,0,.76-.51.53.53,0,0,0-.48-.65,24.1,24.1,0,0,0-14,3.1.58.58,0,0,0-.23.81A.62.62,0,0,0,439.49,414.72Z" style="fill:#263238"></path><path d="M437.78,409l.21-.08a28.47,28.47,0,0,1,14.66-3.23.7.7,0,0,0,.74-.53.53.53,0,0,0-.51-.63A29.49,29.49,0,0,0,437.39,408a.58.58,0,0,0-.26.8A.62.62,0,0,0,437.78,409Z" style="fill:#263238"></path><path d="M452,400.17a.68.68,0,0,0,.52-.45.52.52,0,0,0-.43-.68c-7.77-1.4-15.16,3.09-15.48,3.28a.59.59,0,0,0-.23.81.67.67,0,0,0,.87.14c.07,0,7.26-4.4,14.48-3.09A.62.62,0,0,0,452,400.17Z" style="fill:#263238"></path><path d="M451.28,395a.71.71,0,0,0,.52-.44.53.53,0,0,0-.42-.69c-8.55-1.68-15.5,3.08-15.79,3.28a.57.57,0,0,0-.18.81.66.66,0,0,0,.88.09c.07-.05,6.75-4.61,14.71-3A.87.87,0,0,0,451.28,395Z" style="fill:#263238"></path><path d="M450.48,389.11a.69.69,0,0,0,.51-.44.52.52,0,0,0-.4-.69c-8-1.69-15.58,3.24-15.9,3.45a.58.58,0,0,0-.2.82.65.65,0,0,0,.88.1c.07-.05,7.38-4.81,14.82-3.24A.71.71,0,0,0,450.48,389.11Z" style="fill:#263238"></path><path d="M438.06,191.65c3.42,43.57,5.5,103.25,5.5,103.25.3,3.3,2.55,9,4.13,25.29,1.66,17.22,1.39,41.53,1.39,41.53s-11.26,6.49-20.56,3.28c0,0-10.5-38.1-15.34-58.38-4.57-19.19-9.26-48.54-9.26-48.54L398.49,287s.68,12.42.36,21.11c-.37,10.12-6,48.83-6,48.83s-11.54,7.42-21.21-.3c0,0-4-56.73-4.29-68.89-.61-23.86-1.61-70.18,1.28-101Z" style="fill:#37474f"></path><path d="M403.92,258.08l-4.89-31s-11.26-1.67-17-7.09c0,0,3.74,7.18,14.37,9.95l4.85,28.21L398.49,287Z" style="fill:#263238"></path><path d="M449.34,362.2c-2.32,3.26-12.65,6.54-21,3.61L426.69,359c6.28,2.06,17.39.19,22.5-4.06Z" style="fill:#455a64"></path><path d="M392.87,357.72c-2.82,2.78-13.53,4.41-21.24,0l-.57-6.87c5.85,3.17,16.94,3.31,22.67.05Z" style="fill:#455a64"></path></g><g id="freepik--Top--inject-149"><g id="freepik--Arm--inject-149"><path d="M323.85,107.78c3.14,4.68,14.6,18.84,14.6,18.84s16.09-12.25,19.48-14.9c9.67-7.57,16.92-12.74,25.49-10.15L380.21,127c-8.82,6.7-29.8,17.2-38.87,22.69-4.75,2.87-9,1-12.24-2.44-6.68-7.19-18.56-33.59-18.56-33.59Z" style="fill:#ffa8a7"></path><path d="M382.22,100.84c-5.14-1.14-9.42.23-13.57,2.7s-30.33,22.66-30.33,22.66l-5.58-6.94s-.86,4.65-6.44,8.29a19.57,19.57,0,0,1-7.76,2.64s3.83,8.21,6.91,13.9c2.13,3.94,5.94,9.16,9.54,9.51s6.85-.51,17.26-6.45C364.84,140,380,132.07,380,132.07Z" style="fill:#e0e0e0"></path><path d="M338.32,126.2a22.71,22.71,0,0,1,4.81,11.22A18.23,18.23,0,0,0,339.82,125Z" style="opacity:0.1"></path><path d="M327.37,112.56c-4.11-5.61-6.33-9.93-5-15.06s2.77-7.58,2.67-8.85-2.74-7.24-3.21-9.93-1.63-2.78-3.48-4.2c-2.21-1.71-11.58-6.74-11.86-6a4.3,4.3,0,0,0,.83,5.09c1.51,1.59,6.51,4.55,6.51,4.55s-2.3,1.64-3.37,2.3-1.11,1.44-.7,4.65a2.91,2.91,0,0,0-2,1.23,6.58,6.58,0,0,0-.29,3.25,3,3,0,0,0-1.62,1c-.65.8-.5,3.45-.05,5.77a33.43,33.43,0,0,0-.71,8.12c.19,2.83,1.58,4.3,3.15,6,1.05,1.11,3.51,5.82,4.49,7.63C312.77,118.07,331.12,117.7,327.37,112.56Z" style="fill:#ffa8a7"></path><path d="M321.92,88.88a9.88,9.88,0,0,1-2.35-6c0-2.17.09-4.56-.57-4.76-1.11-.34-3.81,1.26-4.08,4.79-.26,3.36.28,7.51.14,8.48s-1.51,2.95-2.63,4.45a9.16,9.16,0,0,0,.38,10.48,8.49,8.49,0,0,1-2.92-5.58c-.6-4,2.48-7,3.37-8.59s1.06-1.92.78-5.13-.6-6.68,2.43-9,3.72-.62,3.86.45S319.55,85.92,321.92,88.88Z" style="fill:#f28f8f"></path><path d="M313.86,78.18l1.81,1.58-.81.37a2.82,2.82,0,0,0-2.95-.59Z" style="fill:#f28f8f"></path><path d="M309.79,85.13c.11,1.06.63,4.34.72,5s1.29.77,2.26-.19a4.45,4.45,0,0,0,1.48-2.89,4.77,4.77,0,0,1-1.06,3.25c-1.19,1.28-2.31,1.19-2.92.82S310,87.4,309.79,85.13Z" style="fill:#f28f8f"></path><path d="M307.51,89.61c.07.8.34,1.88.57,4.08.13,1.27.17,2.09.91,2.19s2.38-1.09,2.58-2.55a11,11,0,0,0,.07-2.54l.63-.1a8.43,8.43,0,0,1-.42,4c-.74,1.62-2.73,2.52-3.35,1.88s-.68-1.35-.79-3.19S307.51,89.61,307.51,89.61Z" style="fill:#f28f8f"></path><path d="M308.4,95.9c0,.52-.56,1.57-1.39,1.38a1.82,1.82,0,0,1-1.17-.91A1.55,1.55,0,0,0,307,97.75c1,.21,1.73-.68,2.11-1.49Z" style="fill:#f28f8f"></path></g><path d="M439.32,108.06s3.79,2.42,3.79,9.42c0,2.77-.2,9.46-3.27,22.26-2.78,11.6-2.9,16.79-3.6,25l5,30c-8.7,9.74-53.71,13.43-73.2-.39,0,0,2.88-53,4.65-69.88,1.21-11.46,7-20.42,11-23.86,5.4-.81,7.2-.94,10.65-1.38l20.2-2.06Z" style="fill:#455a64"></path><g id="freepik--Tie--inject-149"><path d="M394.39,117.35s-3.39-5.88-3.47-8.27l3.74-4.13,1.48,9.74Z" style="fill:#263238"></path><polygon points="399.33 114.71 405.78 109.98 411.42 113.49 401.46 119.03 399.33 114.71" style="fill:#263238"></polygon><path d="M401,178c1.22-13.64-2.07-50.77-1.88-55.61l-3.38-.21c-2.13,5.87-7.38,44.25-7.38,53.61,0,4.51,4.55,12.41,6,12.67S400.76,180.87,401,178Z" style="fill:#37474f"></path><path d="M395.49,123c.08-.27.19-.62.27-.84h0l3.38.21h0c0,.41,0,.92,0,1.51A5.81,5.81,0,0,1,395.49,123Z" style="fill:#263238"></path><path d="M399.33,114.71a14.22,14.22,0,0,0-3.19,0,7.57,7.57,0,0,0-1.75,2.66,11.47,11.47,0,0,0,1.37,4.8,4,4,0,0,0,3.38.21,7,7,0,0,0,2.32-3.33A6.38,6.38,0,0,0,399.33,114.71Z" style="fill:#37474f"></path><path d="M398.77,114.64l.56.07a21.15,21.15,0,0,1,3.95-3.42c.93-.45,4.61,6.19,5.29,7.91s.55,1.71,2.93.24a45.53,45.53,0,0,0,10.88-9.82,29.15,29.15,0,0,0,5.06-8.77,33.51,33.51,0,0,1-3.86-4.63c-1.42-2.75-2.46-4.89-4-4.7l0,2.56c-.34,2.35-2.75,4.73-6.14,7.46s-8.8,5.27-10.1,6.45A47.77,47.77,0,0,0,398.77,114.64Z" style="fill:#37474f"></path><path d="M387.77,114.51c.34,1,3.64-6.45,5.14-6.25.72.09,2.5,4.18,3.77,6.38h.24c-.23-2.9-.5-5.37-.48-6.89,0-2.79.6-7.54.6-7.54V94l-1.51.1a6.65,6.65,0,0,0-1.13,1.34c-1.54,2.35-5.55,7.78-6.12,10.64A25.31,25.31,0,0,0,387.77,114.51Z" style="fill:#37474f"></path></g><path d="M419.57,94.86l.08,1.78s2,5.4-1,15.82-9.37,24.17-9.45,34.64,5.89,134.84,5.89,134.84,28.32-.44,36.61-11.89c-.28-8.91-8.25-64-9.65-85.66-.65-10.1,3.57-24.48,4.85-40.48,1.46-18.34-2.94-37.14-2.94-37.14a56.05,56.05,0,0,1-15.34-5.46C422.21,97.72,419.57,94.86,419.57,94.86Z" style="fill:#f0f0f0"></path><path d="M419.55,89c3.26,0,6.81,11.07,9,12.29,1.07,7.39-1.25,21.06-1.51,25.45s-8.34,10.11-8.34,10.11l6.62,11.71s-15.11,21.79-14.91,33.26c0,0-2.88-27.43-1.48-39.68s10.69-25.95,10.69-43.93C419.65,95.19,419.55,89,419.55,89Z" style="fill:#e0e0e0"></path><path d="M398.3,94.64v3A28.9,28.9,0,0,0,388,110.85c-3.14,8.61-6.92,22.66-7.75,45.41-1.67,46.13-1.82,124.08-1.82,124.08s-10.49-1.27-16.31-6.27c0,0,1-63.27,1.82-88.53,1-30.13,2.93-52.77,4.89-65,2.15-13.41,5.09-17.4,8.47-20C382.25,99.81,396,97.38,398.3,94.64Z" style="fill:#f0f0f0"></path><path d="M397,94v4.74a22.1,22.1,0,0,0-6,7.08c-2.26,4.39-5.09,8.74-7.42,22.29s-3.47,36.58-4,45.4c-1.18-3.66-5.93-31.67-6.2-34.18s5.94-10.45,5.94-10.45-2.55-6.28-1.54-9.13a139.37,139.37,0,0,1,10.61-19.55,23.82,23.82,0,0,1,5.9-6C396.05,94.1,397,94,397,94Z" style="fill:#e0e0e0"></path><path d="M382.14,62.77l-.15-.19a18.19,18.19,0,0,1-2-3.66c-1.12-2.51-3.55-10.1,1.28-10.54-1.05-1.11-2.6-3.34-.88-4.59,1.43-1,3.62-.16,5.25-.22a7.49,7.49,0,0,1-1.76-2.23,6.09,6.09,0,0,1-.64-2.61c.87.15,1.69.51,2.56.69a22.94,22.94,0,0,0,6.62,0c2.48-.22,4.82-1.11,7.29-1.36a47,47,0,0,1,7.31-.11c8.08.45,16.05,3.76,17.61,12,6.51,1.9,5.83,12.57,4.24,17.29-3.22,9.56-9.62,17.91-9.7,22.79l-2.05-1.5-10.33-7.52-13.35-9.72-5.79-4.21C385.83,65.79,383.58,64.57,382.14,62.77Z" style="fill:#263238"></path><path d="M382.66,85.06c1.3,4.6,3.39,8.31,7.65,9A35.67,35.67,0,0,0,397,94v6.19c-1.07,2.63-1.23,8.44-.12,14.43a4,4,0,0,0,2.16.05c5.22-7.64,16.95-9.28,20.58-14.61l-.19-18.95s2.63,2.95,6.91.12a9.36,9.36,0,0,0,2.85-11.5c-2.15-4.48-6.41-2.6-7.72-1.22s-2.82,4-3.91,3.6a4,4,0,0,1-2.66-2.69,24,24,0,0,1-1.45-8.71,9.6,9.6,0,0,1-3-2.34c-1.85-2-2-4.47-2.1-6.68-9.23-2.83-21.12-1.81-24.93,1.18-1.52,3-2.23,12.28-2.25,18C381.17,77.26,381.56,81.21,382.66,85.06Z" style="fill:#ffa8a7"></path><path d="M397,94c4.72-.29,14.18-2.55,16.69-5.19s3.55-8,3.55-8-.34,6.8-2.27,9.82-6.86,4.34-9.85,5.11A71.94,71.94,0,0,1,397,97Z" style="fill:#f28f8f"></path><path d="M400,67.9a1.95,1.95,0,1,0,1.94-2A2,2,0,0,0,400,67.9Z" style="fill:#263238"></path><path d="M384.43,63.27l4.72-.8a2.3,2.3,0,0,0-2.67-2A2.52,2.52,0,0,0,384.43,63.27Z" style="fill:#263238"></path><path d="M400.79,62.47l4.57,1.45a2.31,2.31,0,0,0-1.47-3A2.52,2.52,0,0,0,400.79,62.47Z" style="fill:#263238"></path><path d="M385.16,67.61a1.95,1.95,0,1,0,1.94-2A2,2,0,0,0,385.16,67.61Z" style="fill:#263238"></path><path d="M396,63.27l-1.32,14L387.11,75C389.36,69.82,392.25,65.78,396,63.27Z" style="fill:#f28f8f"></path><path d="M400.83,80.23a3.49,3.49,0,1,1-6.44,2.68Z" style="fill:#b16668"></path><path d="M400.28,82.1A3.38,3.38,0,0,0,396.94,85a3.42,3.42,0,0,0,2-.2A3.47,3.47,0,0,0,401,82.2,3.23,3.23,0,0,0,400.28,82.1Z" style="fill:#f28f8f"></path><path d="M412.34,107.09l-.73-.84c7.49-6.53,13-16.78,13.59-18.1,0,0,1.39-4,.23-10.46l1.1-.2c1.22,6.83-.23,10.91-.29,11.08C425.53,90.2,420,100.41,412.34,107.09Z" style="fill:#455a64"></path><path d="M397,94c0,.31,0,.63,0,1l-.6,1.12a2.15,2.15,0,0,0-1-.46c.32-.64.59-1.12.87-1.61Z" style="fill:#455a64"></path><path d="M426.59,74.21h0a2.53,2.53,0,0,0-2.24-1.45,2.56,2.56,0,0,0-.48,5.08h0s1,0,1.32,1.48a9.73,9.73,0,0,1,.29,2.82,1.48,1.48,0,0,0,1.8-.39C427.67,79.78,427.35,75.49,426.59,74.21Z" style="fill:#37474f"></path><path d="M358.26,141.64a45.08,45.08,0,0,1-22.5-6.23c-17-9.8-22.82-32.68-23-42.22l2,0c.16,9.17,5.74,31.14,22,40.52,10.07,5.8,21.31,7.44,31.65,4.6,10.17-2.79,18.56-9.61,24.25-19.74l1.74,1c-6,10.6-14.76,17.76-25.46,20.69A40.24,40.24,0,0,1,358.26,141.64Z" style="fill:#90CAF9"></path><path d="M418.86,101a106.39,106.39,0,0,1-9.37,9.9c-2.3,1.87-8.57,6.77-13,8.58a7.76,7.76,0,0,1-2.72.68,2.9,2.9,0,0,1-.75-.1c-.77-.26-3.1-1-2.4-14.11.12-2.3,3.45-8.8,4.12-10.07a.62.62,0,0,1,.65-.21,2.15,2.15,0,0,1,1,.46c.28.25.44.53.3.77-1.45,2.8-3.78,7.75-3.86,9.17-.35,6.69.19,11.3.93,11.89.47.15,1.55-.24,3-1A78.54,78.54,0,0,0,408,109.22a108.7,108.7,0,0,0,9.08-9.6C417.72,99,419.28,100.44,418.86,101Z" style="fill:#90CAF9"></path><path d="M318.45,86.92a7.5,7.5,0,0,0-2.31-6.35,2,2,0,0,0-2-.44l-2.65,1.1a2.78,2.78,0,0,0-1.41,2.36,7.5,7.5,0,0,0,2.31,6.35,2,2,0,0,0,2,.44l2.65-1.1A2.76,2.76,0,0,0,318.45,86.92Z" style="fill:#263238"></path><path d="M315.8,88c-.31,2.29-1.84,3.15-3.42,1.93a7.5,7.5,0,0,1-2.31-6.35c.31-2.28,1.84-3.15,3.42-1.93A7.51,7.51,0,0,1,315.8,88Z" style="fill:#263238"></path><path d="M316.55,89.89c.57-4.19-1.33-9.4-4.22-11.63a3.7,3.7,0,0,0-3.69-.8l-1.7.7c-1.29.54-2.26,2-2.57,4.33-.56,4.19,1.33,9.39,4.23,11.63a3.68,3.68,0,0,0,3.68.8l1.69-.7C315.27,93.69,316.25,92.18,316.55,89.89Z" style="fill:#37474f"></path><path d="M314.86,90.58c-.56,4.19-3.36,5.77-6.26,3.54s-4.79-7.44-4.23-11.63,3.37-5.77,6.26-3.54S315.42,86.4,314.86,90.58Z" style="fill:#455a64"></path><path d="M313.7,89.68c-.44,3.26-2.62,4.49-4.88,2.75s-3.72-5.78-3.28-9,2.61-4.49,4.87-2.75S314.13,86.43,313.7,89.68Z" style="fill:#e0e0e0"></path><path d="M319.9,82.28c-.23-2.15-.1-4.54-1-4.68-1.15-.18-3.67,1.63-3.6,5.16.07,3.37,1.06,7.45,1,8.43l6.52-3.2A9.93,9.93,0,0,1,319.9,82.28Z" style="fill:#ffa8a7"></path><g id="freepik--arm--inject-149"><path d="M376.1,173.12a10.05,10.05,0,0,1,2.09.48c.75.23,1.44.5,2.22.68s1.63.35,2.45.49c1.16.21,2.31.47,3.47.61a25.89,25.89,0,0,0,6.64-.08c.7-.1,1.4-.23,2.09-.38.33-.08.72-.26.68-.59a.66.66,0,0,0-.34-.42c-.86-.59-1.83-1-2.73-1.53a6,6,0,0,1-2.3-2.07c-.38-.63-.88-2.41-.08-3,.61-.41,1.83.3,2.39.54a22.72,22.72,0,0,0,3.66,1.29c1.36.32,2.76.42,4.13.72a14.35,14.35,0,0,1,4.95,2.14c1.41,1,2.67,2.14,4.17,3,2.84,1.59,7.41,1.25,11.52.65,8.42-1.21,23.35-5.57,23.35-5.57l-2.12-29c-1.91-8.64.49-29,5.21-31.77,2.05.66,7.54,1.11,12.07,8.31,2.48,3.93,3.7,13.43,5.13,29.48,1,11.41,1.87,18.45,1.81,28.77-.06,11.48-4.79,14.53-15.17,14.92-17.36.66-33.53.51-37.35.51s-7.52-.11-10.86-.41c-1.71-.15-3.42-.49-5.13-.55a11.05,11.05,0,0,1-6.2-1.82c-2.23-1.64-3.57-4.54-6.19-5.44a16.82,16.82,0,0,1-2.38-.72c-1.29-.67-1.91-2.1-2.91-3.08a14.46,14.46,0,0,0-2.15-1.49l-2.42-1.59a12.77,12.77,0,0,1-1.68-1.24,1.68,1.68,0,0,1-.41-.51C373.12,173.25,375.38,173.05,376.1,173.12Z" style="fill:#ffa8a7"></path><path d="M443.92,106.77c13.53,2.57,16.1,6.92,17.52,12.52,1.9,7.51,3.38,19,5.26,37.52,1.42,14,1.13,21.27.78,24.23s-.92,8.65-10.71,10.08c-7.31,1.07-24.75.57-24.75.57s4.06-10.73-1.24-18l13.28-3.86-5.56-30S435.23,114.26,443.92,106.77Z" style="fill:#e0e0e0"></path><path d="M444.06,169.86s9.36-2.18,13.5-.66c0,0-3.62-3.29-14-2Z" style="opacity:0.1"></path></g></g></g></g></svg>