<svg xmlns="http://www.w3.org/2000/svg" viewBox="0 0 500 500"><g id="freepik--City--inject-3"><path id="freepik--city--inject-3" d="M32.76,145.14V324.77H469.35V171.24l-15.59-9V127.76l-15.6-9-27.28,15.75V102.26L391.39,91l-23.55,13.62v39l-19.33-11.13V113.38L329,102.13l-46.78,27V136l-17,9.76-14-8.3-15.74,9.13V110.67L212.07,97.16l-15.59,9v33.71l-15.59-9-29.32,16.93v-20.2L134.11,117.5l-19.49,11.25v16.12l-7.8,4.5V133.89L87.33,122.63v-22.5l-15.59-9-15.59,9v45l-11.7-6.75Z" style="fill:#f0f0f0"></path></g><g id="freepik--Floor--inject-3"><path id="freepik--floor--inject-3" d="M84.58,254.82c-91.36,52.75-91.36,138.27,0,191s239.49,52.74,330.84,0,91.36-138.27,0-191S175.93,202.08,84.58,254.82Z" style="fill:#fafafa"></path></g><g id="freepik--Plants--inject-3"><g id="freepik--plants--inject-3"><path d="M104.64,387l7.25-6.72s.29-21.75-5.9-39.86c-8.7-25.47-28.1-31.39-34.12-27.66S65.68,324.47,80,337.56C88.46,345.28,100.63,362.61,104.64,387Z" style="fill:#0487D9"></path><g style="opacity:0.65"><path d="M104.64,387l7.25-6.72s.29-21.75-5.9-39.86c-8.7-25.47-28.1-31.39-34.12-27.66S65.68,324.47,80,337.56C88.46,345.28,100.63,362.61,104.64,387Z" style="fill:#fff"></path></g><path d="M105.8,376h-.08a.61.61,0,0,1-.62-.58c-.88-25.1-15.42-50.24-28.39-59.13a.6.6,0,0,1-.15-.83.6.6,0,0,1,.83-.15c13.2,9,28,34.6,28.9,60.07A.6.6,0,0,1,105.8,376Z" style="fill:#fff"></path><path d="M86.4,403.82c-1.1.92-5.06-1.16-6.14-1.64a12,12,0,0,1-4.67-3.79A11.21,11.21,0,0,1,73.47,392a27.8,27.8,0,0,1,.23-3.64c.12-1.19.25-2.38.38-3.57a8.64,8.64,0,0,0-.1-3.51c-.7-2.27-3-3.54-5.16-4.61-2.35-1.19-4.86-2.87-5.34-5.66a10,10,0,0,1,1.44-6.29c1-1.92,2.37-3.69,3.27-5.69a7,7,0,0,0,.65-4.59,7.29,7.29,0,0,0-1.42-2.55c-1.31-1.65-2.9-3.09-3.92-4.93s-1.35-4.28-.07-5.95c1.06-1.37,2.89-1.85,4.6-2a11.24,11.24,0,0,1,4.75.79c4.87,1.69,8.32,6.51,13.36,7.59a49.14,49.14,0,0,0,6,.4c2,.17,4.08.8,5.26,2.4,2.33,3.15-.14,8,1.72,11.42,1.64,3.05,5,3.75,7.29,6.36a7.07,7.07,0,0,1,1.57,4.1,20.88,20.88,0,0,1-.54,7.49,65.82,65.82,0,0,1-2.75,7.44S86.57,403.68,86.4,403.82Z" style="fill:#0487D9"></path><g style="opacity:0.30000000000000004"><path d="M86.4,403.82c-1.1.92-5.06-1.16-6.14-1.64a12,12,0,0,1-4.67-3.79A11.21,11.21,0,0,1,73.47,392a27.8,27.8,0,0,1,.23-3.64c.12-1.19.25-2.38.38-3.57a8.64,8.64,0,0,0-.1-3.51c-.7-2.27-3-3.54-5.16-4.61-2.35-1.19-4.86-2.87-5.34-5.66a10,10,0,0,1,1.44-6.29c1-1.92,2.37-3.69,3.27-5.69a7,7,0,0,0,.65-4.59,7.29,7.29,0,0,0-1.42-2.55c-1.31-1.65-2.9-3.09-3.92-4.93s-1.35-4.28-.07-5.95c1.06-1.37,2.89-1.85,4.6-2a11.24,11.24,0,0,1,4.75.79c4.87,1.69,8.32,6.51,13.36,7.59a49.14,49.14,0,0,0,6,.4c2,.17,4.08.8,5.26,2.4,2.33,3.15-.14,8,1.72,11.42,1.64,3.05,5,3.75,7.29,6.36a7.07,7.07,0,0,1,1.57,4.1,20.88,20.88,0,0,1-.54,7.49,65.82,65.82,0,0,1-2.75,7.44S86.57,403.68,86.4,403.82Z" style="fill:#fff"></path></g><path d="M97,394.79h0a.57.57,0,0,1-.64-.48c-2.91-22.11-17.47-44.53-26.22-50.25a.56.56,0,1,1,.62-.94c8.92,5.84,23.76,28.63,26.72,51A.56.56,0,0,1,97,394.79Z" style="fill:#fff"></path><path d="M88.84,368.59a.48.48,0,0,1-.17,0,75.46,75.46,0,0,0-16.37.21.56.56,0,0,1-.63-.48.54.54,0,0,1,.49-.63,76.63,76.63,0,0,1,16.66-.21.56.56,0,0,1,.48.63A.55.55,0,0,1,88.84,368.59Z" style="fill:#fff"></path></g><g id="freepik--plants--inject-3"><path d="M387.92,391s-3.76-30.18,8.19-59c6.68-16.13,17.75-23.24,24.38-23.66,7.42-.47,14.57,6.85,7.54,17.36-6.69,10-18.9,13.62-27.15,40.1-5.43,17.46-5.24,29.17-5.24,29.17Z" style="fill:#0487D9"></path><path d="M387.92,391s-3.76-30.18,8.19-59c6.68-16.13,17.75-23.24,24.38-23.66,7.42-.47,14.57,6.85,7.54,17.36-6.69,10-18.9,13.62-27.15,40.1-5.43,17.46-5.24,29.17-5.24,29.17Z" style="fill:#fff;opacity:0.5"></path><path d="M392.84,383.59a.45.45,0,0,0,.43-.49c-1.72-32.92,15.3-59.61,27.93-68.06a.47.47,0,0,0,.13-.64.48.48,0,0,0-.65-.13c-12.81,8.57-30.07,35.6-28.33,68.88A.47.47,0,0,0,392.84,383.59Z" style="fill:#fff"></path><path d="M395.64,394.9c1.43-7.49,5.95-15,15.26-22.83s22-14.73,20.5-22.11-11.25-6.35-18.26-2.69-23.11,18.8-21.36,45.66Z" style="fill:#0487D9"></path><path d="M395.64,394.9c1.43-7.49,5.95-15,15.26-22.83s22-14.73,20.5-22.11-11.25-6.35-18.26-2.69-23.11,18.8-21.36,45.66Z" style="fill:#fff;opacity:0.65"></path><path d="M394.17,386.38a.45.45,0,0,0,.43-.4c2-15.87,21.38-34.91,30-37.55a.45.45,0,0,0,.31-.57.45.45,0,0,0-.58-.31c-9,2.76-28.52,21.82-30.65,38.31a.46.46,0,0,0,.4.52Z" style="fill:#fff"></path></g></g><g id="freepik--Shadows--inject-3"><ellipse id="freepik--Shadow--inject-3" cx="152.06" cy="410.9" rx="67.73" ry="39.1" style="fill:#e0e0e0"></ellipse><ellipse id="freepik--shadow--inject-3" cx="346.16" cy="406.21" rx="74.97" ry="43.28" style="fill:#e0e0e0"></ellipse></g><g id="freepik--character-2--inject-3"><g id="freepik--Character--inject-3"><g id="freepik--Arm--inject-3"><path d="M297.18,210.66a1.86,1.86,0,0,1,2,1.07c.3-.19.49-.55.83-.63s.78.28,1,.64a7.9,7.9,0,0,1-.68,9.26,1.34,1.34,0,0,1-.47.38,1.38,1.38,0,0,1-.7,0,15.61,15.61,0,0,1-3.63-.86,4.07,4.07,0,0,1-2.75-2.32,4.6,4.6,0,0,1,.32-2.65,6.92,6.92,0,0,1,1.73-3.06C295.41,212,296.38,210.8,297.18,210.66Z" style="fill:#9a4a4d"></path><path d="M287.81,185.4c-8.57-12.25-8.37-14.68-5-21.1,1.85-3.49,10.53-15.76,19.25-28,8.49-11.94,16.46-13,22.72-14l-3,27-17.34,24s9.45,19.7,11.15,25.24c2.45,8,.49,17.91-6,22.51s-8.08,5.12-13,3.71-6.11-2-6.44-3.68c-.82-4.22-1.43-4.79,1.27-7,1.54-1.24,2.86-2.49,3.69-3a.72.72,0,0,1,1,.31c1.2,2.45-2.35,5.63-2.35,5.63a19.85,19.85,0,0,1,4.75,2c1-4.3.18-6.85,1.22-9.05.66-1.4,1.86-3.76,1-5C298.86,202.21,293.15,193.05,287.81,185.4Z" style="fill:#b16668"></path><path d="M304.42,173.31c-3.53,2.77-8.62,2.46-11,1.71a11.2,11.2,0,0,0,11.74-.31" style="fill:#9a4a4d"></path><path d="M325.56,121.69c-7.85,1.22-15.14,2.5-21.42,10.92-4.34,5.81-20.65,28.68-22.66,33.28s-1.89,7.28,2.41,14c4.51,7.06,7.53,11.16,7.53,11.16s4.57-4.24,18.62-5.74l-5.14-11.82L325.56,145Z" style="fill:#455a64"></path><path d="M304.9,173.51c-2.12,2.74-9.94,2.92-13.11,2.05,4,3.3,11.22,2.58,13.86-.29Z" style="fill:#37474f"></path></g><g id="freepik--Bottom--inject-3"><path d="M313.74,361.26c.77,9.63,1.27,16.78,1.13,18.44-.51,6-3.63,9.7-6,12.17-5,5.16-8.61,7.21-14.87,11.66.83,2.38,13.72,2.62,17.42.91a133.69,133.69,0,0,0,15.6-8.68c5.14-3.62,7.43-7.68,7.66-13.39,0-.71-.27-4.31-.31-4.63.07-1.33.64-7.8,1.69-16.71Z" style="fill:#b16668"></path><path d="M389.53,380.31l.49-22.69-24.31,2.29,5.17,21.72s2.55,30.72,3.75,35.71c3.88,16.11,16.95,9.61,18.5,1.07C394.17,412.73,389.53,380.31,389.53,380.31Z" style="fill:#b16668"></path><path d="M281.22,411.15c-.35,0-.74,3.83,1.18,5.39,2.21,1.8,8.64,4.67,17,3.31s12.78-4.1,16-7,7.82-7,11.58-8c3.49-.9,9.15-3.07,10.24-4.2s.78-6,.78-6Z" style="fill:#263238"></path><path d="M334.34,377.74a2.62,2.62,0,0,1,1.4,1.61c.3,1.33.36,3,1,5.22.86,3,1.57,9.26,1.19,11.76s-7.95,4.87-11.57,6.39-7.93,4.63-11.63,7.9-12,6.92-17.45,7.17c-8.32.39-13.78-1.7-15.54-4.65-2.18-3.65-1.28-7.54,8.15-12.3,1.78-.9,8-4.89,10.15-6.33a48.51,48.51,0,0,0,6.36-5.08,38.14,38.14,0,0,0,2.83-3,13.36,13.36,0,0,0,2.32-3.19c.1-.25.17-.55.26-.82a15,15,0,0,0,.55-2.27c.13-.8.19-2,.93-2.48s12.7,1.47,13.58,2.77a7,7,0,0,1,.89,3.46c.05.56.05,1.12.07,1.68,0,.24-.07.68.26.57s.64-1,.75-1.25c.25-.63.4-1.31.67-1.94a5.76,5.76,0,0,1,1.12-2.07c1.55-1.4,3.1-1.18,3.55-1.66C334.17,379.24,334.3,378.22,334.34,377.74Z" style="fill:#37474f"></path><path d="M289.36,401.1c12.08.45,15.76,10,16.42,14.61a28.23,28.23,0,0,1-8.51,2.08c-8.32.39-14.13-1.69-15.89-4.64C279.33,409.71,280.92,404.63,289.36,401.1Z" style="fill:#fafafa"></path><path d="M307.08,402.85a.67.67,0,0,0,.37-.15.6.6,0,0,0,.05-.84c-1.74-2-7.31-6.26-11.68-5.64a.59.59,0,1,0,.17,1.17c4.07-.57,9.24,3.66,10.62,5.25A.62.62,0,0,0,307.08,402.85Z" style="fill:#f5f5f5"></path><path d="M312.17,399.64a.59.59,0,0,0,.37-.14.6.6,0,0,0,.06-.84c-1.75-2-7.32-6.27-11.68-5.65a.59.59,0,0,0-.5.67.57.57,0,0,0,.66.5c4.08-.57,9.25,3.66,10.63,5.26A.56.56,0,0,0,312.17,399.64Z" style="fill:#f5f5f5"></path><path d="M316.87,396a.6.6,0,0,0,.37-.15.59.59,0,0,0,.06-.83c-1.75-2-7.34-6.27-11.68-5.65a.59.59,0,0,0,.16,1.17c4.07-.57,9.25,3.66,10.63,5.26A.63.63,0,0,0,316.87,396Z" style="fill:#f5f5f5"></path><path d="M321.48,392.4a.65.65,0,0,0,.36-.14.6.6,0,0,0,.07-.84c-2.41-2.85-8.33-6.29-12.69-5.67a.59.59,0,0,0,.16,1.17c3.93-.56,9.5,2.74,11.63,5.27A.61.61,0,0,0,321.48,392.4Z" style="fill:#f5f5f5"></path><path d="M372.76,420.79c.37,5.6,1.23,9.3,3.16,12.56s5.49,4.24,9.08,3.24,8.19-3.63,9.18-8.46,1.55-8.16.68-13.34Z" style="fill:#263238"></path><path d="M389.53,380.31c1.49-.18,1.17,7.52,2.1,15,1,8,2.14,11.23,3,17.84,1,7.54-.14,10.93-2.61,15.52s-11.33,9.18-15.79,2.69c-3.63-5.29-3.84-11.2-3.59-18.74.26-7.8-.52-13-1.18-18.92-.68-6.08-1.9-11.4-.61-12.05a55.92,55.92,0,0,0,1.31,5.87c.16.42.74,1.46,1-.12.06-.47-.09-1.55,0-2a2,2,0,0,1,1.33-1.83,13.74,13.74,0,0,1,6.31-1.53c2.91-.05,5.42-.18,7,.67,1,.51,1,1.49,1.08,2.44.14,1.14.16,1.84.43,1.61C389.81,386.33,389.53,380.31,389.53,380.31Z" style="fill:#37474f"></path><path d="M395.11,417.56a19.54,19.54,0,0,1-2.66,11.51c-2.47,4.59-12.05,9.2-16.5,2.71-2.22-3.23-2.84-7.07-3.18-11C375.35,415.72,390.92,413.31,395.11,417.56Z" style="fill:#fafafa"></path><path d="M375.93,412.54l.18-.06c.06,0,6.9-3.1,13.61-1.55a.56.56,0,0,0,.66-.44.59.59,0,0,0-.42-.69c-7.1-1.64-14.08,1.51-14.34,1.64a.61.61,0,0,0-.25.78A.55.55,0,0,0,375.93,412.54Z" style="fill:#f5f5f5"></path><path d="M389.33,405.31a.58.58,0,0,0,.47-.4.59.59,0,0,0-.36-.73c-6.68-2.3-14,1.35-14.32,1.51a.59.59,0,0,0-.22.79.54.54,0,0,0,.75.23c.06,0,7.23-3.57,13.45-1.43A.46.46,0,0,0,389.33,405.31Z" style="fill:#f5f5f5"></path><path d="M389,400a.55.55,0,0,0,.46-.38.58.58,0,0,0-.34-.74c-7.35-2.68-14.33,1.3-14.59,1.47a.59.59,0,0,0-.17.8.53.53,0,0,0,.75.18c.06,0,6.81-3.84,13.65-1.36A.5.5,0,0,0,389,400Z" style="fill:#f5f5f5"></path><path d="M388.63,394.78a.53.53,0,0,0,.45-.38.58.58,0,0,0-.33-.74c-6.89-2.62-14.4,1.46-14.68,1.63a.6.6,0,0,0-.2.8.54.54,0,0,0,.76.2c.06,0,7.35-4,13.75-1.54A.52.52,0,0,0,388.63,394.78Z" style="fill:#ebebeb"></path><path d="M381,198c1.53,15.08,1.22,18.8,2.28,52.3,1,32.5,1,37.26,1.21,41.17.42,9,5.55,12.58,6,33.75.38,19.41-.3,43.18-.3,43.18s-3.54,3.27-10.91,3.67a23.26,23.26,0,0,1-11.6-2.3s-9.86-43.5-13-56.87c-3.65-15.74-9.57-43.14-9.57-43.14s-3,24.45-4.09,32.32c-1.06,7.51,1.51,10.44-.1,27.27-1.29,13.41-5.11,35.83-5.11,35.83a23.3,23.3,0,0,1-11,2.65c-8.43-.39-11.09-3.28-11.09-3.28S309,314.4,309,295.21c-.05-20.31.76-67.7,1.13-97.2Z" style="fill:#455a64"></path><path d="M345.13,269.77,340.81,236s-11-3.32-17.79-11c.33,5.58,9.91,13.06,14.48,14.33l5.1,29.95L341,302.09Z" style="fill:#37474f"></path><path d="M360.35,202.51a46.52,46.52,0,0,1,3.84,9,86.42,86.42,0,0,1,2.43,9.43c.62,3.19,1.11,6.4,1.41,9.63a61.82,61.82,0,0,1,.3,9.72c-.66-3.18-1.27-6.34-1.87-9.5s-1.19-6.31-1.84-9.45-1.27-6.27-2-9.4S361.21,205.65,360.35,202.51Z" style="fill:#37474f"></path><path d="M364.53,203.83a35.09,35.09,0,0,1,4.2,5.08,47.49,47.49,0,0,1,3.36,5.67,42.83,42.83,0,0,1,2.48,6.12,26.07,26.07,0,0,1,1.25,6.49l-2.73-5.91c-.93-1.94-1.85-3.87-2.83-5.79s-1.93-3.83-2.89-5.76S365.42,205.86,364.53,203.83Z" style="fill:#37474f"></path><path d="M357.8,241.12c1,10.11,1.93,20.22,2.84,30.32s3,21.29,4.45,31.29,8.66,49.33,9.83,59.41c-2-10-10.25-49.05-11.84-59.11s-3.4-21.32-4-31.46S358.05,251.28,357.8,241.12Z" style="fill:#37474f"></path><path d="M320,240.69,319,267.19c-.15,4.41-.33,8.83-.43,13.24s-.26,8.83-.09,13.18,1.42,46.62,1,55.48c-1.26-9.83-2.56-46.5-3.06-55.4-.18-8.94.38-17.75,1-26.59S318.85,249.46,320,240.69Z" style="fill:#37474f"></path><path d="M336.82,360l-1.25,9.29s-4.62,2.28-12.35,1.78-9.51-3.14-9.51-3.14l-.76-8.8s2.91,2.27,10,2.58C332.07,362.14,336.82,360,336.82,360Z" style="fill:#37474f"></path><path d="M390.59,361.89l-.29,9.27s-3.66,3-11.36,3.72-11.11-2-11.11-2l-1.59-8.19s3.86,1.64,10.91,1A42.84,42.84,0,0,0,390.59,361.89Z" style="fill:#37474f"></path></g><g id="freepik--Top--inject-3"><g id="freepik--Chest--inject-3"><path d="M377.7,123.5s7.45,9.14,7.58,30.65c.06,10.09-3.16,20.89-3.15,32.66,0,11.23,1,26.1,1,26.1-11.61,9.68-62,13.69-73.67-1.14,0,0,.05-17.79.24-36.83.15-14.21,1.36-25.19,2.87-31.92,2.43-10.87,9.91-19.07,13-21.33,9.95-2.48,19.27-3.67,26.45-3.16C364.55,119.41,372,122.07,377.7,123.5Z" style="fill:#f5f5f5"></path><path d="M348.6,119.44h0c1.16,0,2.28,0,3.34.11a103.59,103.59,0,0,1,22.05,4c1.08.3,2.12.59,3.1.84,1.14,1.61,7.05,10.85,7.16,29.74a100.36,100.36,0,0,1-1.48,15.07,120.63,120.63,0,0,0-1.67,17.59c0,9.94.78,22.86.95,25.63-6.1,4.64-22.42,8.09-38.45,8.09-16.25,0-28.29-3.32-33.13-9.12,0-2.64.07-19.13.24-36.46.13-12.66,1.16-24.22,2.84-31.71,2.29-10.22,9.26-18.18,12.45-20.6a97.8,97.8,0,0,1,22.6-3.2m0-1a99,99,0,0,0-23,3.27c-3.1,2.26-10.58,10.46-13,21.33-1.51,6.73-2.72,17.71-2.87,31.92-.19,19-.24,36.83-.24,36.83,5.49,7,19.58,9.79,34.16,9.79,16.37,0,33.37-3.53,39.51-8.65,0,0-1-14.87-1-26.1,0-11.77,3.21-22.57,3.15-32.66-.13-21.51-7.58-30.65-7.58-30.65-5.69-1.43-13.15-4.09-25.69-5-1.09-.08-2.23-.12-3.41-.11Z" style="fill:#e0e0e0"></path></g><g id="freepik--Head--inject-3"><path d="M364.78,68.71s3.66.18,6.19,4.62c1.27,2.24,2.25,6.35-.7,18.25a47.13,47.13,0,0,1-5.43,13.2,5.92,5.92,0,0,1-3.39,2.8l0-9.09.16-6.34s-5.34-4.49-5.93-9c-.74-5.83,1.49-9.21,1.49-9.21Z" style="fill:#263238"></path><path d="M366.05,69c-1.05-5.08-7.84-11-20.62-11.32a24.38,24.38,0,0,0-21.78,11.66c-3.47,6.07,1.82,11.05,1.82,11.05l31.95-2.48Z" style="fill:#263238"></path><path d="M370,100.92c-4.74,2.42-7.05-1.24-7.05-1.24l-.84,21.64c-8.88,12.34-33.51,8-23.68-1.28l.15-6.57a29,29,0,0,1-3.88-.3,11.24,11.24,0,0,1-9.57-7.69,29.43,29.43,0,0,1-1.44-7.57,64.13,64.13,0,0,1,.7-13.48c.56-3.53.44-5.36,1-8.25.44-2.21,1.33-4.63,3.36-5.68,5-2.61,9.87.83,17.06,3.35,3,1.05,10.14,1.35,12,.44-2.4,2.75-2.14,11.22,1.62,14.57a8.08,8.08,0,0,0,1.9,2.29c1.6,1.28,2.77-2.18,4-3.55s6.15-2.69,8.39,1.66A8.45,8.45,0,0,1,370,100.92Z" style="fill:#b16668"></path><path d="M338.57,113.47c5.58-.18,10.82-1,14.07-2.45s6.05-5.89,6.89-10.25c.1,3.49-1.29,9.71-6.21,12.41s-11.16,2.88-14.81,3Z" style="fill:#9a4a4d"></path><path d="M345.34,80.21l4.81,1.72a2.61,2.61,0,0,0-1.58-3.3A2.51,2.51,0,0,0,345.34,80.21Z" style="fill:#37474f"></path><path d="M327.12,81.14,332,79.65a2.5,2.5,0,0,0-3.15-1.72A2.63,2.63,0,0,0,327.12,81.14Z" style="fill:#37474f"></path><path d="M348.3,86.09a2.19,2.19,0,1,1-2.18-2.17A2.18,2.18,0,0,1,348.3,86.09Z" style="fill:#263238"></path><path d="M332.94,85.34a2.2,2.2,0,1,1-2.18-2.17A2.18,2.18,0,0,1,332.94,85.34Z" style="fill:#263238"></path><path d="M340.34,82.56l-1.35,13-7.09-2.35A30.57,30.57,0,0,1,340.34,82.56Z" style="fill:#9a4a4d"></path><path d="M337.76,99.36l7.11-1.7a3.83,3.83,0,0,1-2.79,4.51A3.57,3.57,0,0,1,337.76,99.36Z" style="fill:#9a4a4d"></path><path d="M339.87,102a4.25,4.25,0,0,1,4.49-3,3.1,3.1,0,0,1,.53.1,3.79,3.79,0,0,1-2.81,3.11A3.52,3.52,0,0,1,339.87,102Z" style="fill:#ffa8a7"></path></g><g id="freepik--arm--inject-3"><path d="M377.67,124.8c11.19,1.42,16.12,5,20.83,18.69,2.29,6.66,5.35,15.52,7.85,23.68-.07-.23,3.93-2.7,4.31-3l4.87-3.35c3-2,6-4.4,7.86-7.52s1.7-6.14,1.93-9.51c.21-3,.89-5.89,1-8.86.06-2.55,2.82-1.75,3.9,1.21a42.66,42.66,0,0,1,1.88,12l3.71,13.17s-20.6,30-30.19,33l-.11,0-.07,0c-3.3,1.13-7.5.16-10.78-4.47-5.8-8.18-11.24-21.79-15.24-31.23S371.88,132.34,377.67,124.8Z" style="fill:#b16668"></path><path d="M377.7,123.5s8.14,1.49,12.59,5.17S398,140.09,401,149.3s5.61,17.36,5.61,17.36l7.33-4.73s-1.56,3.39,0,9.15,7.68,7.91,9,7.49a108.25,108.25,0,0,1-9.66,10.69c-4.29,3.89-7.68,6.31-11.64,5.69s-7-2.84-11.12-10.48S375.7,153,375.7,153,370,131.58,377.7,123.5Z" style="fill:#455a64"></path><path d="M405.89,164.24l.76,2.42c-6.89,5.19-8.73,8.84-9,16.62C395.46,174.17,400.5,167.85,405.89,164.24Z" style="fill:#37474f"></path><g id="freepik--Sign--inject-3"><polygon points="428.55 113.21 432.79 115.66 432.79 195.56 428.55 193.11 428.55 113.21" style="fill:#455a64"></polygon><polygon points="437.03 113.21 432.79 115.66 432.79 195.56 437.03 193.11 437.03 113.21" style="fill:#37474f"></polygon><polygon points="437.03 113.21 432.79 110.76 428.55 113.21 432.79 115.66 437.03 113.21" style="fill:#263238"></polygon><path d="M465.29,102.6c0-19.83-13.92-43.93-31.09-53.84-8.58-5-16.34-5.42-22-2.18l-2.84,1.65c-5.62,3.24-9.1,10.2-9.1,20.1,0,19.83,13.92,43.93,31.09,53.85,8.57,4.95,16.33,5.41,21.95,2.18l2.85-1.65C461.8,119.47,465.29,112.51,465.29,102.6Z" style="fill:#455a64"></path><ellipse cx="431.38" cy="86.28" rx="25.38" ry="43.96" transform="translate(14.65 227.25) rotate(-30)" style="fill:#f5f5f5"></ellipse><path d="M417.49,46.14v.35c4.27,0,8.89,1.41,13.71,4.2,17.05,9.84,30.91,33.86,30.91,53.54,0,13.47-6.45,21.84-16.85,21.84-4.27,0-8.88-1.41-13.71-4.19C414.5,112,400.64,88,400.64,68.33c0-13.47,6.46-21.84,16.85-21.84v-.35m0,0c-10.2,0-17.2,8.13-17.2,22.19,0,19.83,13.92,43.93,31.09,53.85,5,2.88,9.7,4.24,13.88,4.24,10.2,0,17.2-8.13,17.2-22.19,0-19.83-13.92-43.93-31.08-53.84-5-2.88-9.71-4.25-13.89-4.25Z" style="fill:#e0e0e0"></path><path d="M445.26,124.34c-3.91,0-8.35-1.38-12.84-4-16.57-9.56-30-32.91-30-52,0-12.4,5.79-20.1,15.11-20.1a26.42,26.42,0,0,1,12.84,4c16.57,9.57,30,32.91,30,52C460.37,116.63,454.58,124.34,445.26,124.34Z" style="fill:#0487D9"></path><polygon points="411.42 81.76 451.33 104.81 451.33 90.81 411.42 67.76 411.42 81.76" style="fill:#f5f5f5"></polygon></g><path d="M437,139.59a8,8,0,0,1,5.64,1.92c1.48,1.08,4.44,2.57,3.82,4.84a8.27,8.27,0,0,0-.54,1.91,5.1,5.1,0,0,0,.52,2,2.49,2.49,0,0,1,.1,2,11.18,11.18,0,0,1-.92,1.14,3.06,3.06,0,0,0-.38,1.91,11.94,11.94,0,0,1,.09,2c-.16,1.43-1.42,2-2.56,2.63-1.49.75-3,1.41-4.56,2.07-2.51,1.09-6.34-.94-6.8-3.66a.68.68,0,0,1,.38-.84c.14-.08.72-.37.87-.31-1-.38-2.05-.44-2.8-1.29a1.19,1.19,0,0,1-.16-.23.9.9,0,0,1,0-.4,2.28,2.28,0,0,1,.87-1.6,4.5,4.5,0,0,1,.78-.42c.11-.05.62-.29.37-.4-.7-.28-1.41-.56-2.11-.86-.42-.19-.88-.38-1-.87a1.36,1.36,0,0,1,.43-1.24,4.2,4.2,0,0,1,2.58-1,9.05,9.05,0,0,1-2.72-1.56,1,1,0,0,1-.31-.5.89.89,0,0,1,.11-.55,2.57,2.57,0,0,1,1.09-1.21,4.56,4.56,0,0,1,2.24-.29,28.8,28.8,0,0,0,2.94,0c.17,0,2.08-.15,2.08-.37Z" style="fill:#b16668"></path><path d="M432.79,149a17.85,17.85,0,0,0,5.65,1.12,24.8,24.8,0,0,0,5.37-2.09c-1.84.4-3.59,1.28-5.41,1.61a43,43,0,0,1-5.61-.64Z" style="fill:#9a4a4d"></path><path d="M432.4,153a18.14,18.14,0,0,0,5.55,1.55,25,25,0,0,0,5.51-1.67c-1.86.25-3.67,1-5.51,1.19A43.09,43.09,0,0,1,432.4,153Z" style="fill:#9a4a4d"></path><path d="M432.94,157.22a14.6,14.6,0,0,0,3.69,1.19c2.17-.14,4.14-1.18,6.14-1.94-2,.39-4.06,1.28-6.11,1.48-1.24-.14-2.47-.55-3.72-.73Z" style="fill:#9a4a4d"></path></g></g></g></g><g id="freepik--character-1--inject-3"><g id="freepik--character--inject-3"><g id="freepik--bottom--inject-3"><g id="freepik--bottom--inject-3"><polygon points="163.87 397.16 168.13 395.19 163.93 394.08 163.87 397.16" style="fill:#263238"></polygon><path d="M206.17,404.61s-50.32-21.44-50.95-18.25a4.41,4.41,0,0,0,0,1.92l-.14-.18.93,6a15.47,15.47,0,0,0,7.83,3.1c0-.29,0-2.06.06-3.07a26.1,26.1,0,0,1,4.43,2.22c3.23,2,5.3,5.53,8.73,9.61,2.49,3,6.94,4.37,13.53,5.27,7.09.95,13.34-.32,15.1-2.11C207.13,407.66,206.42,405,206.17,404.61Z" style="fill:#263238"></path><path d="M204.78,403.51c-.49-.48-2.28-2.35-4.71-4.38-2.12-1.77-4.6-4-7.26-5.83a27.76,27.76,0,0,1-3.61-2.81,34.52,34.52,0,0,1-2.5-2.77,51,51,0,0,1-6.07-9.7c-.8-1.62-2.22-5.18-1.82-11.78.62-10,1.49-13.61,1.53-20.12l-24,3.05c.7,3.61,1.45,11.65,1.82,15.75.55,6.23,1.53,6.82-1.06,13-.76,1.83-1.89,3.59-2,5.55-.16,3.18,2.5,5.94,5.48,7.5,2.46,1.3,5.3,1.86,7.69,3.24a24.26,24.26,0,0,1,6.27,5.8c1.69,2,3,4.45,5.43,5.88,2.63,1.6,5.14,2.1,8.19,2.68a46.53,46.53,0,0,0,11,.54C204.41,408.77,208.3,407,204.78,403.51Z" style="fill:#ffbda7"></path><path d="M201.89,400c-2.17-1.72-5.24-4.18-8.95-6.95a10,10,0,0,0-7.81.66c-7.47,3.68-8.75,8.92-8.75,8.92a10.52,10.52,0,0,0,6.11,5c8.63,3.56,24.09,2.45,24.24-1.29C206.83,404,204.52,402.11,201.89,400ZM157.58,376.6a39.26,39.26,0,0,1-1.82,3.63c-1.32,2.41-1.57,4.81.08,7.22,2.17,3.19,4.84,4.17,7.57,4.85C165.8,385.21,160.58,378.14,157.58,376.6Z" style="fill:#37474f"></path><path d="M126.61,393.24c.18,2.43-.08,9.67.45,15.08.49,4.92,1.95,12.57.74,18.4s-6.78,12.47-14.94,7.38c-5.06-3.15-7.2-7.12-8.13-14.19-.65-4.91,1.42-11.83,3.18-18,2.06-7.17,2.8-11,2.8-11Z" style="fill:#263238"></path><path d="M108.94,357.52c0,6.66.85,17.67,1.21,25a61.86,61.86,0,0,1-.63,11.9c-1,4.74-2,11.32-2.72,14.4-1,4.3-1.73,7,.17,11.72a4.88,4.88,0,0,0,.6,1.06c2.55,3.84,8.79,6.56,10.73,6a3.7,3.7,0,0,0,3.49.89,5.13,5.13,0,0,0,.65-.16,5.78,5.78,0,0,0,.65-.25,6,6,0,0,0,3.13-3.75,7.81,7.81,0,0,0,.27-1.06,34.72,34.72,0,0,0,.37-11.62c-.17-2.82-.27-6.84-.15-11.17s4.32-27,5.94-40.61Z" style="fill:#ffbda7"></path><path d="M105.81,414.45c4.76-2,19.23-2.6,21.67,3.12.26,5.48,0,9-3.91,13.88-5.16,6.55-12.43.12-15.29-4S105.26,417.42,105.81,414.45Z" style="fill:#37474f"></path><path d="M125.07,193.81c-6.62,10.22-12.69,21.06-13.44,44.43-1,30.79,2.35,58.15,2,61.9s-2,9.83-4.87,28.23.41,54.11.41,54.11,2.14,4.23,9.67,5.18c7,.87,10.26-2.12,10.26-2.12s11.86-49.19,15-60.22,7.9-50.49,7.9-50.49l1.17,20.94s-2.59,10.12-1.21,26.42S158.37,370,158.37,370s3.1,3.17,10.51,3c6.78-.14,10.25-3.59,10.25-3.59s7.54-61.85,8.38-80.23,1.08-64.29-3.85-91.75Z" style="fill:#37474f"></path><path d="M156.6,236.56l-4.54,38.27,1.17,20.94.59-21.62,6.52-34.62c4.78-.87,17.18-8.43,18.36-15.89C171.9,233.24,156.6,236.56,156.6,236.56ZM126.92,348.34q-2.36,14.43-4.29,28.93,3.15-14.31,5.9-28.69c1.87-9.58,3.6-19.15,5.32-28.79s3.26-31.43,4-41.15,1.21-19.44,1.56-29.17c-1.15,9.68-2.16,19.37-3.18,29s-2.81,31.4-4.43,41S128.45,338.71,126.92,348.34Zm51.7-69.81c0,4.22.08,8.47-.18,12.64s-.76,8.41-1.18,12.62L176,316.44q-1.28,12.65-2.24,25.34,2.17-12.55,3.87-25.17c1.13-8.42,2.21-16.81,2.91-25.32.36-8.57,0-17-.45-25.5s-1.15-16.94-2.16-25.37l.53,25.42C178.51,270.07,178.61,274.3,178.62,278.53Z" style="fill:#263238"></path></g></g><g id="freepik--top--inject-3"><path id="freepik--Hair--inject-3" d="M130.39,81.93c-7.73,2.6-9.38,10.19-9.55,23.2-.07,5.05.12,9.53-4.15,13-2.28,1.83-5,3.19-6.92,5.38-3.22,3.64-3.5,9.89.11,13.15a8,8,0,0,0-4.93,6.58,11.86,11.86,0,0,0,2.37,8.13c3.47,4.85,10.23,6.68,16,5.62,1.41,3.86,5.52,6.3,9.61,6.55s8.12-1.37,11.52-3.69c2.15,4.09,7.57,5.41,11.82,4.75a15.45,15.45,0,0,0,10.72-7,1.67,1.67,0,0,1,.59-.67,1.44,1.44,0,0,1,.65-.11c2.93-.07,5.71-.08,8.34-1.44a14.54,14.54,0,0,0,5.95-4.95,10.41,10.41,0,0,0,1.62-5.1,8,8,0,0,0-.75-4.43c2.48-2,2.71-7.71,1.92-10.77s-2.82-5.66-5-7.95a70.58,70.58,0,0,1-6.46-6.94,11.27,11.27,0,0,1-2.16-7.37c0-1.55-.72-4.38.35-5.71,0,0,4.71-5.84,4.43-12.07a19.51,19.51,0,0,0-15.32-18.42C151.56,69.26,134.25,70.25,130.39,81.93Z" style="fill:#263238"></path><g id="freepik--arm--inject-3"><path d="M168,133.48c-5.46,4.81-3.17,22,4.63,32.31,8.52,11.21,14.1,20.26,19.54,26.2,5.8,6.35,8.19,8.56,16.9,4.53,13.44-6.22,30.37-20.14,35.89-24.06a18.14,18.14,0,0,0,4.59-5.4c1-2.36.74-5.17.79-7.19.1-3.67.31-7.32.36-11,0-1.66.51-3.54-.48-5-.2-.3-.69-.64-1-.57,0,0,0-1.55.05-2.26.05-1.31-.1-3.74-1.62-4.23-1.27-.4-2.3,2.58-2.3,2.58s.86-2.88.41-4.25c-.56-1.72-1.94-2.76-2.9-1.73a7.8,7.8,0,0,0-1.44,2.54,2,2,0,0,0-1.73.21c-1.52.84-2.14,2.65-2.63,4.21a28,28,0,0,0-1.19,5.65,24.84,24.84,0,0,1-.85,5.79,6.14,6.14,0,0,1-2.29,3.1c-1.29.87-2.11,2.79-1.71,5.88.15,1.2.18,3.76-3.1,5.4-6.9,3.46-21.13,9-21.14,8.52,0,0-10.85-15.23-17.82-26.34C185.44,142.86,180.71,135,168,133.48Z" style="fill:#ffbda7"></path><path d="M243.91,158.5a8,8,0,0,0-1.09-1,7.27,7.27,0,0,0-3.36-1.44c-.11,0-.07.2,0,.23a8.54,8.54,0,0,1,3.75,2.5c1.42,1.69,1.76,3.82,1.94,6,0,.08.07.18.13.13s0,0,0-.06a7.6,7.6,0,0,0-.16-4.28A6.91,6.91,0,0,0,243.91,158.5Z" style="fill:#f0997a"></path><path d="M250.75,144.69c-.22-.61-.54-1.4-1.38-1.54l.06-2.55a6.7,6.7,0,0,0-.46-2.74,2.42,2.42,0,0,0-.95-1.11,1.22,1.22,0,0,0-1.51.15,4,4,0,0,0-.6.72c.05-.33.11-.66.13-1a4,4,0,0,0-.78-2.81,2.49,2.49,0,0,0-1.2-.93,1.33,1.33,0,0,0-1.44.48,7.61,7.61,0,0,0-1.35,2.4,2.89,2.89,0,0,0-2.78,1.17,8.38,8.38,0,0,0-1.42,2.87,28.36,28.36,0,0,0-1.25,6.22,28.63,28.63,0,0,1,1.47-6.14,8.29,8.29,0,0,1,1.41-2.76,3.78,3.78,0,0,1,.79-.7,1.68,1.68,0,0,1,.47-.22,3.75,3.75,0,0,1,.57-.09,1.28,1.28,0,0,1,1.06.27,1.68,1.68,0,0,1,.42,1c0,.1,0,.19,0,.28a7.28,7.28,0,0,1-.18,1.91,27.9,27.9,0,0,0-.78,3.89,34.84,34.84,0,0,0-.31,4v4l.11-4a34.54,34.54,0,0,1,.43-3.92,27.07,27.07,0,0,1,.9-3.84,7.43,7.43,0,0,0,.25-2,2.09,2.09,0,0,0-.86-1.78,7.07,7.07,0,0,1,1.28-2.21,1,1,0,0,1,1.07-.37,2.15,2.15,0,0,1,1,.81,3.57,3.57,0,0,1,.67,2.55,10.93,10.93,0,0,1-.2,1.38c-.09.44-.21.89-.3,1.34a23.53,23.53,0,0,0-.27,2.79c-.05.94-.09,1.88-.12,2.83,0,1.85-.08,3.71,0,5.57,0-1.86.08-3.71.21-5.56.06-.81.13-1.62.2-2.43l.15-1.41.09-.71c0-.11,0-.23,0-.35a2.14,2.14,0,0,0,.06-.27c0-.13,0-.26.07-.39a4.92,4.92,0,0,1,.51-1.15,4.33,4.33,0,0,1,.73-1c.58-.61,1.43.05,1.74.79a8.86,8.86,0,0,1,.46,3.5c0,.65-.06,1.29-.11,1.93s-.1,1.32-.15,2c-.09,1.33-.15,2.65-.14,4,0,.22,0,.45,0,.67a63.67,63.67,0,0,1,.76-6.61,1.38,1.38,0,0,1,.57.4,3.56,3.56,0,0,1,.46.89,6.33,6.33,0,0,1,.2,2.09c-.12,1.43-.14,2.9-.18,4.33l-.15,8.66.42-8.66c.06-1.45.1-2.87.23-4.32A6.32,6.32,0,0,0,250.75,144.69Z" style="fill:#f0997a"></path><path d="M234.84,149.83c-.72-3.14-2.85-4.21-4-3.41s0,4.5,0,7-.88,14.5,4.79,16.38l1.32-13.59C236,155.56,235.39,152.26,234.84,149.83Z" style="fill:#ffbda7"></path><path d="M236.94,156.25a4.79,4.79,0,0,1-1.12-2.08c-.25-.76-.45-1.53-.65-2.3-.39-1.53-.57-3.18-1.56-4.39a2.68,2.68,0,0,0-1.85-1.13,1.19,1.19,0,0,0-.91.35,1.85,1.85,0,0,0-.28,1c0,1.54.35,3.11.47,4.71a67,67,0,0,0,.22,9.52,16.62,16.62,0,0,0,1.2,4.55,5.8,5.8,0,0,0,3.16,3.34,5.92,5.92,0,0,1-3.38-3.24,16.41,16.41,0,0,1-1.3-4.61,64.68,64.68,0,0,1-.38-9.52c-.09-1.57-.45-3.13-.39-4.78a2.14,2.14,0,0,1,.38-1.23,1.48,1.48,0,0,1,1.23-.47,3,3,0,0,1,2.09,1.29C235.77,150.05,235.05,153.62,236.94,156.25Z" style="fill:#f0997a"></path></g><path id="freepik--chest--inject-3" d="M117.08,208.8c-2.71-5.9,3.14-11.53,4.07-20.3.64-6-3.28-20.74-3.28-20.74s12.63-9.32,9-32.43l17.31-2.93c14.93-.87,23.78,1.1,23.78,1.1,4,3.09,11,7.9,15.57,15.2,6.93,11,4.06,19.84-2.31,27.25-.05,1.43-.21,8.94,3.78,24.16.57,2.16,2,6,.24,8C175.32,219.45,134.78,223.62,117.08,208.8Z" style="fill:#0487D9"></path><g id="freepik--arm--inject-3"><path d="M126.92,135.33c-11.19,1.42-16.12,5-20.83,18.7-2.29,6.66-5.35,15.52-7.85,23.68.07-.23-3.93-2.7-4.31-3l-4.87-3.35c-3-2-6-4.41-7.86-7.53s-1.7-6.13-1.93-9.5c-.21-3-.89-5.9-1-8.86-.06-2.55-2.82-1.75-3.9,1.21a42.66,42.66,0,0,0-1.88,12l-1.29-1.21-2.42,14.38s20.6,30,30.19,33l.11,0,.06,0c3.31,1.13,7.51.15,10.79-4.47,5.8-8.18,11.24-21.79,15.24-31.23S132.71,142.88,126.92,135.33Z" style="fill:#ffbda7"></path><path d="M99.15,174.78l-.85,2.73c6.89,5.18,8.37,8.52,8.67,16.3C109.13,184.7,104.54,178.39,99.15,174.78Z" style="fill:#f0997a"></path><g id="freepik--sign--inject-3"><polygon points="76.04 117.18 71.8 119.63 71.8 206.07 76.04 203.62 76.04 117.18" style="fill:#455a64"></polygon><polygon points="67.56 117.18 71.8 119.63 71.8 206.07 67.56 203.62 67.56 117.18" style="fill:#37474f"></polygon><polygon points="67.56 117.18 71.8 114.74 76.04 117.18 71.8 119.63 67.56 117.18" style="fill:#263238"></polygon><polygon points="85.93 51.1 83.1 49.47 60.04 62.78 43.74 93.94 43.74 124.68 60.04 137 62.87 138.64 85.93 125.33 102.23 94.17 102.23 63.43 85.93 51.1" style="fill:#455a64"></polygon><polygon points="85.93 51.1 62.87 64.42 46.57 95.57 46.57 126.31 62.87 138.64 85.93 125.33 102.23 94.17 102.23 63.43 85.93 51.1" style="fill:#f5f5f5"></polygon><path d="M85.9,51.52l16,12.08V94.09l-16.22,31L62.9,138.22l-16-12.08V95.65l16.21-31L85.9,51.52m0-.42L62.87,64.42,46.57,95.57v30.74l16.3,12.33,23.06-13.32,16.3-31.15V63.43L85.93,51.1Z" style="fill:#e0e0e0"></path><polygon points="48.66 125.27 48.66 96.08 64.44 65.92 85.77 53.6 100.15 64.47 100.15 93.66 84.36 123.82 63.03 136.14 48.66 125.27" style="fill:#0487D9"></polygon><path d="M64.67,92.6l3-1.7v20.82l2.78-1.6V89.3l2.94-1.7V83.88l-8.67,5Zm-2.75,12.79a5.75,5.75,0,0,0-1.58-1.78,9.29,9.29,0,0,0-1.28-.77,4.9,4.9,0,0,1-1.24-.86,3.85,3.85,0,0,1-1.08-2.8,5.81,5.81,0,0,1,.32-2,2.78,2.78,0,0,1,1.16-1.57c.48-.27.85-.28,1.1,0a3.25,3.25,0,0,1,.65,2l2.66-2.18A6.14,6.14,0,0,0,62,92.9a2.11,2.11,0,0,0-1.33-1.15,3.42,3.42,0,0,0-2.54.59,7.45,7.45,0,0,0-2.59,2.53,11.15,11.15,0,0,0-1.69,6,6.88,6.88,0,0,0,.62,3.09,6.25,6.25,0,0,0,1.95,2.07l2.47,1.69a3.06,3.06,0,0,1,1,2.44,5,5,0,0,1-.28,1.79,3.78,3.78,0,0,1-1.45,2,.88.88,0,0,1-1.15,0,4,4,0,0,1-.85-2.62l-2.64,1.78a9,9,0,0,0,.61,3.12,2.76,2.76,0,0,0,1.42,1.59,3.06,3.06,0,0,0,2.7-.49,7.67,7.67,0,0,0,1.54-1.16,8.76,8.76,0,0,0,1.91-2.85,12.09,12.09,0,0,0,1-5,6.57,6.57,0,0,0-.41-2.12A6.69,6.69,0,0,0,61.92,105.39Zm32.19-31.8c-.8-.67-1.88-.62-3.23.16L86.5,76.28v24.54l2.78-1.6V90l1.6-.92A8.24,8.24,0,0,0,94,85.55a10.55,10.55,0,0,0,1.27-4.89V77.1C95.22,75.41,94.85,74.25,94.11,73.59Zm-1.57,8.7a3.85,3.85,0,0,1-.47,1.78A3,3,0,0,1,91,85.34l-1.67,1V78.46l1.67-1c.48-.28.86-.3,1.15-.08a1.59,1.59,0,0,1,.44,1.3Zm-9.78-2.44a2.62,2.62,0,0,0-3.12.08,8.29,8.29,0,0,0-3.1,3.5,10.5,10.5,0,0,0-1.29,4.91v13.4a4.06,4.06,0,0,0,1.27,3.41,2.64,2.64,0,0,0,3.12-.07,8.4,8.4,0,0,0,3.11-3.51,10.55,10.55,0,0,0,1.3-4.91V83.26A4,4,0,0,0,82.76,79.85ZM81.32,98.29a4,4,0,0,1-.48,1.84,3.16,3.16,0,0,1-1.19,1.34,1.56,1.56,0,0,1-.73.22,1,1,0,0,1-.59-.2,1.6,1.6,0,0,1-.53-1.36V86.69a3.91,3.91,0,0,1,.49-1.85,3.19,3.19,0,0,1,1.19-1.33,1.11,1.11,0,0,1,1.31,0,1.6,1.6,0,0,1,.53,1.36Z" style="fill:#f5f5f5"></path></g><path d="M67.56,150.12a8.06,8.06,0,0,0-5.64,1.93c-1.48,1.07-4.44,2.57-3.82,4.83a8.21,8.21,0,0,1,.54,1.92,5.29,5.29,0,0,1-.52,2,2.52,2.52,0,0,0-.1,2,12.4,12.4,0,0,0,.92,1.14,3.06,3.06,0,0,1,.38,1.91,10,10,0,0,0-.09,2c.16,1.44,1.42,2.06,2.55,2.63,1.5.75,3,1.41,4.57,2.08,2.51,1.08,6.33-.94,6.8-3.66a.68.68,0,0,0-.38-.84c-.14-.08-.72-.38-.87-.32,1-.37,2-.43,2.8-1.28a1,1,0,0,0,.16-.24.86.86,0,0,0,0-.39,2.3,2.3,0,0,0-.87-1.6,4.5,4.5,0,0,0-.78-.42c-.11-.06-.63-.29-.37-.4.7-.29,1.41-.56,2.1-.87.43-.18.89-.37,1-.86a1.36,1.36,0,0,0-.43-1.24A4.27,4.27,0,0,0,73,159.3a8.82,8.82,0,0,0,2.72-1.55,1,1,0,0,0,.31-.5.93.93,0,0,0-.11-.56,2.5,2.5,0,0,0-1.09-1.2,4.37,4.37,0,0,0-2.25-.29c-1,0-2,0-2.94,0-.17,0-2.07-.15-2.07-.38Z" style="fill:#ffbda7"></path><path d="M71.8,159.57a18.13,18.13,0,0,1-5.65,1.12,25.65,25.65,0,0,1-5.37-2.09c1.84.4,3.59,1.28,5.41,1.61a44.82,44.82,0,0,0,5.61-.64Z" style="fill:#f0997a"></path><path d="M72.19,163.55a18.22,18.22,0,0,1-5.55,1.55,25.38,25.38,0,0,1-5.51-1.67c1.86.25,3.67,1,5.51,1.19a44.87,44.87,0,0,0,5.55-1.07Z" style="fill:#f0997a"></path><path d="M71.64,167.75A15,15,0,0,1,68,169c-2.17-.14-4.14-1.19-6.15-1.95,2.06.39,4.07,1.28,6.12,1.48,1.23-.14,2.47-.54,3.71-.73Z" style="fill:#f0997a"></path></g><g id="freepik--head--inject-3"><path d="M128,103.78c1.66-2,5.11-2.87,6.86-.25,1.09,1.62,1.42,4.37,3,3.93,1-.28,1.28-1.44.87-3.54,0,.11,1.26-.67,1.35-.75,1.18-1,.89-2.6,1.26-4,.41-1.53,1.61-2.7,2.33-4.08,1.11-2.17.63-4.84.16-7.13-.21-1-.36-2.17.35-2.89a2.87,2.87,0,0,1,2.06-.62,35.32,35.32,0,0,1,6.82,1.2,11.51,11.51,0,0,0,6.83-.22c.91-.39,1.72-1,2.6-1.43a4.52,4.52,0,0,1,2.84-.59,4.71,4.71,0,0,1,2.26,1.3c3,2.79,4,7.24,4.83,11.15a53,53,0,0,1,.57,8.91c.4,12.72-1.81,15.88-4.44,18.12-2.26,1.93-5.8,3-10,3l.13,7.23s6.2,11.3,3.36,18c0,0-9.72-3.93-15.66-8.73-7.29-5.9-8.54-8.78-8.54-8.78l-.29-20s-3,4.46-7.51,1.13C126.36,112,125.51,106.74,128,103.78Z" style="fill:#ffbda7"></path><path d="M158.57,125.93c-8,.14-15.79-3.17-18.76-10.33,0,0,.34,4.77,3.4,7.67,6.09,5.77,15.41,5.18,15.41,5.18Z" style="fill:#f0997a"></path><path d="M150.11,100a2,2,0,1,0,2.16-1.74A2,2,0,0,0,150.11,100Z" style="fill:#263238"></path><path d="M164.69,100.28A2,2,0,1,0,166,97.81,2,2,0,0,0,164.69,100.28Z" style="fill:#263238"></path><path d="M152.74,93.15,148,95a2.65,2.65,0,0,1,1.5-3.34A2.46,2.46,0,0,1,152.74,93.15Z" style="fill:#263238"></path><path d="M164.46,92.62l4.88,1.3a2.65,2.65,0,0,0-1.85-3.16A2.46,2.46,0,0,0,164.46,92.62Z" style="fill:#263238"></path><path d="M161.76,113.11l-7-1.92a3.83,3.83,0,0,0,2.65,4.59A3.57,3.57,0,0,0,161.76,113.11Z" style="fill:#b16668"></path><path d="M159.57,115.65a4.24,4.24,0,0,0-4.39-3.15,4.68,4.68,0,0,0-.54.09,3.79,3.79,0,0,0,2.72,3.19A3.4,3.4,0,0,0,159.57,115.65Z" style="fill:#f0997a"></path><path d="M160,108.44l6.17-3.09c-5-7.37-8.33-9.51-8.33-9.51Z" style="fill:#f0997a"></path></g></g></g></g></svg>
